<svg height="360.6" viewBox="0 0 861.3 360.6" width="861.3" xmlns="http://www.w3.org/2000/svg"><g fill="#fff" transform="translate(-242.8 -139.4)"><path d="m271.7 152.6-28.9-13.2h104.6l-28.9 13.2v75.4h-46.8zm46.8 334.1 28.9 13.2h-104.6l28.9-13.2v-235.3h46.8v60h122.6l9.6 16.6h-132.2zm189.7 0 28.9 13.2h-104.6l28.9-13.2v-334.1l-28.9-13.2h104.6l-28.9 13.2z"/><path d="m826.7 228.2v13.2c0 46.9-38.6 84.9-86.1 84.9h-80.1a87.657 87.657 0 0 1 -10.3-.6v161.1l28.9 13.2h-104.5l28.9-13.2v-235.4h46.5l.3 49.8a69.893 69.893 0 0 0 9.2.7h60c35.6 0 64.5-28 64.5-62.7v-9.7c0-34.6-28.9-62.6-64.5-62.6l-70-.1.4 61.2h-46.3v-75.4l-28.9-13.2h166c47.4.1 86 41.9 86 88.8z"/><path d="m893.1 152.6-28.9-13.2h104.6l-28.9 13.2v239.8h-46.8zm211 304.5v42.8h-239.9l28.9-13.2v-70.9h46.8v60.6h151z"/></g></svg>