<svg enable-background="new 0 0 1366 768" viewBox="0 0 1366 768" xmlns="http://www.w3.org/2000/svg" xmlns:xlink="http://www.w3.org/1999/xlink"><radialGradient id="a" cx="685.3887" cy="565.2509" gradientTransform="matrix(.9508 0 0 .4889 24.572 266.0462)" gradientUnits="userSpaceOnUse" r="322.0263"><stop offset="0" stop-color="#20222a"/><stop offset=".4863" stop-color="#1a1b24"/><stop offset="1" stop-color="#0d0e19"/></radialGradient><path d="m271.7 152.6-28.9-13.2h104.6l-28.9 13.2v75.4h-46.8zm46.8 334.1 28.9 13.2h-104.6l28.9-13.2v-235.3h46.8v60h122.6l9.6 16.6h-132.2zm189.7 0 28.9 13.2h-104.6l28.9-13.2v-334.1l-28.9-13.2h104.6l-28.9 13.2z"/><path d="m826.7 228.2v13.2c0 46.9-38.6 84.9-86.1 84.9h-80.1c-3.5 0-6.9-.2-10.3-.6v161.1l28.9 13.2h-104.5l28.9-13.2v-235.4h46.5l.3 49.8c3 .4 6.1.7 9.2.7h60c35.6 0 64.5-28 64.5-62.7v-9.7c0-34.6-28.9-62.6-64.5-62.6l-70-.1.4 61.2h-46.3v-75.4l-28.9-13.2h166c47.4.1 86 41.9 86 88.8z"/><path d="m893.1 152.6-28.9-13.2h104.6l-28.9 13.2v239.8h-46.8zm211 304.5v42.8h-6-7.2-122.1-104.6l28.9-13.2v-70.9h46.8v60.6h151z"/><g fill="#a67c52"><path d="m264 590.9h-2.9c-.1 0-.2 0-.2 0v39.9c0 1.2.5 2.2 1.3 3s1.9 1.3 3 1.3h.9v.7h-20.8v-.7h.9c1.6 0 2.9-.7 3.8-2.1.4-.6.6-1.3.6-2.1v-38c0-1.2-.5-2.2-1.3-3s-1.9-1.3-3-1.3h-.9v-.7h23.5c4.4 0 8.2 1 11.2 2.9 1.5 1 2.8 2.3 3.7 4s1.4 3.9 1.4 6.7-1 5.4-2.9 8-4.7 4-8.3 4.4c2.6.9 5 2.9 7 6 4.9 7.9 8.6 12.6 10.9 14.1 1.2.7 2.7 1.1 4.4 1.2v.7h-6.7c-4 0-7.3-.5-9.9-1.6-2.6-1-4.7-2.9-6.2-5.5-.9-1.5-2.8-5.4-5.7-11.7-1.3-2.8-2.8-4.3-4.7-4.6v-.7h2.1c2.1 0 3.9-.6 5.4-1.8 1.6-1.2 2.6-3.2 3.2-6 .2-1 .3-1.7.3-2.3 0-3.7-.8-6.4-2.3-8.1s-3.4-2.5-5.8-2.6c-.4-.1-1.1-.1-2-.1z"/><path d="m316.5 635.1c1.2 0 2.2-.4 3-1.3.8-.8 1.3-1.9 1.3-3v-38.1c-.1-1.2-.4-2.1-1-2.6-1.1-1-2.2-1.5-3.4-1.5h-.9v-.7h26.2c2.2 0 4.1-.2 5.5-.5 1.5-.3 2.3-.6 2.7-.7v12l-.7-.1v-.8c0-2.8-1.1-4.8-3.1-6-1-.6-2.2-.9-3.6-1h-11.5v19.9h9c1.7 0 3.1-.6 4.2-1.7s1.6-2.5 1.6-4.1v-.6h.7v15.8h-.7v-.5c0-1.7-.5-3.1-1.6-4.2s-2.4-1.7-4.1-1.7h-9.2v19.2h9c3.3 0 6.1-1 8.4-2.9s3.9-4.6 5-8.1h.7l-3.1 13.9h-35.4v-.7z"/><path d="m394.1 590.9v19.9h9c1.7 0 3.1-.6 4.2-1.7s1.6-2.5 1.6-4.2v-.6h.7v15.8h-.6v-.5c0-1.7-.5-3.1-1.6-4.2s-2.4-1.7-4.1-1.7h-9.2v17.2c0 1.2.4 2.2 1.3 3s1.9 1.3 3.1 1.3h.8l.1.7h-20.8v-.7h.9c1.2 0 2.2-.4 3-1.3.8-.8 1.3-1.9 1.3-3v-38.1c0-1.6-.8-2.8-2.3-3.6-.6-.4-1.3-.5-2.1-.5h-.9v-.7h26.2c1.4 0 3-.1 4.7-.4s2.9-.5 3.6-.8v11.6h-.7v-.7c0-2-.6-3.6-1.7-4.8-1.2-1.2-2.7-1.8-4.8-1.9h-11.7z"/><path d="m440.4 635.1c1.2 0 2.2-.4 3-1.3.8-.8 1.3-1.9 1.3-3v-38c0-1.2-.5-2.2-1.3-3s-1.9-1.2-3-1.2h-.9v-.7h20.8l-.1.7h-.8c-1.2 0-2.2.4-3.1 1.2s-1.3 1.8-1.3 3v38c0 1.2.4 2.2 1.3 3s1.9 1.3 3.1 1.3h.8l.1.7h-20.8v-.7z"/><path d="m539 588.6c-1.6 0-2.8.7-3.6 2.1-.4.6-.6 1.3-.6 2.1v35.2c0 3.1.2 5.6.6 7.7l.2 1h-.6l-34.5-32.9v27.2c0 1.1.4 2.1 1.2 2.9s1.8 1.2 2.9 1.2h1.3v.7h-20.7v-.7h1.2c1.2 0 2.2-.4 3-1.2s1.2-1.8 1.2-3v-35.5c0-3-.2-5.5-.6-7.5l-.1-1h.6l34.5 32.9v-27c0-1.2-.5-2.2-1.3-3s-1.8-1.2-2.9-1.2h-1.2v-.7h20.7v.7z"/><path d="m565.2 635.1c1.2 0 2.2-.4 3-1.3.8-.8 1.3-1.9 1.3-3v-38.1c-.1-1.2-.4-2.1-1-2.6-1.1-1-2.2-1.5-3.4-1.5h-.9v-.7h26.2c2.2 0 4.1-.2 5.5-.5 1.5-.3 2.3-.6 2.7-.7v12l-.7-.1v-.8c0-2.8-1.1-4.8-3.1-6-1-.6-2.2-.9-3.6-1h-11.5v19.9h9c1.7 0 3.1-.6 4.2-1.7s1.6-2.5 1.6-4.1v-.6h.7v15.8h-.7v-.5c0-1.7-.5-3.1-1.6-4.2s-2.4-1.7-4.1-1.7h-9.2v19.2h9c3.3 0 6.1-1 8.4-2.9s3.9-4.6 5-8.1h.7l-3.1 13.9h-35.4v-.7z"/><path d="m671.3 594.4c4.7 4.3 7 10.1 7 17.5s-2.3 13.2-7 17.5-11.1 6.4-19.1 6.4h-24.8v-.7h.9c1.2 0 2.2-.4 3-1.3.8-.8 1.3-1.9 1.3-3v-38.3c0-1.1-.4-2-1.3-2.8s-1.9-1.1-3-1.1h-.9v-.7h24.8c8 0 14.4 2.2 19.1 6.5zm-20.1 38.5c3.3 0 6.1-.8 8.5-2.5s4.2-4.1 5.5-7.3 1.9-6.6 1.9-10.4c0-3.7-.4-6.9-1.1-9.5-.8-2.6-1.8-4.8-3.2-6.7-2.8-3.8-6.7-5.7-11.6-5.7h-8.4v42.1z"/><path d="m742.3 635.1c1.2 0 2.2-.4 3-1.3.8-.8 1.3-1.9 1.3-3v-37.9c0-1.2-.5-2.2-1.3-3s-1.9-1.3-3-1.3h-.9v-.7h20.8l-.1.7h-.8c-1.2 0-2.2.4-3.1 1.3-.9.8-1.3 1.9-1.3 3v39.9h9c3.3 0 6.1-1 8.4-2.9s3.9-4.6 5-8.1h.7l-3.1 13.9h-35.4v-.7h.8z"/><path d="m804.1 635.1c1.2 0 2.2-.4 3-1.3.8-.8 1.3-1.9 1.3-3v-38c0-1.2-.5-2.2-1.3-3s-1.9-1.2-3-1.2h-.9v-.7h20.8l-.1.7h-.8c-1.2 0-2.2.4-3.1 1.2s-1.3 1.8-1.3 3v38c0 1.2.4 2.2 1.3 3s1.9 1.3 3.1 1.3h.8l.1.7h-20.8v-.7z"/><path d="m884.1 587.9h14.6v.7h-.6c-1.1 0-2.1.3-3.1 1-1.1.6-1.9 1.6-2.6 2.9l-16.2 35.8c-2.1 4.5-3.2 7.5-3.4 9h-.6l-20.7-44.7c-.7-1.3-1.5-2.2-2.6-2.9s-2.1-1-3.2-1h-.5v-.7h21.7v.7h-.5c-1 0-1.7.3-2.2.9s-.7 1.2-.7 1.7.1 1.1.3 1.6l11.6 28.2 12-28.2c.2-.6.3-1.2.3-1.7s-.2-1.1-.7-1.7-1.2-.9-2.2-.9h-.6v-.7z"/><path d="m920.6 635.1c1.2 0 2.2-.4 3-1.3.8-.8 1.3-1.9 1.3-3v-38.1c-.1-1.2-.4-2.1-1-2.6-1.1-1-2.2-1.5-3.4-1.5h-.9v-.7h26.2c2.2 0 4.1-.2 5.5-.5 1.5-.3 2.3-.6 2.7-.7v12l-.7-.1v-.8c0-2.8-1.1-4.8-3.1-6-1-.6-2.2-.9-3.6-1h-11.5v19.9h9c1.7 0 3.1-.6 4.2-1.7s1.6-2.5 1.6-4.1v-.6h.7v15.8h-.7v-.5c0-1.7-.5-3.1-1.6-4.2s-2.4-1.7-4.1-1.7h-9.2v19.2h9c3.3 0 6.1-1 8.4-2.9s3.9-4.6 5-8.1h.7l-3.1 13.9h-35.4v-.7z"/><path d="m1001.6 590.9h-2.9c-.1 0-.2 0-.2 0v39.9c0 1.2.5 2.2 1.3 3s1.9 1.3 3 1.3h.9v.7h-20.8v-.7h.9c1.6 0 2.9-.7 3.8-2.1.4-.6.6-1.3.6-2.1v-38c0-1.2-.5-2.2-1.3-3s-1.9-1.3-3-1.3h-.9v-.7h23.5c4.4 0 8.2 1 11.2 2.9 1.5 1 2.8 2.3 3.7 4s1.4 3.9 1.4 6.7-1 5.4-2.9 8-4.7 4-8.3 4.4c2.6.9 5 2.9 7 6 4.9 7.9 8.6 12.6 10.9 14.1 1.2.7 2.7 1.1 4.4 1.2v.7h-6.7c-4 0-7.3-.5-9.9-1.6-2.6-1-4.7-2.9-6.2-5.5-.9-1.5-2.8-5.4-5.7-11.7-1.3-2.8-2.8-4.3-4.7-4.6v-.7h2.1c2.1 0 3.9-.6 5.4-1.8 1.6-1.2 2.6-3.2 3.2-6 .2-1 .3-1.7.3-2.3 0-3.7-.8-6.4-2.3-8.1s-3.4-2.5-5.8-2.6c-.4-.1-1.1-.1-2-.1z"/><path d="m1098 588.6h-1c-1.4 0-2.7.4-3.9 1.2s-2.2 1.7-2.9 2.8l-13.5 21.5v16.8c0 1.2.4 2.2 1.3 3s1.9 1.3 3.1 1.3h.8l.1.7h-20.8v-.7h.9c1.2 0 2.2-.4 3-1.2s1.3-1.8 1.3-3v-17l-13.1-21.5c-.7-1.1-1.7-2-2.9-2.8s-2.5-1.1-3.9-1.1h-1v-.7h22.6v.7h-.9c-1 0-1.8.5-2.3 1.4-.3.5-.4 1-.4 1.5s.1.9.3 1.4l9.8 17.8 10.2-17.8c.2-.5.3-.9.3-1.4s-.2-.9-.5-1.4c-.5-1-1.3-1.4-2.3-1.4h-.8v-.7h16.3v.6z"/></g><path d="m676.2 535.6-432.8 6.8 432.8 6.7 432.8-6.7z" fill="url(#a)"/></svg>