<svg height="497.9" viewBox="0 0 866.2 497.9" width="866.2" xmlns="http://www.w3.org/2000/svg"><g transform="translate(-242.8 -139.4)"><g fill="#fff"><path d="m271.7 152.6-28.9-13.2h104.6l-28.9 13.2v75.4h-46.8zm46.8 334.1 28.9 13.2h-104.6l28.9-13.2v-235.3h46.8v60h122.6l9.6 16.6h-132.2zm189.7 0 28.9 13.2h-104.6l28.9-13.2v-334.1l-28.9-13.2h104.6l-28.9 13.2z"/><path d="m826.7 228.2v13.2c0 46.9-38.6 84.9-86.1 84.9h-80.1a87.657 87.657 0 0 1 -10.3-.6v161.1l28.9 13.2h-104.5l28.9-13.2v-235.4h46.5l.3 49.8a69.893 69.893 0 0 0 9.2.7h60c35.6 0 64.5-28 64.5-62.7v-9.7c0-34.6-28.9-62.6-64.5-62.6l-70-.1.4 61.2h-46.3v-75.4l-28.9-13.2h166c47.4.1 86 41.9 86 88.8z"/><path d="m893.1 152.6-28.9-13.2h104.6l-28.9 13.2v239.8h-46.8zm211 304.5v42.8h-239.9l28.9-13.2v-70.9h46.8v60.6h151z"/></g><g fill="#a67c52"><path d="m264 590.9h-3.1v39.9a4.157 4.157 0 0 0 1.3 3 4.335 4.335 0 0 0 3 1.3h.9v.7h-20.8v-.7h.9a4.311 4.311 0 0 0 3.8-2.1 3.7 3.7 0 0 0 .6-2.1v-38a4.157 4.157 0 0 0 -1.3-3 4.335 4.335 0 0 0 -3-1.3h-.9v-.7h23.5a20.717 20.717 0 0 1 11.2 2.9 10.976 10.976 0 0 1 3.7 4 14.2 14.2 0 0 1 1.4 6.7 13.343 13.343 0 0 1 -2.9 8c-1.9 2.6-4.7 4-8.3 4.4a14.053 14.053 0 0 1 7 6c4.9 7.9 8.6 12.6 10.9 14.1a9.866 9.866 0 0 0 4.4 1.2v.7h-6.7a25.646 25.646 0 0 1 -9.9-1.6 12.239 12.239 0 0 1 -6.2-5.5q-1.35-2.25-5.7-11.7c-1.3-2.8-2.8-4.3-4.7-4.6v-.7h2.1a8.376 8.376 0 0 0 5.4-1.8c1.6-1.2 2.6-3.2 3.2-6a12.033 12.033 0 0 0 .3-2.3c0-3.7-.8-6.4-2.3-8.1a7.706 7.706 0 0 0 -5.8-2.6 10.367 10.367 0 0 0 -2-.1z"/><path d="m316.5 635.1a3.8 3.8 0 0 0 3-1.3 4.336 4.336 0 0 0 1.3-3v-38.1a3.683 3.683 0 0 0 -1-2.6 4.98 4.98 0 0 0 -3.4-1.5h-.9v-.7h26.2a27.162 27.162 0 0 0 5.5-.5c1.5-.3 2.3-.6 2.7-.7v12l-.7-.1v-.8a6.509 6.509 0 0 0 -3.1-6 7.994 7.994 0 0 0 -3.6-1h-11.5v19.9h9a5.728 5.728 0 0 0 4.2-1.7 5.577 5.577 0 0 0 1.6-4.1v-.6h.7v15.8h-.7v-.5a5.652 5.652 0 0 0 -1.6-4.2 5.5 5.5 0 0 0 -4.1-1.7h-9.2v19.2h9a12.792 12.792 0 0 0 8.4-2.9 16.522 16.522 0 0 0 5-8.1h.7l-3.1 13.9h-35.4v-.7z"/><path d="m394.1 590.9v19.9h9a5.728 5.728 0 0 0 4.2-1.7 5.652 5.652 0 0 0 1.6-4.2v-.6h.7v15.8h-.6v-.5a5.652 5.652 0 0 0 -1.6-4.2 5.5 5.5 0 0 0 -4.1-1.7h-9.2v17.2a3.8 3.8 0 0 0 1.3 3 4.572 4.572 0 0 0 3.1 1.3h.8l.1.7h-20.8v-.7h.9a3.8 3.8 0 0 0 3-1.3 4.336 4.336 0 0 0 1.3-3v-38.1a3.906 3.906 0 0 0 -2.3-3.6 3.644 3.644 0 0 0 -2.1-.5h-.9v-.7h26.2a27.1 27.1 0 0 0 4.7-.4 20.124 20.124 0 0 0 3.6-.8v11.6h-.7v-.7a6.194 6.194 0 0 0 -6.5-6.7h-11.7z"/><path d="m440.4 635.1a3.8 3.8 0 0 0 3-1.3 4.336 4.336 0 0 0 1.3-3v-38a4.157 4.157 0 0 0 -1.3-3 4.234 4.234 0 0 0 -3-1.2h-.9v-.7h20.8l-.1.7h-.8a4.471 4.471 0 0 0 -3.1 1.2 3.8 3.8 0 0 0 -1.3 3v38a3.8 3.8 0 0 0 1.3 3 4.572 4.572 0 0 0 3.1 1.3h.8l.1.7h-20.8v-.7z"/><path d="m539 588.6a3.893 3.893 0 0 0 -3.6 2.1 3.7 3.7 0 0 0 -.6 2.1v35.2a41.458 41.458 0 0 0 .6 7.7l.2 1h-.6l-34.5-32.9v27.2a4.1 4.1 0 0 0 4.1 4.1h1.3v.7h-20.7v-.7h1.2a4.1 4.1 0 0 0 4.2-4.2v-35.5a39.165 39.165 0 0 0 -.6-7.5l-.1-1h.6l34.5 32.9v-27a4.157 4.157 0 0 0 -1.3-3 4 4 0 0 0 -2.9-1.2h-1.2v-.7h20.7v.7z"/><path d="m565.2 635.1a3.8 3.8 0 0 0 3-1.3 4.336 4.336 0 0 0 1.3-3v-38.1a3.683 3.683 0 0 0 -1-2.6 4.98 4.98 0 0 0 -3.4-1.5h-.9v-.7h26.2a27.162 27.162 0 0 0 5.5-.5c1.5-.3 2.3-.6 2.7-.7v12l-.7-.1v-.8a6.509 6.509 0 0 0 -3.1-6 7.994 7.994 0 0 0 -3.6-1h-11.5v19.9h9a5.728 5.728 0 0 0 4.2-1.7 5.577 5.577 0 0 0 1.6-4.1v-.6h.7v15.8h-.7v-.5a5.652 5.652 0 0 0 -1.6-4.2 5.5 5.5 0 0 0 -4.1-1.7h-9.2v19.2h9a12.792 12.792 0 0 0 8.4-2.9 16.522 16.522 0 0 0 5-8.1h.7l-3.1 13.9h-35.4v-.7z"/><path d="m671.3 594.4c4.7 4.3 7 10.1 7 17.5s-2.3 13.2-7 17.5-11.1 6.4-19.1 6.4h-24.8v-.7h.9a3.8 3.8 0 0 0 3-1.3 4.336 4.336 0 0 0 1.3-3v-38.3a3.545 3.545 0 0 0 -1.3-2.8 4.3 4.3 0 0 0 -3-1.1h-.9v-.7h24.8c8 0 14.4 2.2 19.1 6.5zm-20.1 38.5a14.222 14.222 0 0 0 8.5-2.5 15.939 15.939 0 0 0 5.5-7.3 27.111 27.111 0 0 0 1.9-10.4 37.018 37.018 0 0 0 -1.1-9.5 21.924 21.924 0 0 0 -3.2-6.7 13.652 13.652 0 0 0 -11.6-5.7h-8.4v42.1z"/><path d="m742.3 635.1a3.8 3.8 0 0 0 3-1.3 4.336 4.336 0 0 0 1.3-3v-37.9a4.157 4.157 0 0 0 -1.3-3 4.336 4.336 0 0 0 -3-1.3h-.9v-.7h20.8l-.1.7h-.8a4.158 4.158 0 0 0 -3.1 1.3 3.946 3.946 0 0 0 -1.3 3v39.9h9a12.792 12.792 0 0 0 8.4-2.9 16.522 16.522 0 0 0 5-8.1h.7l-3.1 13.9h-35.4v-.7h.8z"/><path d="m804.1 635.1a3.8 3.8 0 0 0 3-1.3 4.336 4.336 0 0 0 1.3-3v-38a4.157 4.157 0 0 0 -1.3-3 4.234 4.234 0 0 0 -3-1.2h-.9v-.7h20.8l-.1.7h-.8a4.471 4.471 0 0 0 -3.1 1.2 3.8 3.8 0 0 0 -1.3 3v38a3.8 3.8 0 0 0 1.3 3 4.572 4.572 0 0 0 3.1 1.3h.8l.1.7h-20.8v-.7z"/><path d="m884.1 587.9h14.6v.7h-.6a5.2 5.2 0 0 0 -3.1 1 6.737 6.737 0 0 0 -2.6 2.9l-16.2 35.8c-2.1 4.5-3.2 7.5-3.4 9h-.6l-20.7-44.7a7.364 7.364 0 0 0 -2.6-2.9 5.721 5.721 0 0 0 -3.2-1h-.5v-.7h21.7v.7h-.5a2.656 2.656 0 0 0 -2.2.9 2.7 2.7 0 0 0 -.7 1.7 4.529 4.529 0 0 0 .3 1.6l11.6 28.2 12-28.2a5.546 5.546 0 0 0 .3-1.7 2.7 2.7 0 0 0 -.7-1.7 2.656 2.656 0 0 0 -2.2-.9h-.6v-.7z"/><path d="m920.6 635.1a3.8 3.8 0 0 0 3-1.3 4.336 4.336 0 0 0 1.3-3v-38.1a3.683 3.683 0 0 0 -1-2.6 4.98 4.98 0 0 0 -3.4-1.5h-.9v-.7h26.2a27.162 27.162 0 0 0 5.5-.5c1.5-.3 2.3-.6 2.7-.7v12l-.7-.1v-.8a6.509 6.509 0 0 0 -3.1-6 7.994 7.994 0 0 0 -3.6-1h-11.5v19.9h9a5.728 5.728 0 0 0 4.2-1.7 5.577 5.577 0 0 0 1.6-4.1v-.6h.7v15.8h-.7v-.5a5.652 5.652 0 0 0 -1.6-4.2 5.5 5.5 0 0 0 -4.1-1.7h-9.2v19.2h9a12.792 12.792 0 0 0 8.4-2.9 16.522 16.522 0 0 0 5-8.1h.7l-3.1 13.9h-35.4v-.7z"/><path d="m1001.6 590.9h-3.1v39.9a4.157 4.157 0 0 0 1.3 3 4.336 4.336 0 0 0 3 1.3h.9v.7h-20.8v-.7h.9a4.311 4.311 0 0 0 3.8-2.1 3.7 3.7 0 0 0 .6-2.1v-38a4.157 4.157 0 0 0 -1.3-3 4.336 4.336 0 0 0 -3-1.3h-.9v-.7h23.5a20.717 20.717 0 0 1 11.2 2.9 10.976 10.976 0 0 1 3.7 4 14.2 14.2 0 0 1 1.4 6.7 13.343 13.343 0 0 1 -2.9 8c-1.9 2.6-4.7 4-8.3 4.4a14.053 14.053 0 0 1 7 6c4.9 7.9 8.6 12.6 10.9 14.1a9.866 9.866 0 0 0 4.4 1.2v.7h-6.7a25.646 25.646 0 0 1 -9.9-1.6 12.239 12.239 0 0 1 -6.2-5.5q-1.35-2.25-5.7-11.7c-1.3-2.8-2.8-4.3-4.7-4.6v-.7h2.1a8.376 8.376 0 0 0 5.4-1.8c1.6-1.2 2.6-3.2 3.2-6a12.033 12.033 0 0 0 .3-2.3c0-3.7-.8-6.4-2.3-8.1a7.706 7.706 0 0 0 -5.8-2.6 10.367 10.367 0 0 0 -2-.1z"/><path d="m1098 588.6h-1a6.894 6.894 0 0 0 -3.9 1.2 9.717 9.717 0 0 0 -2.9 2.8l-13.5 21.5v16.8a3.8 3.8 0 0 0 1.3 3 4.572 4.572 0 0 0 3.1 1.3h.8l.1.7h-20.8v-.7h.9a4.071 4.071 0 0 0 3-1.2 4.157 4.157 0 0 0 1.3-3v-17l-13.1-21.5a9.716 9.716 0 0 0 -2.9-2.8 6.8 6.8 0 0 0 -3.9-1.1h-1v-.7h22.6v.7h-.9a2.542 2.542 0 0 0 -2.3 1.4 2.822 2.822 0 0 0 -.4 1.5 3.528 3.528 0 0 0 .3 1.4l9.8 17.8 10.2-17.8a3.53 3.53 0 0 0 .3-1.4 2.654 2.654 0 0 0 -.5-1.4 2.377 2.377 0 0 0 -2.3-1.4h-.8v-.7h16.3v.6z"/></g><path d="m676.2 535.6-432.8 6.8 432.8 6.7 432.8-6.7z" fill="#fff"/></g></svg>