<svg  viewBox="0 0 219 219"  xmlns="http://www.w3.org/2000/svg"><g fill="#c8c8c8"><path d="m467 271h6.416v6.416h-6.416z" transform="translate(-267.248 -155.084)"/><path d="m324.355 58.313a96.035 96.035 0 0 0 -68.355-28.313v6.416a90.354 90.354 0 0 1 90.252 90.252h6.416a96.035 96.035 0 0 0 -28.313-68.355z" transform="translate(-146.5 -17.168)"/><path d="m32.08 145.491v-1.655a77.42 77.42 0 1 1 134.3 52.519l4.713 4.354a83.834 83.834 0 1 0 -145.413-58.54l-9.64 6.856-9.611-6.835a102.658 102.658 0 0 1 28.016-69.009l-4.67-4.4a109.067 109.067 0 0 0 -29.775 75.055v1.655l16.04 11.409z" transform="translate(0 -34.336)"/><path d="m233.014 32.072a109.49 109.49 0 0 0 -152.481-2.3l4.4 4.671a103.082 103.082 0 1 1 77.01 177.944l6.707-9.43-7-9.841a83.534 83.534 0 0 0 50.81-22.03l-4.354-4.713a77.173 77.173 0 0 1 -52.519 20.545h-6.218l11.407 16.04-11.408 16.042h6.218a109.5 109.5 0 0 0 77.428-186.928z" transform="translate(-46.086)"/><path d="m187.746 351.521h-6.115v-9.775h-6.416v25.965h6.416v-9.774h6.115v9.774h6.416v-25.965h-6.416z" transform="translate(-100.27 -195.569)"/><path d="m7.5 348.162h23.037v13.133h-23.037v25.965h29.453v-6.416h-23.037v-13.133h23.037v-25.965h-29.453z" transform="translate(-4.292 -195.569)"/><path d="m114.394 361.295h-16.621v-19.549h-6.416v25.965h23.037v19.548h6.416v-45.513h-6.416z" transform="translate(-52.28 -195.569)"/><path d="m231.855 202.9a12.751 12.751 0 0 0 -1.782-6.513l28.636-28.636-4.537-4.537-28.637 28.636a12.792 12.792 0 0 0 -13.025 0l-16.589-16.589-4.537 4.537 16.589 16.589a12.83 12.83 0 1 0 23.882 6.513zm-19.248 0a6.416 6.416 0 1 1 6.416 6.416 6.423 6.423 0 0 1 -6.417-6.416z" transform="translate(-109.522 -93.403)"/><path d="m407 248.5h6.416v6.416h-6.416z" transform="translate(-232.912 -142.208)"/><path d="m0 0h6.416v6.416h-6.416z" transform="matrix(.70710678 -.70710678 .70710678 .70710678 152.877 61.564)"/><path d="m0 0h6.416v6.416h-6.416z" transform="matrix(.70710678 -.70710678 .70710678 .70710678 57.012 61.561)"/><path d="m90 248.5h6.416v6.416h-6.416z" transform="translate(-51.504 -142.208)"/><path d="m248.5 407h6.416v6.416h-6.416z" transform="translate(-142.208 -232.912)"/><path d="m0 0h6.416v6.416h-6.416z" transform="matrix(.70710678 -.70710678 .70710678 .70710678 152.87 157.449)"/><path d="m248.5 90h6.416v6.416h-6.416z" transform="translate(-142.208 -51.504)"/></g></svg>
