<svg height="87.134" viewBox="0 0 87.139 87.134" width="87.139" xmlns="http://www.w3.org/2000/svg"><g fill="#c0c0c0"><path d="m149.977 54.736 2.493-2.492a4.026 4.026 0 0 0 -5.081-6.2l-.525-1.763 2.7-2.7a4.023 4.023 0 0 0 -5.3-6.033l-3.2-10.736c1.277-1.23 2.5-2.427 3.653-3.579a42.54 42.54 0 0 0 7.606-9.9c2.675-5.178 1.555-7.945.145-9.355s-4.177-2.529-9.355.146a42.5 42.5 0 0 0 -9.9 7.606c-1.153 1.153-2.35 2.375-3.579 3.653l-10.736-3.2a4.023 4.023 0 0 0 -6.032-5.3l-2.7 2.7-1.766-.523a4.026 4.026 0 0 0 -6.2-5.081l-2.486 2.493-12.704-3.784a1.285 1.285 0 0 0 -1.275.323l-3.27 3.27a1.3 1.3 0 0 0 .15 1.945l32.054 23.462c-7.229 8.148-14.191 16.312-19.106 22.136l-9.428-3.624a1.285 1.285 0 0 0 -1.37.291l-3.876 3.876a1.285 1.285 0 0 0 0 1.816l19.379 19.379a1.3 1.3 0 0 0 1.817 0l3.875-3.875a1.284 1.284 0 0 0 .291-1.37l-3.626-9.428c5.829-4.915 13.987-11.877 22.136-19.1l2.546 3.48a1.285 1.285 0 0 0 2.074-1.517l-2.692-3.678c4.262-3.8 8.47-7.641 12.288-11.257l12.1 40.63-1.669 1.669-16.631-22.734a1.285 1.285 0 1 0 -2.077 1.518l17.52 23.936a1.3 1.3 0 0 0 1.945.15l3.27-3.27a1.285 1.285 0 0 0 .323-1.275zm-35.295-48.036a1.456 1.456 0 0 1 2.059 2.059l-.6.6-3.173-.945zm-10.659-2.9a1.456 1.456 0 0 1 2.059 2.059l-.4.4-3.173-.945zm-18.683 1.238 1.67-1.669 40.63 12.1c-3.616 3.819-7.453 8.027-11.257 12.289zm.652 45.862 7.822 3c-1.962 2.336-3.466 4.144-4.354 5.214l-5.845-5.845zm5.293 10.047c4.478-5.4 28.149-33.8 43.745-49.395a40.5 40.5 0 0 1 9.264-7.14c2.1-1.084 4.9-2.069 6.36-.612s.471 4.263-.612 6.36a40.516 40.516 0 0 1 -7.14 9.264c-15.595 15.59-43.992 39.262-49.395 43.741zm12.269 7.515-2.377 2.377-5.845-5.845c1.069-.887 2.877-2.391 5.214-4.353zm45.04-20.09a1.456 1.456 0 1 1 2.059 2.059l-1.51 1.51-.945-3.173zm-2.907-10.658a1.456 1.456 0 0 1 2.059 2.059l-1.717 1.717-.945-3.173zm0 0" transform="translate(-66.81 -.5)"/><path d="m397.821 433.37-10.962 10.962a1.285 1.285 0 1 0 1.817 1.817l10.962-10.962a1.285 1.285 0 0 0 -1.817-1.817zm0 0" transform="translate(-320.709 -359.386)"/><path d="m387.476 402.981a1.284 1.284 0 0 0 -1.816-1.816l-6.852 6.851a1.285 1.285 0 1 0 1.817 1.817zm0 0" transform="translate(-314.029 -332.662)"/><path d="m373.343 362.724a1.285 1.285 0 0 0 -1.817-1.817l-4.8 4.8a1.285 1.285 0 0 0 1.817 1.817zm0 0" transform="translate(-304.006 -299.256)"/><path d="m13.155 50.933a1.286 1.286 0 0 0 -1.817 0l-10.963 10.967a1.284 1.284 0 0 0 0 1.816 1.3 1.3 0 0 0 1.817 0l10.963-10.966a1.286 1.286 0 0 0 0-1.817zm0 0" transform="translate(.001 -42.038)"/><path d="m65.424 83.137a1.284 1.284 0 0 0 -1.816 0l-6.852 6.852a1.284 1.284 0 1 0 1.816 1.816l6.852-6.851a1.284 1.284 0 0 0 0-1.817zm0 0" transform="translate(-46.788 -68.761)"/><path d="m109.069 113.9a1.3 1.3 0 0 0 1.817 0l4.8-4.8a1.285 1.285 0 0 0 -1.817-1.817l-4.8 4.8a1.286 1.286 0 0 0 0 1.817zm0 0" transform="translate(-90.194 -88.805)"/></g></svg>