<svg height="81.467" viewBox="0 0 95.844 95.844" width="81.467" xmlns="http://www.w3.org/2000/svg"><g fill="#c0c0c0"><path d="m36.638 264a4.638 4.638 0 1 0 4.638 4.638 4.643 4.643 0 0 0 -4.638-4.638zm0 6.183a1.546 1.546 0 1 1 1.546-1.546 1.546 1.546 0 0 1 -1.546 1.547z" transform="translate(-25.816 -212.986)"/><path d="m95.84 55.381a10.713 10.713 0 0 0 -18.2-7.494c-.02.02-.037.042-.057.062.6-8.691 2.053-12.5 3.373-15.939a31.9 31.9 0 0 0 2.52-13.46c0-8.453-6.674-13.913-17-13.913a13.072 13.072 0 0 1 -6.84-1.86 22.313 22.313 0 0 0 -11.714-2.777 22.313 22.313 0 0 0 -11.71 2.778 13.072 13.072 0 0 1 -6.84 1.86c-10.331 0-17 5.46-17 13.913a31.886 31.886 0 0 0 2.518 13.456c1.32 3.436 2.772 7.249 3.373 15.939-.02-.02-.037-.042-.057-.062a10.59 10.59 0 0 0 -7.655-3.053 10.808 10.808 0 0 0 -10.551 10.548 10.528 10.528 0 0 0 3.053 7.655 11.448 11.448 0 0 0 6.168 3.246 11.072 11.072 0 0 1 -.637 2.792 14.133 14.133 0 0 0 -.855 5.128c0 3.6 1.244 6.207 6.183 7.961v4.406a4.638 4.638 0 1 0 0 9.275h1.546a7.738 7.738 0 0 0 7.729-7.729v-4.072a231.262 231.262 0 0 0 24.734.982 231.263 231.263 0 0 0 24.734-.982v4.073a7.738 7.738 0 0 0 7.729 7.729h1.546a4.638 4.638 0 1 0 0-9.275v-4.405c4.937-1.755 6.183-4.364 6.183-7.961a14.14 14.14 0 0 0 -.853-5.126 11 11 0 0 1 -.637-2.792 11.459 11.459 0 0 0 6.163-3.246 10.534 10.534 0 0 0 3.054-7.657zm-78.064-24.481a28.92 28.92 0 0 1 -2.318-12.35c0-6.673 5.33-10.821 13.913-10.821a16.169 16.169 0 0 0 8.238-2.2 19.45 19.45 0 0 1 10.313-2.437 19.45 19.45 0 0 1 10.312 2.442 16.169 16.169 0 0 0 8.238 2.2c8.583 0 13.913 4.148 13.913 10.821a28.92 28.92 0 0 1 -2.318 12.345c-1.577 4.109-3.338 8.7-3.767 20.528a31.511 31.511 0 0 0 -3.031-1.362c.544-11.473 2.4-16.351 3.911-20.276a25.71 25.71 0 0 0 2.113-11.24c0-4.913-3.945-7.729-10.821-7.729a19 19 0 0 1 -9.64-2.532 16.445 16.445 0 0 0 -8.91-2.105 16.444 16.444 0 0 0 -8.915 2.109 19 19 0 0 1 -9.635 2.529c-6.876 0-10.821 2.817-10.821 7.729a25.749 25.749 0 0 0 2.113 11.243c1.506 3.926 3.367 8.8 3.909 20.272a30.93 30.93 0 0 0 -3.031 1.362c-.429-11.828-2.19-16.42-3.766-20.528zm50.449 18.116a69.721 69.721 0 0 0 -20.3-2.64 69.721 69.721 0 0 0 -20.3 2.64c-.625-11.326-2.525-16.299-4.076-20.332a22.71 22.71 0 0 1 -1.907-10.134c0-3.832 4.2-4.638 7.729-4.638a22.214 22.214 0 0 0 11.039-2.865 13.538 13.538 0 0 1 7.511-1.772 13.552 13.552 0 0 1 7.516 1.773 22.2 22.2 0 0 0 11.034 2.864c3.526 0 7.729.805 7.729 4.638a22.733 22.733 0 0 1 -1.9 10.134c-1.552 4.028-3.455 9.001-4.075 20.332zm-48.125 39.098a4.643 4.643 0 0 1 -4.638 4.638h-1.549a1.546 1.546 0 1 1 0-3.092 3.1 3.1 0 0 0 3.087-3.092v-3.529c.938.213 1.965.41 3.092.587zm63.38 3.092a1.546 1.546 0 0 1 -1.546 1.546h-1.549a4.643 4.643 0 0 1 -4.638-4.638v-4.489c1.127-.178 2.152-.374 3.092-.587v3.531a3.1 3.1 0 0 0 3.092 3.092 1.546 1.546 0 0 1 1.545 1.545zm7.1-30.33a8.363 8.363 0 0 1 -5.952 2.5h-4.24v3.092h3.157a13.986 13.986 0 0 0 .788 3.58 11.11 11.11 0 0 1 .693 4.149c0 4.379-2.733 7.729-37.1 7.729s-37.1-3.35-37.1-7.729a11.11 11.11 0 0 1 .693-4.149 14 14 0 0 0 .788-3.58h3.157v-3.088h-4.24a8.366 8.366 0 0 1 -5.952-2.5 7.457 7.457 0 0 1 -2.172-5.42 7.712 7.712 0 0 1 7.531-7.531 7.391 7.391 0 0 1 5.42 2.172 8.357 8.357 0 0 1 2.5 5.854c0 .417.009.813.009 1.246v2.764a28.979 28.979 0 0 1 -1.49 9.186l-1.521 4.565 2.931.979 1.521-4.565c.232-.7.427-1.4.611-2.107h47.406v-3.097h-46.769a32.069 32.069 0 0 0 .393-4.965v-3.913c0-.073-.009-.144-.011-.215 0-.3 0-.6-.008-.894 2.048-1.286 9.975-5.472 26.3-5.472s24.248 4.186 26.3 5.471c0 .291 0 .6-.008.894 0 .073-.011.144-.011.216v3.913a32.069 32.069 0 0 0 .393 4.965h-3.487v3.092h4.132c.184.706.379 1.411.611 2.107l1.521 4.565 2.931-.979-1.521-4.565a28.978 28.978 0 0 1 -1.49-9.186v-2.76c0-.433.006-.829.009-1.246a8.357 8.357 0 0 1 2.497-5.854 7.553 7.553 0 0 1 5.42-2.172 7.712 7.712 0 0 1 7.531 7.531 7.463 7.463 0 0 1 -2.174 5.417z"/><path d="m420.638 264a4.638 4.638 0 1 0 4.638 4.638 4.643 4.643 0 0 0 -4.638-4.638zm0 6.183a1.546 1.546 0 1 1 1.546-1.546 1.546 1.546 0 0 1 -1.546 1.547z" transform="translate(-335.615 -212.986)"/><path d="m27 19h3v3h-3z"/><path d="m36 19h3v3h-3z"/><path d="m46 19h4v3h-4z"/><path d="m56 19h3v3h-3z"/><path d="m65 19h4v3h-4z"/><path d="m27 75h3v3h-3z"/><path d="m36 75h3v3h-3z"/><path d="m46 75h4v3h-4z"/><path d="m56 75h3v3h-3z"/><path d="m65 75h4v3h-4z"/><path d="m32 27h3v3h-3z"/><path d="m42 27h3v3h-3z"/><path d="m51 27h3v3h-3z"/><path d="m60 27h3v3h-3z"/><path d="m27 36h3v3h-3z"/><path d="m36 36h3v3h-3z"/><path d="m46 36h4v3h-4z"/><path d="m56 36h3v3h-3z"/><path d="m65 36h4v3h-4z"/></g></svg>