<svg height="72" viewBox="0 0 84.442 65.512" width="72" xmlns="http://www.w3.org/2000/svg"><g fill="#c0c0c0" transform="translate(0 -57.389)"><circle cx="42.22" cy="121.251" r="1.649"/><path d="m81.143 70.583h-13.353v-9.9a3.3 3.3 0 0 0 -3.3-3.3h-44.541a3.3 3.3 0 0 0 -3.3 3.3v9.9h-13.349a3.3 3.3 0 0 0 -3.3 3.3c0 1.648.008 3.117.013 4.517.012 3.4.022 6.334-.013 10.31a1.649 1.649 0 0 0 1.25 1.615l.4.1v29.175a3.3 3.3 0 0 0 3.3 3.3h29.85a1.649 1.649 0 1 0 0-3.3h-17.625l-12.228-12.226v-16.128l29.439 7.326v3.961a2.477 2.477 0 0 0 2.474 2.474h10.72a2.477 2.477 0 0 0 2.474-2.474v-3.961l29.439-7.327v16.129l-12.228 12.226h-17.623a1.649 1.649 0 0 0 0 3.3h29.852a3.3 3.3 0 0 0 3.3-3.3v-29.175l.4-.1a1.649 1.649 0 0 0 1.251-1.6v-14.843a3.3 3.3 0 0 0 -3.3-3.3zm-68.633 49.017h-7.563v-7.563zm59.42 0 7.563-7.563v7.563zm-51.981-58.912h44.542v9.9h-3.3v-4.953a1.649 1.649 0 0 0 -1.649-1.649h-34.642a1.649 1.649 0 0 0 -1.649 1.649v4.948h-3.3zm37.945 9.9h-31.348v-3.3h31.348zm-11.138 31.12h-9.071v-5.772h9.071zm.825-9.071h-10.721a2.477 2.477 0 0 0 -2.474 2.474v.062l-31.078-7.734c.023-3.358.014-6.019 0-9.047 0-1.4-.01-2.867-.012-4.51h77.847v13.554l-31.089 7.737v-.062a2.477 2.477 0 0 0 -2.473-2.474z"/></g></svg>