<svg height="93.5" viewBox="0 0 110 110" width="93.5" xmlns="http://www.w3.org/2000/svg"><g fill="#c8c8c8"><path d="m104.844 76.342v-61.2a6.56 6.56 0 0 0 -6.553-6.553h-15.576v-2.144a6.445 6.445 0 0 0 -12.891 0v2.149h-34.804v-2.149a6.445 6.445 0 0 0 -12.891 0v2.149h-15.576a6.56 6.56 0 0 0 -6.553 6.552v79.708a6.56 6.56 0 0 0 6.553 6.553h29.283a2.148 2.148 0 1 0 0-4.3h-29.283a2.258 2.258 0 0 1 -2.253-2.253v-79.708a2.258 2.258 0 0 1 2.256-2.256h15.573v2.148a6.445 6.445 0 0 0 12.891 0v-2.147h34.8v2.148a6.445 6.445 0 0 0 12.891 0v-2.148h15.58a2.258 2.258 0 0 1 2.256 2.256v10.634h-81.211a2.148 2.148 0 1 0 0 4.3h81.211v42.63a20.084 20.084 0 0 0 -6.016-2.542v-31.927a2.149 2.149 0 0 0 -2.148-2.148h-79.922a2.149 2.149 0 0 0 -2.148 2.148v50.7a2.149 2.149 0 0 0 2.148 2.148h57.191a20.044 20.044 0 0 0 1.325 6.016h-17.954a2.148 2.148 0 1 0 0 4.3h20.26a20.187 20.187 0 1 0 31.56-25.065zm-74.121-61.3a2.148 2.148 0 0 1 -4.3 0v-8.597a2.148 2.148 0 1 1 4.3 0zm47.7 0a2.148 2.148 0 0 1 -4.3 0v-8.597a2.148 2.148 0 1 1 4.3 0zm11.377 54.567a20.28 20.28 0 0 0 -2.941.215h-8.312v-12.461h11.687v12.252c-.143-.003-.286-.006-.434-.006zm-19.967 17.191h-7.271v-12.679h11.688v2.817a20.119 20.119 0 0 0 -4.417 9.862zm-55.224-29.437h11.691v12.461h-11.691zm15.984 0h11.688v12.461h-11.687zm31.969 0h11.688v12.461h-11.688zm-4.3 12.461h-11.684v-12.461h11.688zm4.3-16.758v-12.675h11.688v12.675zm-4.3 0h-11.684v-12.675h11.688zm-15.984 0h-11.684v-12.675h11.687zm0 21.055v12.679h-11.684v-12.679zm4.3 0h11.688v12.679h-11.688zm43.656-21.055h-11.687v-12.675h11.687zm-63.934-12.675v12.675h-11.691v-12.675zm-11.691 33.73h11.691v12.679h-11.691zm75.191 31.579a15.9 15.9 0 1 1 15.9-15.9 15.916 15.916 0 0 1 -15.9 15.9z"/><path d="m398.436 391.462-6.645 6.645-2.957-2.957a2.149 2.149 0 0 0 -3.039 3.038l4.476 4.476a2.148 2.148 0 0 0 3.038 0l8.164-8.164a2.148 2.148 0 1 0 -3.038-3.038z" transform="translate(-302.416 -306.865)"/><path d="m198.948 452a2.149 2.149 0 1 0 1.519.629 2.165 2.165 0 0 0 -1.519-.629z" transform="translate(-154.519 -354.891)"/><path d="m43.667 123.667a2.147 2.147 0 1 0 -1.519.629 2.164 2.164 0 0 0 1.519-.629z" transform="translate(-31.406 -94.219)"/></g></svg>