<svg enable-background="new 0 0 110 110" viewBox="0 0 110 110" xmlns="http://www.w3.org/2000/svg"><g fill="#c8c8c8"><path d="m104.8 76.3v-61.2c0-3.6-2.9-6.5-6.6-6.6h-15.5v-2.1c0-3.6-2.9-6.4-6.4-6.4-3.6 0-6.4 2.9-6.4 6.4v2.1h-34.9v-2.1c0-3.5-2.9-6.4-6.4-6.4s-6.4 2.9-6.4 6.4v2.1h-15.6c-3.7.1-6.6 3-6.6 6.6v79.7c0 3.6 2.9 6.5 6.6 6.6h29.3c1.2 0 2.2-1 2.2-2.2s-1-2.2-2.2-2.2h-29.3c-1.2 0-2.3-1-2.3-2.3v-79.6c0-1.2 1-2.3 2.3-2.3h15.6v2.2c0 3.6 2.9 6.4 6.4 6.4 3.6 0 6.4-2.9 6.4-6.4v-2.1h34.8v2.1c0 3.6 2.9 6.4 6.4 6.4 3.6 0 6.4-2.9 6.4-6.4v-2.1h15.6c1.2 0 2.3 1 2.3 2.3v10.6h-81.2c-1.2 0-2.2 1-2.2 2.1 0 1.2 1 2.2 2.2 2.2h81.2v42.6c-1.9-1.2-3.9-2-6-2.5v-32c0-1.2-1-2.1-2.1-2.1h-79.9c-1.2 0-2.1 1-2.1 2.1v50.7c0 1.2 1 2.1 2.1 2.1h57.2c.1 2.1.6 4.1 1.3 6h-18c-1.2 0-2.2 1-2.2 2.2s1 2.2 2.2 2.2h20.3c6.4 9.1 19 11.3 28.1 4.9s11.3-19 4.9-28.1c-.4-.6-.9-1.3-1.5-1.9zm-74.1-61.3c0 1.2-1 2.1-2.1 2.1s-2.1-1-2.1-2.1v-8.6c0-1.2 1-2.1 2.1-2.1s2.1 1 2.1 2.1zm47.7 0c0 1.2-1 2.2-2.2 2.2s-2.2-1-2.2-2.2v-8.6c0-1.2 1-2.2 2.2-2.2s2.2 1 2.2 2.2zm11.4 54.6c-1 0-2 .1-2.9.2h-8.3v-12.4h11.7v12.3c-.2-.1-.4-.1-.5-.1zm-20 17.2h-7.3v-12.7h11.7v2.8c-2.3 2.9-3.8 6.3-4.4 9.9zm-55.2-29.4h11.7v12.5h-11.7zm16 0h11.7v12.5h-11.7zm32 0h11.7v12.5h-11.7zm-4.3 12.4h-11.7v-12.4h11.7zm4.3-16.7v-12.7h11.7v12.7zm-4.3 0h-11.7v-12.7h11.7zm-16 0h-11.7v-12.7h11.7zm0 21v12.7h-11.7v-12.7zm4.3 0h11.7v12.7h-11.7zm43.6-21h-11.7v-12.7h11.7zm-63.9-12.7v12.7h-11.7v-12.7zm-11.7 33.7h11.7v12.7h-11.7zm75.2 31.6c-8.8 0-15.9-7.1-15.9-15.9s7.1-15.9 15.9-15.9 15.9 7.1 15.9 15.9-7.1 15.9-15.9 15.9z"/><path d="m96 84.6-6.6 6.6-3-3c-.9-.8-2.2-.8-3 .1-.8.8-.8 2.1 0 3l4.5 4.5c.8.8 2.2.8 3 0l8.2-8.2c.8-.8.8-2.2 0-3s-2.2-.8-3.1 0z"/><path d="m44.4 97.1c-1.2 0-2.1 1-2.1 2.1 0 1.2 1 2.1 2.1 2.1 1.2 0 2.1-1 2.1-2.1 0-.6-.2-1.1-.6-1.5s-.9-.6-1.5-.6z"/><path d="m12.3 29.4c.8-.8.8-2.2 0-3s-2.2-.8-3 0-.8 2.2 0 3c.4.4.9.6 1.5.6.5.1 1.1-.2 1.5-.6z"/></g></svg>