<svg height="77.7" viewBox="0 0 111.974 91.417" width="95.17" xmlns="http://www.w3.org/2000/svg"><g fill="#d0d0d0"><path d="m265.4 262.8h29.85a1.763 1.763 0 0 0 1.866-1.866v-16.787a1.762 1.762 0 0 0 -1.866-1.866h-29.85a1.763 1.763 0 0 0 -1.866 1.866v16.791a1.763 1.763 0 0 0 1.866 1.862zm1.866-16.791h26.119v13.059h-26.12z" transform="translate(-205.699 -199.371)"/><path d="m35 211.878h14.925a1.866 1.866 0 1 0 0-3.731h-14.925a1.866 1.866 0 0 0 0 3.731z" transform="translate(-25.671 -172.7)"/><path d="m137.4 211.878h14.925a1.866 1.866 0 1 0 0-3.731h-14.925a1.866 1.866 0 1 0 0 3.731z" transform="translate(-105.684 -172.7)"/><path d="m35 246.012h24.253a1.866 1.866 0 1 0 0-3.731h-24.253a1.866 1.866 0 1 0 0 3.731z" transform="translate(-25.671 -199.371)"/><path d="m185.662 242.28h-5.6a1.866 1.866 0 0 0 0 3.731h5.6a1.866 1.866 0 0 0 0-3.731z" transform="translate(-139.021 -199.37)"/><path d="m109.26 65.79a6.951 6.951 0 0 0 -5.037-2.8l-4.478-.543v-8.97a7.484 7.484 0 0 0 -7.463-7.463h-85.819a7.484 7.484 0 0 0 -7.463 7.463v59.7a7.491 7.491 0 0 0 5.346 7.153 7.261 7.261 0 0 0 6.594 7.4l86.193 9.7h.746a7.47 7.47 0 0 0 7.463-6.343l5.6-59.887a7.252 7.252 0 0 0 -1.682-5.41zm-106.529-6.717h93.283v11.194h-93.283zm3.731-9.328h85.82a3.742 3.742 0 0 1 3.731 3.731v1.866h-93.282v-1.865a3.742 3.742 0 0 1 3.732-3.732zm-3.731 63.432v-39.177h93.283v39.179a3.742 3.742 0 0 1 -3.731 3.731h-85.82a3.742 3.742 0 0 1 -3.732-3.733zm104.476-42.723-5.6 59.887a3.763 3.763 0 0 1 -4.1 3.358l-86.007-9.699a3.772 3.772 0 0 1 -3.358-3.358h84.14a7.484 7.484 0 0 0 7.463-7.463v-47.2l4.291.373a3.189 3.189 0 0 1 2.425 1.306 3.778 3.778 0 0 1 .746 2.796z" transform="translate(1 -46.014)"/></g></svg>