<svg height="90.95" viewBox="0 0 107 107" width="90.95" xmlns="http://www.w3.org/2000/svg"><g fill="#c0c0c0"><path d="m248.09 449a2.09 2.09 0 1 0 2.09 2.09 2.091 2.091 0 0 0 -2.09-2.09z" transform="translate(-194.59 -355.166)"/><path d="m248.09 0a2.09 2.09 0 0 0 -2.09 2.09v13.793a2.09 2.09 0 1 0 4.18 0v-13.793a2.09 2.09 0 0 0 -2.09-2.09z" transform="translate(-194.59)"/><path d="m56.378 103.422-11.81-11.81a2.09 2.09 0 0 0 -2.956 2.956l11.81 11.81a2.09 2.09 0 0 0 2.956-2.956z" transform="translate(-32.431 -71.982)"/><path d="m409.88 91.553a2.091 2.091 0 0 0 -2.956 0l-11.824 11.822a2.09 2.09 0 1 0 2.956 2.956l11.824-11.822a2.09 2.09 0 0 0 0-2.956z" transform="translate(-312.048 -71.936)"/><path d="m106.587 155.2a2.089 2.089 0 0 0 -1.676-.842 13.681 13.681 0 0 0 -10.7 5.153 8.362 8.362 0 1 0 -7.16 15.094l-.385.463a13.574 13.574 0 0 1 -19.122.824l-1.035-1.035a8.36 8.36 0 0 0 -2.556-16.319h-.212a10.746 10.746 0 0 0 -.074-4.563 10.455 10.455 0 0 0 -20.4 4.563h-.211a8.36 8.36 0 0 0 -2.556 16.323l-1.04 1.039a13.574 13.574 0 0 1 -19.122-.823l-.385-.463a8.361 8.361 0 1 0 -7.161-15.094 13.681 13.681 0 0 0 -10.7-5.153 2.09 2.09 0 0 0 -2 2.69l12.986 43.286h-1.378a2.09 2.09 0 0 0 0 4.18h2.09v11.7a6.277 6.277 0 0 0 6.27 6.27h66.878a6.277 6.277 0 0 0 6.27-6.27v-11.7h2.092a2.09 2.09 0 0 0 0-4.18h-1.374l12.986-43.286a2.09 2.09 0 0 0 -.325-1.857zm-17.559 54.125h-27.168a2.09 2.09 0 0 0 0 4.18h27.168v2.717a2.092 2.092 0 0 1 -2.09 2.09h-66.875a2.092 2.092 0 0 1 -2.09-2.09v-2.722h27.168a2.09 2.09 0 0 0 0-4.18h-27.168v-4.807h71.055zm.535-8.986h-72.125l-12.399-41.329a9.5 9.5 0 0 1 5.394 4.48 2.091 2.091 0 0 0 3.32.468 4.14 4.14 0 0 1 2.965-1.235 4.18 4.18 0 1 1 -.468 8.334 2.09 2.09 0 0 0 -1.85 3.411l2.722 3.276a17.741 17.741 0 0 0 25.293 1.108l4.2-4.2a2.09 2.09 0 0 0 -1.478-3.568h-2.09a4.18 4.18 0 1 1 0-8.359h3.208a2.09 2.09 0 0 0 1.809-3.136 6.277 6.277 0 1 1 10.864 0 2.09 2.09 0 0 0 1.809 3.136h3.208a4.18 4.18 0 1 1 0 8.359h-2.085a2.09 2.09 0 0 0 -1.478 3.568l4.2 4.2a17.741 17.741 0 0 0 25.292-1.108l2.723-3.277a2.09 2.09 0 0 0 -1.85-3.411 4 4 0 0 1 -.468.026 4.18 4.18 0 1 1 0-8.359 4.14 4.14 0 0 1 2.965 1.235 2.09 2.09 0 0 0 3.32-.468 9.5 9.5 0 0 1 5.394-4.48z" transform="translate(0 -115.491)"/><path d="m224.359 306a8.359 8.359 0 1 0 8.359 8.359 8.369 8.369 0 0 0 -8.359-8.359zm0 12.539a4.18 4.18 0 1 1 4.18-4.18 4.184 4.184 0 0 1 -4.18 4.18z" transform="translate(-170.859 -242.051)"/></g></svg>