<svg height="89.292" viewBox="0 0 105.05 105.053" width="89.292" xmlns="http://www.w3.org/2000/svg"><g fill="#c0c0c0"><path d="m308.05 260a2.052 2.052 0 1 0 2.052 2.052 2.053 2.053 0 0 0 -2.052-2.052z" transform="translate(-243.214 -206.653)"/><path d="m.517 143.924.016.02 50.477 55.812a2.052 2.052 0 0 0 3.044 0l50.475-55.809.016-.02a2.05 2.05 0 0 0 .078-2.612c-.006-.007-.01-.016-.016-.023l-16.413-20.522a2.052 2.052 0 0 0 -1.6-.77h-68.122a2.052 2.052 0 0 0 -1.6.77l-16.417 20.518c-.006.007-.01.016-.016.023a2.051 2.051 0 0 0 .078 2.613zm40.866-19.824h22.3l9.849 16.415h-42zm-10.325 20.522h42.948l-21.474 48.678zm47.433 0h19.894l-38.84 42.944zm-51.919 0 18.946 42.944-38.839-42.944zm72.165-4.1h-20.422l-9.848-16.422h17.139zm-79.279-16.422h17.142l-9.849 16.415h-20.425z" transform="translate(-.007 -95.378)"/><path d="m209.058 260h-15.228a2.052 2.052 0 1 0 0 4.1h15.229a2.052 2.052 0 1 0 0-4.1z" transform="translate(-152.43 -206.653)"/><path d="m248.05 16.415a2.052 2.052 0 0 0 2.052-2.052v-12.311a2.052 2.052 0 1 0 -4.1 0v12.311a2.052 2.052 0 0 0 2.048 2.052z" transform="translate(-195.525)"/><path d="m309.5 31.709 8.207-8.207a2.052 2.052 0 1 0 -2.9-2.9l-8.207 8.205a2.052 2.052 0 0 0 2.9 2.9z" transform="translate(-243.214 -15.895)"/><path d="m154.806 31.709a2.052 2.052 0 0 0 2.9-2.9l-8.206-8.209a2.052 2.052 0 1 0 -2.9 2.9z" transform="translate(-116.043 -15.896)"/></g></svg>