<svg height="49.703" viewBox="0 0 137.299 49.703" width="137.299" xmlns="http://www.w3.org/2000/svg"><g fill="#b7b7b7" transform="translate(-431.845 -883.281)"><path d="m457.055 903.038a12 12 0 1 0 12 12 12.018 12.018 0 0 0 -12-12zm0 23.324a11.319 11.319 0 1 1 11.319-11.32 11.332 11.332 0 0 1 -11.319 11.32z" transform="translate(3.968 5.937)"/><path d="m456.522 904.813a9.7 9.7 0 0 0 -1.845.178l-.038.007a9.689 9.689 0 0 0 -5.639 15.625.358.358 0 0 0 .068.087l.009.006a9.7 9.7 0 0 0 5.69 3.328.331.331 0 0 0 .181.057h.008a.374.374 0 0 0 .078-.009 9.839 9.839 0 0 0 1.488.114 9.713 9.713 0 0 0 9.293-6.934.494.494 0 0 0 .022-.076 9.667 9.667 0 0 0 -.447-6.6.338.338 0 0 0 -.048-.147.4.4 0 0 0 -.044-.057 9.708 9.708 0 0 0 -8.776-5.579zm7.444 14.77c-.554-.532-2.065-1.962-3.441-3.1 1.685.441 3.686.793 4.524.932a8.925 8.925 0 0 1 -1.083 2.168zm-5.037-4.327a2.532 2.532 0 0 0 .113-.747 2.436 2.436 0 0 0 -.029-.352 47.526 47.526 0 0 1 6.512.008c0 .114.009.229.009.345a8.966 8.966 0 0 1 -.285 2.247 37.977 37.977 0 0 1 -6.32-1.501zm-1.537.869a.365.365 0 0 0 -.138.022.345.345 0 0 0 -.137.1 1.835 1.835 0 1 1 -.6-3.57 1.816 1.816 0 0 1 1.031.319.349.349 0 0 0 .1.142.338.338 0 0 0 .156.07 1.841 1.841 0 0 1 .443.7.19.19 0 0 0 .005.047.329.329 0 0 0 .038.1 1.832 1.832 0 0 1 .06.458 1.812 1.812 0 0 1 -.131.678.333.333 0 0 0 -.051.069.346.346 0 0 0 -.039.126 1.842 1.842 0 0 1 -.737.739zm-9.248 1.7c.784-.182 2.76-.654 4.428-1.173-1.286 1.165-2.67 2.639-3.251 3.269a9.061 9.061 0 0 1 -1.177-2.094zm-.231-.65a8.96 8.96 0 0 1 -.4-2.412 38.257 38.257 0 0 1 6.5-.522 2.571 2.571 0 0 0 -.014.267 2.494 2.494 0 0 0 .148.845 45.592 45.592 0 0 1 -6.234 1.824zm.048-5.476c.73.352 2.555 1.222 4.173 1.864-1.754.1-3.784.384-4.614.506a8.935 8.935 0 0 1 .441-2.369zm1.449-2.717a38.091 38.091 0 0 1 5.32 3.756 2.548 2.548 0 0 0 -.537.81 45.467 45.467 0 0 1 -5.994-2.5 9.049 9.049 0 0 1 1.21-2.064zm5.078-3.251a37.639 37.639 0 0 1 1.675 6.285 2.491 2.491 0 0 0 -.865.29 45.325 45.325 0 0 1 -3.008-5.752 8.939 8.939 0 0 1 2.198-.822zm5.972.672a38.991 38.991 0 0 1 -2.639 5.95 2.494 2.494 0 0 0 -.944-.337 46.066 46.066 0 0 1 1.38-6.35 8.947 8.947 0 0 1 2.203.734zm4.132 4.1a37.445 37.445 0 0 1 -5.777 2.965 2.523 2.523 0 0 0 -.437-.658 47.577 47.577 0 0 1 5.071-4.059 8.978 8.978 0 0 1 1.142 1.749zm-3.749 2.856c1.559-.758 3.3-1.783 4.033-2.227a8.919 8.919 0 0 1 .6 2.342c-.77-.041-2.85-.145-4.634-.114zm2.145-5.12c-.62.442-2.312 1.666-3.689 2.813.759-1.606 1.49-3.548 1.773-4.319a9.127 9.127 0 0 1 1.914 1.507zm-5.411-2.679c-.213.769-.744 2.74-1.087 4.462-.41-1.691-1.047-3.615-1.321-4.423a8.959 8.959 0 0 1 1.355-.1 9.07 9.07 0 0 1 1.051.062zm-5.877 1.34c.334.74 1.181 2.575 2.014 4.1-1.4-1.039-3.132-2.113-3.856-2.554a9.072 9.072 0 0 1 1.842-1.546zm-1.936 13.554a37.7 37.7 0 0 1 4.723-4.472 2.538 2.538 0 0 0 .815.726 45.334 45.334 0 0 1 -3.52 5.457 9.122 9.122 0 0 1 -2.023-1.707zm4.866 2.861a8.957 8.957 0 0 1 -2.249-.81c.483-.662 1.654-2.3 2.57-3.766-.214 1.711-.297 3.711-.325 4.58zm.681.118a37.2 37.2 0 0 1 .654-6.473 2.436 2.436 0 0 0 1.209-.023 47.928 47.928 0 0 1 .951 6.435 9.013 9.013 0 0 1 -1.6.146 8.917 8.917 0 0 1 -1.218-.081zm2.917-4.824c.994 1.45 2.285 3.041 2.819 3.687a8.927 8.927 0 0 1 -2.249.93c-.071-.742-.276-2.835-.574-4.612zm3.4 3.316a38.172 38.172 0 0 1 -3.795-5.272 2.523 2.523 0 0 0 .787-.755 47.543 47.543 0 0 1 4.934 4.234 9.1 9.1 0 0 1 -1.927 1.798z" transform="translate(4.501 6.47)"/><path d="m523.188 903.038a12 12 0 1 0 12 12 12.018 12.018 0 0 0 -12-12zm0 23.324a11.319 11.319 0 1 1 11.321-11.32 11.332 11.332 0 0 1 -11.321 11.32z" transform="translate(23.84 5.937)"/><path d="m522.654 904.813a9.693 9.693 0 0 0 -1.844.178l-.038.007a9.689 9.689 0 0 0 -5.638 15.625.326.326 0 0 0 .068.087l.009.006a9.7 9.7 0 0 0 5.69 3.328.332.332 0 0 0 .181.057h.008a.373.373 0 0 0 .078-.009 9.835 9.835 0 0 0 1.487.114 9.713 9.713 0 0 0 9.294-6.935.329.329 0 0 0 .021-.072 9.657 9.657 0 0 0 -.447-6.606.322.322 0 0 0 -.048-.147.269.269 0 0 0 -.044-.057 9.7 9.7 0 0 0 -8.777-5.576zm7.445 14.77c-.555-.532-2.065-1.962-3.441-3.1 1.685.441 3.686.793 4.524.932a8.974 8.974 0 0 1 -1.082 2.168zm-5.037-4.327a2.528 2.528 0 0 0 .112-.747 2.431 2.431 0 0 0 -.027-.352 47.526 47.526 0 0 1 6.512.008c0 .114.008.229.008.345a8.964 8.964 0 0 1 -.284 2.247 37.952 37.952 0 0 1 -6.32-1.501zm-1.537.869a.365.365 0 0 0 -.138.022.324.324 0 0 0 -.137.1 1.835 1.835 0 1 1 -.6-3.57 1.823 1.823 0 0 1 1.033.319.337.337 0 0 0 .1.142.332.332 0 0 0 .156.07 1.822 1.822 0 0 1 .442.7.3.3 0 0 0 .007.047.3.3 0 0 0 .038.1 1.8 1.8 0 0 1 -.072 1.135.3.3 0 0 0 -.051.069.323.323 0 0 0 -.039.126 1.841 1.841 0 0 1 -.738.74zm-9.248 1.7c.784-.182 2.76-.654 4.428-1.173-1.287 1.165-2.671 2.639-3.251 3.269a9.01 9.01 0 0 1 -1.176-2.094zm-.232-.65a8.963 8.963 0 0 1 -.4-2.412 38.245 38.245 0 0 1 6.5-.522 2.579 2.579 0 0 0 -.014.267 2.494 2.494 0 0 0 .148.845 45.645 45.645 0 0 1 -6.232 1.824zm.047-5.476c.731.352 2.557 1.222 4.175 1.864-1.754.1-3.784.384-4.614.506a8.99 8.99 0 0 1 .44-2.369zm1.45-2.717a38.066 38.066 0 0 1 5.32 3.756 2.551 2.551 0 0 0 -.538.81 45.516 45.516 0 0 1 -5.993-2.5 9 9 0 0 1 1.212-2.064zm5.078-3.251a37.646 37.646 0 0 1 1.675 6.285 2.491 2.491 0 0 0 -.865.29 45.534 45.534 0 0 1 -3.009-5.752 8.951 8.951 0 0 1 2.201-.822zm5.972.674a39.075 39.075 0 0 1 -2.64 5.948 2.489 2.489 0 0 0 -.943-.337 46.061 46.061 0 0 1 1.38-6.35 8.911 8.911 0 0 1 2.205.74zm4.132 4.1a37.466 37.466 0 0 1 -5.778 2.965 2.493 2.493 0 0 0 -.436-.658 47.442 47.442 0 0 1 5.071-4.059 8.982 8.982 0 0 1 1.144 1.747zm-3.749 2.856c1.559-.758 3.3-1.783 4.033-2.227a8.921 8.921 0 0 1 .6 2.342c-.768-.045-2.847-.149-4.632-.116zm2.144-5.12c-.62.442-2.312 1.666-3.689 2.813.759-1.606 1.49-3.548 1.772-4.319a9.125 9.125 0 0 1 1.918 1.505zm-5.411-2.679c-.213.769-.744 2.74-1.087 4.462-.411-1.691-1.047-3.615-1.321-4.423a8.944 8.944 0 0 1 1.354-.1 9.076 9.076 0 0 1 1.055.06zm-5.881 1.343c.336.74 1.182 2.575 2.014 4.1-1.4-1.039-3.132-2.113-3.855-2.554a9.1 9.1 0 0 1 1.842-1.551zm-1.935 13.554a37.608 37.608 0 0 1 4.723-4.472 2.539 2.539 0 0 0 .815.726 45.327 45.327 0 0 1 -3.52 5.457 9.09 9.09 0 0 1 -2.017-1.712zm4.866 2.861a8.955 8.955 0 0 1 -2.248-.81c.482-.662 1.654-2.3 2.568-3.766-.208 1.706-.291 3.706-.318 4.575zm.682.118a37.315 37.315 0 0 1 .653-6.473 2.441 2.441 0 0 0 1.211-.023 47.9 47.9 0 0 1 .949 6.435 9 9 0 0 1 -1.6.146 8.91 8.91 0 0 1 -1.212-.086zm2.917-4.824c.992 1.45 2.285 3.041 2.819 3.687a8.948 8.948 0 0 1 -2.249.93c-.067-.747-.271-2.84-.569-4.617zm3.4 3.316a38.173 38.173 0 0 1 -3.794-5.272 2.537 2.537 0 0 0 .787-.755 47.544 47.544 0 0 1 4.934 4.234 9.08 9.08 0 0 1 -1.924 1.793z" transform="translate(24.373 6.47)"/><path d="m568.99 921.706-1.345-.886c.019-.1.045-.233.074-.393v-.016a48.3 48.3 0 0 0 .822-8.189c0-4.171-3.7-9.046-4.277-9.782-.128-1.251-2.293-3.025-17.22-4.5-7.884-.776-15.863-1.1-16.839-1.141-1.519-1.031-18.877-12.691-26.938-12.691-19.181 0-32.32.35-41.115.756-.235-.667-1.161-1.133-2.769-1.385a18.759 18.759 0 0 0 -2.593-.2.341.341 0 0 0 -.338.4l.252 1.479c-1.085.065-2.072.131-2.966.2-4.813.346-7.608.693-9.1.923-2.687.414-2.687.628-2.687.9 0 .064.023.378.489.378.869 0 1.78 1.432 2.19 2.232l-8.963 6.12c-2.463.1-3.307 3.446-3.342 3.592a.338.338 0 0 0 -.01.081v9.235a23.378 23.378 0 0 0 -.469 4.1 10.088 10.088 0 0 0 5.115 8.725 20.894 20.894 0 0 0 11.087 2.905.342.342 0 0 0 .333-.425 16.1 16.1 0 0 1 0-6.933 13.2 13.2 0 0 1 25.207-.256l.005.018a13.214 13.214 0 0 1 .531 2.419l-.029 5.589a.339.339 0 0 0 .1.243.344.344 0 0 0 .243.1h59.038a.343.343 0 0 0 .343-.342v-3.974a13.241 13.241 0 1 1 26.117 3.1.341.341 0 0 0 .254.412.268.268 0 0 0 .082.01.344.344 0 0 0 .159.038c7.146 0 8.607-2.272 8.665-2.369a.343.343 0 0 0 -.106-.473zm-3.057-2.64a.342.342 0 0 0 0-.684h-1.77l.319-1.316h1.8a.343.343 0 0 0 0-.685h-1.633l.319-1.316h1.571a.343.343 0 0 0 0-.685h-1.406l.007-.023a.935.935 0 0 1 .913-.718h1.778a49.927 49.927 0 0 1 -.728 6.372h-2.138a.939.939 0 0 1 -.939-.944zm-2.177-16.166a27.556 27.556 0 0 1 1.96 2.943c-2.082-.278-7.752-1.033-8.253-1.033a3.449 3.449 0 0 1 -.836-.6 3.7 3.7 0 0 0 -2.051-1.13 18.506 18.506 0 0 1 -2.038-.216 19.3 19.3 0 0 0 -2.255-.233 2.67 2.67 0 0 1 -1.46-.728zm-53.58-16.4c7.47 2.944 16.568 8.825 19.068 10.481l-1.654.369-19.09-10.85zm-52.976-2.526a17.864 17.864 0 0 1 2.081.186 4.111 4.111 0 0 1 2.1.745q-2.175.105-3.988.212zm-11.821 5.787a6.779 6.779 0 0 0 -1.969-2.578 98.863 98.863 0 0 1 11.43-1.22c11.266-.762 28.014-1.165 48.431-1.165a16.682 16.682 0 0 1 5.033 1.02h-1.1a.342.342 0 0 0 -.169.64l20.333 11.556a.352.352 0 0 0 .169.044.362.362 0 0 0 .075-.008l2.519-.563c.662.025 8.807.347 16.852 1.139a103.268 103.268 0 0 1 11.59 1.662c3.363.748 4.5 1.449 4.86 1.9l-15.5-1.034h-.009q-10.76-.452-20.955-.83c-.635-1.786-1.248-2.182-1.527-2.267l-20.592-12.023a.345.345 0 0 0 -.17-.047c-3.043-.018-5.951-.055-8.764-.09-22.8-.284-37.9-.472-47.395 10.305l-11.677-.278 8.413-5.744a.343.343 0 0 0 .122-.419zm87.757 30.872q-2.148-.02-4.234-.044 0-.53 0-1.049 2.134.059 4.3.116c-.038.323-.057.644-.066.977zm-4.92-.052c-11.962-.138-22.467-.35-31.863-.644q.022-.735.044-1.476c9.885.429 20.519.752 31.815 1.06q.004.521.004 1.06zm-53.449-1.57a13.827 13.827 0 0 0 -.382-1.809c6.643.5 13.764.9 21.328 1.229q-.023.745-.044 1.484c-7.642-.243-14.546-.543-20.902-.903zm21.652-1.234c.232-7.391.45-14.387-.9-17.787q14.849.41 30.942 1c.773 2.448 1.641 7.492 1.745 17.841-11.287-.303-21.906-.626-31.787-1.053zm-1.185-18.48-.443-1.3 2.581.062 27.88.665c.083.047.485.324.968 1.577q-16.139-.594-30.986-1.001zm2.364-1.92-4.798-10.827 3.107.038c2.786.035 5.664.07 8.677.089l19.407 11.331zm-5.548-10.836 4.791 10.817-2.286-.053-3.67-10.777zm-1.891-.02 3.666 10.765-2.407-.057-2.285-10.716zm-1.727-.012 2.281 10.7-20.193-.481-1.6-6.826 2.637-2.792a.338.338 0 0 0 .052-.071 167.245 167.245 0 0 1 16.824-.528zm-18.619 10.2-7.16-.172 5.706-6.041zm-1.242-7.435a.35.35 0 0 0 -.147 0 .344.344 0 0 0 -.255.412v.01l-6.441 6.817-12.305-.293c5.21-5.649 12.153-8.081 21.16-9.08zm1.676 8.129 20.891.5 2.922.069.442 1.3c-11.061-.3-21.626-.527-31.766-.678l-.4-1.379zm-34.473-.822 12.885.307h.013l12.944.308.4 1.385q-6.439-.094-12.659-.147h-15.903a2.826 2.826 0 0 1 2.321-1.845zm12.043 20.092-15.285-4.035a21.463 21.463 0 0 1 .308-2.908l15.716 5.132a13.665 13.665 0 0 0 -.738 1.819zm-14.817-17.05c.02-.075.072-.256.16-.5h15.74c-.209.386-.784.942-2.359.942-2.657 0-3.751.821-3.926.968a6.614 6.614 0 0 1 -3.442 1.02h-6.173zm4.327 21.432a9.571 9.571 0 0 1 -4.786-7.7l15.108 3.989a17.041 17.041 0 0 0 -.033 6.506 20.022 20.022 0 0 1 -10.289-2.795zm15.328-11.155a14.015 14.015 0 0 0 -3.777 4.355l-15.914-5.2c.017-.086.027-.135.027-.139a.316.316 0 0 0 .008-.07v-6.106h6.172a7.2 7.2 0 0 0 3.851-1.152l.032-.026c.009-.008.935-.808 3.485-.808 2.3 0 2.926-1.065 3.1-1.624q6.184.055 12.583.148l2.421 8.3a13.884 13.884 0 0 0 -11.988 2.321zm12.769-2.087-2.486-8.523c10.158.152 20.745.378 31.828.682 1.427 3.125 1.2 10.568.969 17.778-7.656-.337-14.859-.739-21.567-1.247a13.907 13.907 0 0 0 -8.743-8.691zm9.356 16.8.025-4.911c15.36.869 33.917 1.384 58.327 1.619v3.292zm72.278-17.557a13.946 13.946 0 0 0 -13.781 11.919q-2.21-.059-4.385-.118c-.078-8.138-.624-14.053-1.626-17.6-.023-.082-.047-.16-.069-.237q10.013.371 20.557.814a4.247 4.247 0 0 0 2.528 1.481 19.062 19.062 0 0 1 2.16.225 18.3 18.3 0 0 0 2.133.222c.462 0 1.1.537 1.609.969s.9.762 1.276.762c.4 0 5.336.645 8.669 1.094a12.827 12.827 0 0 1 1.732 5.634c0 .243 0 .488-.009.731h-1.8a1.618 1.618 0 0 0 -1.579 1.242l-1.014 4.186h-2.717a13.949 13.949 0 0 0 -13.683-11.326zm13.629 16.8a14.047 14.047 0 0 0 .165-4.787h2.485a1.622 1.622 0 0 0 1.624 1.628h2.009c-.026.134-.042.208-.043.213a.342.342 0 0 0 .147.358l1.2.792c-.599.532-2.526 1.753-7.586 1.793z"/><path d="m466.522 897.37a.342.342 0 0 0 -.342-.342h-6.515a.342.342 0 1 0 0 .684h6.515a.343.343 0 0 0 .342-.342z" transform="translate(8.256 4.131)"/><path d="m489.437 897.028h-6.515a.342.342 0 1 0 0 .684h6.515a.342.342 0 0 0 0-.684z" transform="translate(15.244 4.131)"/></g></svg>