<svg height="46.556" viewBox="0 0 24.484 46.556" width="24.484" xmlns="http://www.w3.org/2000/svg"><path d="m372.92 47.513c1.245 0 2.5.068 3.739.124.811.033 1.621.149 2.382.231l-.057 7.5h-.6c-.823 0-1.645-.011-2.468-.011-.617 0-1.234.007-1.851.028-1.986.065-3.447.81-3.55 3.293-.063 1.786-.109 5.732-.11 5.94.1 0 2.065.008 4.042.008.988 0 1.954 0 2.627-.008h1.605c-.4 2.879-.771 5.643-1.173 8.423h-7.1l-.161 21.032h-8.721l.164-21.073h-7.131l.064-8.372h7.165l.005-.629c.012-1.688-.008-3.375.055-5.063a21.084 21.084 0 0 1 .273-3.211 9.526 9.526 0 0 1 3.821-6.255 10.968 10.968 0 0 1 6.287-1.952q.346-.005.693-.005z" fill="#bb880f" transform="translate(-354.557 -47.513)"/></svg>