<svg height="32" viewBox="0 0 103 32" width="103" xmlns="http://www.w3.org/2000/svg"><path d="m29.925 24.247c0-4.282-3.471-7.753-7.753-7.753s-7.753 3.471-7.753 7.753 3.471 7.753 7.753 7.753c4.279-.005 7.747-3.473 7.753-7.752zm-14.91 0c0-3.955 3.206-7.161 7.161-7.161s7.161 3.206 7.161 7.161-3.206 7.161-7.161 7.161c-3.953-.004-7.156-3.208-7.159-7.161z"/><path d="m19.593 29.764c.756.363 1.643.575 2.579.575.787 0 1.539-.15 2.229-.422l-.041.014.024-.007.022-.011c.845-.34 1.564-.832 2.155-1.448l.002-.002c.016-.012.03-.024.043-.037.011-.012.021-.025.03-.04l.001-.001c1.008-1.08 1.627-2.534 1.627-4.133 0-.001 0-.002 0-.003q0-.17-.011-.336c0-.004 0-.009 0-.015v-.02c-.058-.938-.32-1.802-.742-2.566l.016.031-.009-.02c-.006-.011-.012-.02-.019-.029-.841-1.49-2.248-2.576-3.922-2.973l-.042-.008-.02-.007h-.019c-.397-.093-.852-.146-1.32-.146s-.924.053-1.361.154l.041-.008h-.02l-.022.008c-1.648.389-3.009 1.404-3.846 2.774l-.015.027c-.006.008-.011.015-.017.024s-.01.022-.016.034c-.429.717-.719 1.566-.808 2.473l-.002.025v.017.022c-.016.178-.026.357-.026.539v.005c0 1.45.509 2.781 1.358 3.824l-.009-.011c.009.015.018.028.028.04v-.001c.009.011.019.02.029.029.559.671 1.248 1.214 2.03 1.595l.036.016.017.01zm.506-.428 2.048-4.335 1.741 4.468c-.512.174-1.102.275-1.715.275-.749 0-1.462-.15-2.113-.422l.036.013zm4.344-.084-1.514-3.883 3.032 2.855c-.432.413-.934.757-1.485 1.014l-.034.014zm1.926-1.459-3.488-3.287 4.788-.276v.018.003c0 1.354-.492 2.593-1.307 3.549l.006-.008zm1.263-4.157-4.159.239 3.651-2.002c.255.513.434 1.109.507 1.737l.002.025zm-.792-2.283-4.233 2.317 1.062-4.709c1.345.391 2.45 1.243 3.159 2.369l.013.023zm-3.752-2.522-.917 4.064-.917-4.064c.276-.05.593-.078.917-.078s.641.028.949.083l-.033-.005zm-2.414.131 1.053 4.677-4.122-2.448c.724-1.067 1.786-1.857 3.031-2.219l.039-.01zm-3.37 2.738 3.581 2.127-4.15-.384c.099-.651.299-1.237.584-1.77l-.014.029zm-.622 2.335 4.739.439-3.682 3.013c-.664-.894-1.062-2.019-1.062-3.237 0-.002 0-.004 0-.006 0-.067.003-.138.006-.208zm1.433 3.915 3.223-2.638-1.78 3.768c-.557-.307-1.033-.683-1.438-1.124l-.004-.004z"/><path d="m83.797 16.495c-4.282 0-7.752 3.471-7.752 7.753s3.471 7.753 7.752 7.753c4.282 0 7.752-3.471 7.752-7.753-.005-4.279-3.473-7.747-7.752-7.753h-.001zm0 14.91c-.001 0-.003 0-.004 0-3.955 0-7.161-3.206-7.161-7.161s3.206-7.161 7.161-7.161 7.161 3.206 7.161 7.161c-.003 3.953-3.205 7.156-7.157 7.161h-.001z"/><path d="m89.139 21.319c-.006-.01-.013-.019-.019-.028-.841-1.49-2.248-2.576-3.922-2.974l-.042-.008-.02-.007h-.019c-.397-.093-.852-.146-1.32-.146s-.924.053-1.361.154l.041-.008h-.02l-.022.008c-1.648.389-3.01 1.404-3.846 2.774l-.015.027c-.006.007-.011.015-.016.023v.001c-.005.01-.011.021-.016.033l-.001.002c-.428.717-.717 1.564-.806 2.47l-.002.025v.018.012s0 .008 0 .012v-.001c-.016.178-.025.357-.025.538v.004c0 1.45.509 2.781 1.358 3.825l-.009-.011c.009.015.018.029.028.041.009.011.019.021.029.03.559.67 1.247 1.213 2.029 1.593l.036.016.017.01.024.008c.756.363 1.643.575 2.579.575.787 0 1.539-.15 2.229-.422l-.041.014.024-.007.022-.011c.845-.341 1.564-.833 2.155-1.449l.002-.002c.016-.011.03-.023.042-.036.011-.012.021-.024.03-.038l.001-.001c1.008-1.08 1.627-2.535 1.627-4.135 0-.001 0-.003 0-.004 0-.113 0-.225-.009-.336 0-.002 0-.005 0-.007s0-.005 0-.008v-.02c-.056-.938-.319-1.804-.742-2.567l.016.031zm.117 2.317-4.161.239 3.655-2.002c.252.513.431 1.109.504 1.737l.002.025zm-.793-2.283-4.231 2.317 1.062-4.709c1.344.391 2.449 1.242 3.157 2.368l.013.023zm-3.751-2.522-.913 4.064-.918-4.064c.276-.05.593-.078.917-.078s.641.028.949.083l-.033-.005zm-2.413.131 1.053 4.677-4.122-2.448c.724-1.067 1.786-1.856 3.03-2.219zm-3.37 2.738 3.581 2.127-4.149-.384c.098-.651.298-1.237.583-1.77l-.014.029zm-.623 2.335 4.741.439-3.685 3.015c-.664-.894-1.064-2.019-1.064-3.237 0-.002 0-.004 0-.006.002-.07.006-.14.011-.21zm1.434 3.915 3.223-2.638-1.781 3.768c-.557-.307-1.034-.682-1.439-1.124l-.004-.004zm1.982 1.383 2.048-4.335 1.742 4.468c-.512.174-1.102.275-1.715.275-.749 0-1.463-.15-2.113-.422l.036.013zm4.343-.084-1.512-3.883 3.03 2.855c-.432.414-.933.76-1.485 1.017l-.034.014zm1.928-1.459-3.489-3.287 4.788-.276v.018.006c0 1.354-.491 2.593-1.305 3.549l.006-.008z"/><path d="m22.172 15.903c4.607.006 8.341 3.74 8.345 8.347l.016 2.621c.001.162.131.293.293.295l44.236.702h.001c.164 0 .297-.133.297-.297v-3.324c0-4.661 3.779-8.44 8.44-8.44s8.44 3.779 8.44 8.44l.007 3.729c0 .164.133.297.297.297 7.215 0 10.571-1.884 10.71-1.966.09-.053.149-.149.149-.259 0-.074-.027-.142-.071-.194l-.477-.556c.113-.69.178-1.486.178-2.297 0-2.845-.797-5.503-2.181-7.764l.037.065c-2.98-4.824-24.822-5.723-26.609-5.789-13.188-8.751-18.087-8.93-18.461-8.93-1.229-.085-26.306-1.766-31.853.977-11.537 4.904-15.797 5.434-17.088 5.434h-4.962c-.164 0-.298.133-.298.298 0 .082.033.157.087.211 1.132 1.134-.145 2.568-.2 2.628l-.007.009-.015.022-.016.024-.013.025-.011.026-.008.027-.004.028v4.305l-1.36 1.724c-.04.05-.065.114-.065.184v4.431c.007 2.063 1.532 3.767 3.516 4.055l.022.003 9.94 1.382c.013.002.027.003.042.003.164 0 .297-.133.297-.297v-1.837c.007-4.606 3.74-8.337 8.346-8.342zm78.253-.211c.377.608.73 1.313 1.018 2.05l.031.09c-1.938-.67-4.349-1.311-6.816-1.794l-.363-.059c-1.234-.314-2.313-.844-3.249-1.554l.022.016c6.359.046 8.924 1.059 9.358 1.253zm1.846 9.469c-1.272.421-3.356.861-4.027.383-.129-.091-.212-.239-.212-.407 0-.013 0-.025.001-.038v.002c0-3.377 3.06-4.804 4.057-5.18.212.938.334 2.015.334 3.12 0 .748-.056 1.483-.163 2.202l.01-.081zm-98.412-12.086c-.017 0-.037.001-.058.001-.672 0-1.292-.225-1.788-.603l.007.005v-1.881c3.619-.421 9.344-.791 10.081-.053l.02.022c-.039.166-.758.755-3.651 1.566-1.318.413-2.881.745-4.488.932l-.123.012zm-1.904 1.812c.04-.05.064-.114.065-.184v-1.51c.474.273 1.037.444 1.638.471h.008l1.203 2.598c.094.197.148.429.148.673 0 .648-.385 1.207-.939 1.459l-.01.004-3.471 1.545v-3.331zm11.278 9.36v1.494l-9.612-1.338c-1.715-.248-3.019-1.706-3.025-3.468v-.341l3.713-1.653c.774-.351 1.303-1.117 1.303-2.007 0-.335-.075-.653-.209-.937l.006.013-1.101-2.377c1.884-.239 7.83-1.552 8.362-2.834.03-.069.047-.149.047-.233 0-.175-.074-.332-.193-.442-1.062-1.062-7.676-.44-10.166-.161.25-.371.399-.828.399-1.319 0-.382-.09-.743-.25-1.063l.006.014h4.363c1.653 0 6.105-.712 17.329-5.484l.017-.008c5.406-2.687 31.305-.937 31.566-.919h.026c.081 0 4.971.085 18.206 8.878.044.029.097.048.155.05h.001c.059 0 5.926.211 12.076 1.007 6.828.884 11.374 2.135 13.325 3.651-1.404-.398-4.168-.925-8.964-.925-.164 0-.297.133-.297.297 0 1.194 2.925 2.15 3.823 2.415l.025.007c2.608.529 6.88 1.538 7.583 2.059.077.243.145.484.207.72-1.019.385-4.517 1.985-4.517 5.761 0 .012-.001.025-.001.039 0 .366.18.69.457.887l.003.002c.339.202.748.322 1.184.322.053 0 .105-.002.157-.005h-.007c1.164-.059 2.257-.28 3.285-.64l-.082.025.19.223c-.983.449-4.175 1.681-9.789 1.722l-.007-3.43c0-4.99-4.045-9.035-9.035-9.035s-9.035 4.045-9.035 9.035v3.019l-43.635-.693-.013-2.328c0-4.937-4.002-8.94-8.94-8.94s-8.94 4.002-8.94 8.94z"/><path d="m26.305 15.32c5.864 1.766 5.985 9.327 5.985 9.404.001.161.13.292.291.295l40.604.856c.151 0 .275-.113.295-.258v-.002c.146-1.123.334-2.317.515-3.466.853-5.406 1.66-10.509-.969-12.16-6.543-3.881-10.842-6.328-16.489-7.653-3.33-.756-7.154-1.189-11.08-1.189-.301 0-.601.003-.901.008l.045-.001c-.028-.01-.061-.015-.095-.015-.006 0-.011 0-.017 0h.001c-.026.002-.05.006-.072.014l.002-.001c-3.193-.006-6.888.14-11.296.441-.02-.005-.043-.008-.067-.008-.008 0-.015 0-.023.001h.001c-.026.003-.05.009-.073.018l.002-.001-.76.053c-.048.004-.092.018-.131.04l.001-.001-6.734 3.911c-.35.221-.579.606-.579 1.044 0 .072.006.142.018.21l-.001-.007c.019.116.051.22.095.318l-.003-.008c-.012.01-.023.02-.033.031-.475.625-.791 1.395-.875 2.234l-.002.019c-.152 1.278.106 3.317 2.2 5.778.036.044.085.077.14.095l.002.001zm47.104 6.736c-.168 1.066-.341 2.165-.482 3.218l-25.25-.532c1.049-5.163 1.22-9.103.541-12.369l-.331-1.951c4.524.176 9.15.263 13.913.263q5.37 0 10.981-.147c2.21 1.503 1.407 6.593.629 11.517zm-39.326-13.059-.693-6.831c4.182-.281 7.739-.421 10.837-.421l.484 7.945q-5.4-.261-10.628-.693zm11.226.723-.485-7.972c.335 0 .663.007.986.011l1.366 8.042c-.623-.027-1.246-.053-1.868-.082zm1.108-7.947c.225.004.447.011.666.018l2.397 8.096q-.85-.029-1.694-.061zm25.416 8.195c-7.567.183-14.771.164-21.723-.06l-2.398-8.094c10.777.443 15.541 3.072 24.118 8.153zm-39.523-7.73.482-.034.684 6.74q-.448-.037-.893-.076l-.758-.178-.447-5.912zm-6.656 3.877 5.154-3.002.41 5.436-5.375-1.257c-.282-.075-.487-.329-.487-.63 0-.228.117-.429.295-.545l.002-.002zm-.414 1.529c.13.101.285.179.452.224l.009.002 6.768 1.583c.013 0 .027.004.042.006 4.822.421 9.73.737 14.765.94l.355 2.085c.668 3.216.491 7.113-.562 12.245l-14.197-.3c-.09-1.444-.376-2.792-.832-4.059l.032.102c-1.042-2.926-2.949-4.894-5.514-5.697-3.366-4.009-1.646-6.69-1.316-7.132z"/><path d="m54.003 12.601h-4.179c-.164 0-.297.133-.297.297s.133.297.297.297h4.179c.164 0 .297-.133.297-.297s-.133-.297-.297-.297z"/><path d="m27.97 13.196h4.179c.164 0 .297-.133.297-.297s-.133-.297-.297-.297h-4.179c-.164 0-.297.133-.297.297s.133.297.297.297z"/></svg>