<svg height="32" viewBox="0 0 88 32" width="88" xmlns="http://www.w3.org/2000/svg"><path d="m18.785 16.542c-4.267 0-7.726 3.459-7.726 7.726s3.459 7.726 7.726 7.726 7.726-3.459 7.726-7.726c-.007-4.264-3.462-7.719-7.725-7.726zm0 15.017c-4.025 0-7.287-3.263-7.287-7.287s3.263-7.287 7.287-7.287c4.025 0 7.287 3.262 7.287 7.287-.004 4.023-3.264 7.283-7.287 7.288z"/><path d="m18.785 18.028c-.42 0-.831.042-1.228.121l.04-.007-.024.005c-2.888.584-5.032 3.102-5.032 6.12 0 1.499.529 2.875 1.41 3.95l-.009-.011c.012.022.027.04.044.056l.006.004c.915 1.092 2.182 1.862 3.624 2.136l.039.006c.033.022.073.036.116.037h.005c.018 0 .035-.002.052-.006h-.002c.288.047.62.073.958.073 2.812-.004 5.189-1.864 5.971-4.42l.012-.044c.005-.014.01-.03.014-.047v-.002c.156-.518.245-1.113.245-1.729 0-.912-.196-1.778-.549-2.559l.016.039c-.003-.035-.014-.068-.031-.096l.001.001c-.009-.014-.018-.026-.028-.037-1.022-2.138-3.166-3.589-5.65-3.592zm4.793 9.51c-.357-.343-1.329-1.263-2.215-1.996 1.085.284 2.373.511 2.913.6-.183.532-.419.994-.71 1.415l.013-.019zm-3.243-2.786c.046-.144.073-.309.073-.481-.001-.081-.008-.159-.02-.236l.001.009c.616-.044 1.334-.069 2.059-.069.751 0 1.495.027 2.233.08l-.099-.006c0 .073.006.147.006.222v.003c0 .513-.067 1.011-.193 1.484l.009-.04c-1.548-.233-2.92-.57-4.241-1.017zm-.989.559c-.002 0-.005 0-.008 0-.029 0-.057.005-.082.015l.002-.001c-.035.014-.065.036-.088.064-.115.041-.247.064-.385.064-.652 0-1.181-.529-1.181-1.181s.528-1.18 1.18-1.181h.002c.247 0 .477.077.666.208l-.004-.003c.014.037.036.067.064.091.028.023.062.038.099.045h.001c.125.123.222.274.283.442l.003.008v.002c0 .01.001.02.003.029v-.001c.005.024.014.046.025.065l-.001-.001c.024.088.038.19.039.295v.001c0 .157-.031.307-.087.443l.003-.008c-.012.013-.023.028-.032.043l-.001.001c-.013.023-.022.051-.025.08v.001c-.111.202-.273.364-.468.473l-.006.003zm-5.954 1.095c.505-.117 1.777-.421 2.851-.755-.828.75-1.719 1.699-2.093 2.105-.295-.389-.55-.833-.744-1.309l-.014-.039zm-.149-.419c-.149-.461-.242-.993-.257-1.545v-.008c1.22-.214 2.624-.336 4.057-.336h.135-.007c-.006.052-.009.111-.009.172 0 .195.035.382.099.555l-.004-.011c-1.097.426-2.439.831-3.818 1.138l-.195.037zm.031-3.525c.47.227 1.645.787 2.687 1.2-1.129.064-2.436.247-2.971.326.028-.554.13-1.075.296-1.566l-.012.041zm.933-1.75c1.297.764 2.416 1.563 3.461 2.448l-.036-.03c-.144.146-.26.319-.342.511l-.004.011c-1.524-.514-2.799-1.058-4.024-1.686l.165.077c.216-.507.477-.945.789-1.341l-.009.013zm3.269-2.093c.429 1.138.803 2.498 1.056 3.899l.022.148c-.208.03-.396.096-.565.191l.008-.004c-.655-1.039-1.303-2.254-1.863-3.517l-.074-.186c.407-.222.879-.404 1.376-.521l.039-.008zm3.845.433c-.521 1.491-1.095 2.755-1.764 3.959l.065-.128c-.174-.107-.38-.184-.599-.216l-.009-.001c.23-1.576.54-2.957.943-4.298l-.054.21c.535.105 1.009.269 1.452.488l-.034-.015zm2.66 2.64c-1.058.677-2.281 1.317-3.56 1.85l-.159.059c-.075-.163-.17-.302-.282-.425l.001.001c.982-.905 2.047-1.763 3.167-2.548l.098-.065c.275.328.52.697.72 1.093l.015.033zm-2.414 1.838c1.004-.488 2.125-1.148 2.597-1.434.184.439.32.949.384 1.481l.003.027c-.496-.026-1.835-.093-2.983-.073zm1.381-3.296c-.399.285-1.489 1.073-2.375 1.811.489-1.034.959-2.284 1.142-2.781.469.28.874.601 1.231.969l.001.001zm-3.483-1.725c-.137.495-.479 1.764-.7 2.873-.264-1.089-.674-2.327-.851-2.848.258-.041.556-.064.86-.064h.014-.001c.239 0 .474.015.705.043l-.028-.003zm-3.784.863c.215.476.76 1.658 1.297 2.64-.901-.669-2.016-1.36-2.483-1.644.346-.378.735-.707 1.163-.981l.023-.014zm-1.246 8.726c.93-1.044 1.925-1.987 2.993-2.842l.048-.037c.14.191.315.348.517.463l.008.004c-.744 1.349-1.494 2.497-2.319 3.586l.053-.073c-.499-.312-.927-.676-1.297-1.093l-.005-.006zm3.132 1.842c-.547-.12-1.031-.299-1.479-.537l.031.015c.311-.426 1.065-1.481 1.655-2.425-.138 1.102-.191 2.389-.209 2.949zm.439.076c.02-1.487.172-2.924.446-4.319l-.025.151c.108.027.232.042.36.042.149 0 .293-.021.429-.059l-.011.003c.271 1.174.488 2.59.605 4.033l.007.11c-.309.059-.666.093-1.03.094h-.001c-.004 0-.008 0-.012 0-.272 0-.54-.019-.802-.056l.03.003zm1.878-3.105c.64.934 1.471 1.958 1.815 2.374-.417.248-.898.453-1.408.59l-.04.009c-.046-.478-.178-1.825-.37-2.969zm2.189 2.135c-.864-1.002-1.671-2.111-2.382-3.285l-.062-.11c.204-.126.374-.288.503-.48l.004-.006c1.172.878 2.208 1.772 3.18 2.73l-.004-.004c-.357.444-.766.826-1.222 1.145l-.019.013z"/><path d="m74.158 16.542c-4.267 0-7.726 3.459-7.726 7.726s3.459 7.726 7.726 7.726 7.726-3.459 7.726-7.726c-.007-4.264-3.462-7.719-7.725-7.726zm0 15.017c-4.024-.001-7.286-3.263-7.286-7.287s3.263-7.287 7.287-7.287c4.025 0 7.287 3.262 7.287 7.287-.004 4.024-3.265 7.284-7.288 7.288z"/><path d="m74.157 18.028c-.42 0-.83.042-1.227.121l.04-.007-.024.005c-2.888.584-5.031 3.102-5.031 6.12 0 1.499.529 2.875 1.41 3.951l-.009-.011c.012.022.026.04.044.056l.006.004c.915 1.092 2.182 1.862 3.624 2.137l.039.006c.033.022.073.036.116.037h.005c.018 0 .035-.002.052-.006h-.002c.288.047.619.073.957.073 2.812-.004 5.189-1.864 5.972-4.421l.012-.044c.006-.013.01-.029.013-.045v-.001c.156-.519.246-1.115.246-1.732 0-.913-.197-1.779-.55-2.56l.016.039c-.003-.035-.014-.068-.031-.096l.001.001c-.008-.014-.018-.026-.028-.037-1.022-2.138-3.167-3.589-5.651-3.59zm4.793 9.51c-.357-.343-1.329-1.263-2.215-1.996 1.085.284 2.373.511 2.913.6-.183.532-.419.994-.709 1.415l.013-.019zm-3.243-2.786c.046-.143.072-.308.072-.479 0-.001 0-.001 0-.002 0-.08-.007-.159-.019-.235l.001.009c.616-.044 1.334-.069 2.059-.069.751 0 1.495.027 2.233.08l-.099-.006c0 .073.005.147.005.222v.005c0 .512-.067 1.009-.192 1.481l.009-.04c-1.548-.233-2.92-.57-4.241-1.017zm-.989.559c-.002 0-.005 0-.008 0-.029 0-.057.005-.082.015l.002-.001c-.036.014-.065.036-.088.064-.115.041-.247.064-.385.064-.652 0-1.181-.529-1.181-1.181s.528-1.18 1.18-1.181h.002c.248 0 .478.077.667.208l-.004-.003c.014.037.036.067.064.091.028.023.062.039.099.045h.001c.125.123.222.274.282.442l.003.008c.001.011.002.022.005.032v-.001c.005.024.013.046.025.065v-.001c.024.089.038.191.038.296 0 .157-.031.306-.088.443l.003-.008c-.013.013-.024.027-.032.043l-.001.001c-.013.023-.022.051-.025.08v.001c-.111.202-.273.365-.469.473l-.006.003zm-5.954 1.095c.505-.117 1.777-.421 2.851-.755-.829.75-1.72 1.699-2.093 2.105-.296-.389-.55-.833-.743-1.309l-.014-.039zm-.15-.419c-.149-.461-.242-.993-.257-1.545v-.008c1.219-.214 2.624-.336 4.056-.336h.135-.007c-.006.052-.009.111-.009.172 0 .195.035.382.099.555l-.004-.011c-1.096.426-2.438.83-3.817 1.138l-.196.037zm.031-3.525c.471.227 1.646.787 2.688 1.2-1.129.064-2.436.247-2.971.326.028-.554.13-1.075.295-1.566l-.012.041zm.933-1.75c1.297.764 2.416 1.563 3.461 2.448l-.036-.029c-.144.146-.261.319-.342.511l-.004.011c-1.524-.514-2.799-1.059-4.024-1.686l.165.077c.216-.507.477-.945.79-1.341l-.009.012zm3.269-2.093c.429 1.138.803 2.498 1.056 3.899l.022.148c-.208.03-.396.096-.565.191l.008-.004c-.655-1.038-1.302-2.254-1.863-3.516l-.074-.187c.408-.222.88-.404 1.378-.521l.039-.008zm3.845.434c-.522 1.49-1.096 2.754-1.765 3.958l.065-.128c-.174-.107-.379-.184-.598-.216l-.009-.001c.23-1.576.54-2.957.943-4.298l-.054.21c.535.106 1.01.271 1.453.491l-.033-.015zm2.661 2.64c-1.058.677-2.282 1.317-3.561 1.85l-.16.059c-.075-.163-.169-.302-.282-.425l.001.001c.982-.905 2.047-1.763 3.167-2.548l.098-.065c.275.328.52.697.721 1.092l.015.033zm-2.414 1.839c1.004-.488 2.125-1.148 2.597-1.434.184.439.32.949.384 1.481l.003.027c-.494-.029-1.833-.096-2.982-.075zm1.38-3.297c-.399.285-1.489 1.073-2.375 1.811.489-1.034.959-2.284 1.141-2.781.47.279.876.6 1.234.968l.001.001zm-3.483-1.724c-.137.495-.479 1.764-.7 2.873-.265-1.089-.674-2.327-.85-2.848.258-.041.556-.064.859-.064h.014-.001.008c.236 0 .469.014.699.041l-.028-.003zm-3.787.864c.216.476.761 1.658 1.297 2.64-.901-.669-2.016-1.36-2.482-1.644.346-.379.735-.709 1.163-.985l.023-.014zm-1.246 8.727c.93-1.045 1.924-1.988 2.993-2.842l.048-.037c.14.191.315.348.517.463l.008.004c-.744 1.349-1.494 2.497-2.319 3.586l.053-.073c-.497-.313-.924-.678-1.293-1.096l-.005-.006zm3.133 1.842c-.547-.12-1.03-.299-1.479-.537l.031.015c.31-.426 1.065-1.481 1.653-2.425-.134 1.098-.187 2.386-.205 2.945zm.439.076c.02-1.487.172-2.925.445-4.319l-.025.152c.108.027.233.042.361.042.149 0 .293-.021.43-.059l-.011.003c.27 1.175.487 2.59.604 4.033l.007.11c-.309.059-.666.093-1.03.094h-.001c-.276-.001-.546-.021-.811-.059l.031.004zm1.878-3.106c.639.934 1.471 1.958 1.815 2.374-.417.248-.898.453-1.408.59l-.04.009c-.043-.481-.174-1.828-.366-2.973zm2.189 2.135c-.864-1.002-1.67-2.111-2.381-3.285l-.062-.11c.204-.126.373-.289.503-.48l.004-.006c1.172.878 2.208 1.772 3.18 2.73l-.004-.004c-.357.443-.764.824-1.22 1.142l-.019.013z"/><path d="m88.297 24.739-.866-.57c.012-.064.029-.15.048-.253v-.01c.309-1.57.501-3.389.529-5.248v-.024c0-2.685-2.382-5.824-2.754-6.298-.082-.805-1.476-1.948-11.087-2.897-5.076-.5-10.213-.708-10.841-.735-.978-.664-12.153-8.171-17.343-8.171-12.349 0-20.808.225-26.471.487-.151-.429-.747-.729-1.783-.892-.498-.077-1.076-.124-1.665-.129h-.005-.001c-.121 0-.22.098-.22.22 0 .013.001.027.004.039v-.001l.162.952c-.699.042-1.334.084-1.91.129-3.099.223-4.898.446-5.859.594-1.73.267-1.73.404-1.73.579 0 .041.015.243.315.243.559 0 1.146.922 1.41 1.437l-5.771 3.94c-1.586.064-2.129 2.219-2.152 2.313-.004.016-.006.034-.006.052v5.946c-.168.782-.277 1.69-.302 2.62v.02c.013 2.397 1.322 4.485 3.262 5.601l.032.017c1.958 1.177 4.322 1.873 6.848 1.873.102 0 .204-.001.305-.003h-.015.001c.122 0 .22-.099.22-.22 0-.019-.002-.037-.007-.055v.002c-.155-.671-.243-1.441-.243-2.232s.089-1.561.256-2.301l-.013.069c1.084-3.533 4.317-6.056 8.14-6.056 3.762 0 6.953 2.444 8.072 5.832l.017.06.003.012c.149.446.269.973.338 1.515l.004.042-.019 3.598v.002c0 .061.025.115.064.155.04.04.095.064.156.064h38.01c.122 0 .22-.099.221-.22v-2.559c.005-4.705 3.82-8.517 8.525-8.517 4.708 0 8.525 3.817 8.525 8.525 0 .705-.086 1.391-.247 2.046l.012-.059c-.004.015-.006.033-.006.051 0 .104.072.19.168.213h.001c.014.004.03.007.047.007h.006c.029.015.064.024.101.024h.001c4.601 0 5.541-1.463 5.579-1.525.021-.033.034-.074.034-.118 0-.078-.04-.147-.102-.186l-.001-.001zm-1.968-1.7c.122 0 .22-.099.22-.22s-.099-.22-.22-.22h-1.14l.205-.847h1.159c.117-.006.209-.103.209-.221s-.092-.214-.208-.22h-1.052l.205-.847h1.011c.117-.006.209-.103.209-.221s-.092-.214-.208-.22h-.906l.004-.015c.065-.267.303-.462.586-.462h.002 1.145c-.076 1.512-.244 2.922-.499 4.301l.03-.198h-1.376c-.334 0-.605-.271-.605-.605 0-.001 0-.002 0-.003zm-1.402-10.408c.422.548.839 1.166 1.217 1.811l.045.084c-1.34-.179-4.991-.665-5.313-.665-.206-.107-.384-.236-.539-.387-.341-.369-.794-.629-1.306-.725l-.015-.002c-.487-.025-.939-.075-1.382-.149l.07.01c-.417-.072-.917-.126-1.425-.149l-.027-.001c-.369-.058-.691-.226-.94-.469zm-34.496-10.559c4.809 1.895 10.667 5.682 12.276 6.748l-1.065.238-12.291-6.986zm-34.107-1.626c.488.015.95.058 1.404.128l-.064-.008c.51.035.974.209 1.36.485l-.008-.005q-1.4.068-2.568.137zm-7.61 3.726c-.294-.664-.724-1.221-1.259-1.653l-.008-.006c2.106-.371 4.637-.652 7.209-.78l.15-.006c7.253-.491 18.036-.75 31.181-.75 1.178.055 2.284.291 3.314.681l-.074-.025h-.708-.001c-.122 0-.22.099-.22.22 0 .082.045.153.111.191l.001.001 13.091 7.44c.031.018.069.028.109.028.017 0 .034-.002.05-.005h-.002l1.622-.362c.426.016 5.67.223 10.85.733 2.846.248 5.395.626 7.893 1.145l-.431-.075c2.165.482 2.897.933 3.129 1.223l-9.985-.666q-6.928-.291-13.491-.534c-.409-1.15-.803-1.405-.983-1.46l-13.258-7.741c-.031-.019-.069-.03-.109-.03-1.959-.012-3.831-.035-5.642-.058-14.679-.183-24.401-.304-30.514 6.635l-7.518-.179 5.417-3.698c.059-.04.097-.107.097-.183 0-.032-.007-.062-.019-.089l.001.001zm56.5 19.876q-1.383-.013-2.726-.028 0-.341 0-.675 1.374.038 2.768.075c-.024.208-.037.415-.043.629zm-3.168-.033c-7.701-.089-14.465-.225-20.514-.415q.014-.473.028-.95c6.364.276 13.211.484 20.483.682q.003.335.003.682zm-34.412-1.011c-.065-.451-.151-.844-.262-1.228l.016.063c4.277.322 8.862.579 13.732.791q-.015.48-.028.955c-4.92-.156-9.365-.35-13.457-.581zm13.94-.795c.149-4.758.29-9.263-.579-11.452q9.56.264 19.921.644c.498 1.576 1.057 4.824 1.123 11.486-7.267-.195-14.104-.403-20.465-.678zm-.763-11.897-.285-.837 19.612.468c.053.03.312.209.623 1.015q-10.391-.382-19.95-.644zm1.522-1.237-3.089-6.971 2 .024c1.794.023 3.647.045 5.586.057l12.495 7.295zm-3.572-6.976 3.085 6.964-1.472-.034-2.363-6.939zm-1.217-.013 2.36 6.931-1.55-.037-1.471-6.899zm-1.112-.008 1.469 6.889-13.001-.31-1.03-4.395 1.698-1.798c.013-.013.024-.028.033-.045l.001-.001c2.632-.229 5.696-.359 8.789-.359.718 0 1.435.007 2.15.021l-.107-.002zm-11.987 6.567-4.61-.111 3.674-3.889zm-.8-4.787c-.014-.003-.031-.005-.047-.005s-.033.002-.049.005h.002c-.098.024-.17.111-.17.215 0 .018.002.035.006.051v-.002.006l-4.147 4.389-7.922-.189c3.354-3.637 7.824-5.203 13.623-5.846zm1.079 5.234 15.331.366.285.837c-7.121-.193-13.923-.339-20.452-.437l-.258-.888zm-22.194-.529 16.638.396.258.892q-4.146-.061-8.15-.095h-10.239c.236-.639.802-1.102 1.485-1.187l.009-.001zm7.753 12.936-9.841-2.598c.026-.682.097-1.327.211-1.956l-.013.084 10.118 3.304c-.163.322-.324.709-.457 1.109l-.018.062zm-9.539-10.978c.013-.048.046-.165.103-.322h10.134c-.135.249-.505.606-1.519.606-1.711 0-2.415.529-2.528.623-.628.402-1.393.645-2.213.657h-3.977zm2.785 13.799c-1.752-1.02-2.944-2.836-3.08-4.939l-.001-.018 9.727 2.568c-.135.646-.213 1.389-.213 2.149 0 .721.07 1.426.203 2.109l-.011-.069c-.016 0-.036 0-.055 0-2.424 0-4.691-.669-6.628-1.832zm9.869-7.182c-.991.757-1.805 1.69-2.408 2.759l-.023.045-10.246-3.348c.011-.055.017-.087.017-.09.003-.014.005-.029.005-.045v-3.931h3.974c.922-.007 1.779-.283 2.497-.753l-.018.011.021-.017c.006-.005.602-.52 2.244-.52 1.481 0 1.884-.686 1.996-1.046q3.981.035 8.101.095l1.559 5.344c-.7-.197-1.503-.31-2.333-.31-2.032 0-3.906.678-5.407 1.82l.022-.016zm8.221-1.344-1.601-5.487c6.54.098 13.356.243 20.492.439.919 2.012.773 6.804.624 11.446-4.929-.217-9.567-.476-13.885-.803-.923-2.646-2.976-4.688-5.566-5.577l-.063-.019zm6.024 10.817.016-3.162c9.889.559 21.837.891 37.552 1.042v2.119zm46.534-11.304c-4.494.006-8.214 3.312-8.866 7.624l-.006.05q-1.423-.038-2.823-.076c-.05-5.239-.402-9.048-1.047-11.331-.015-.053-.03-.103-.044-.153q6.447.239 13.235.524c.404.488.968.832 1.611.951l.017.003c.514.025.993.076 1.462.155l-.072-.01c.394.069.867.12 1.347.142l.026.001c.297 0 .708.346 1.036.624s.579.491.822.491c.258 0 3.435.415 5.581.704.62 1.041 1.023 2.278 1.114 3.602l.001.026c0 .156 0 .314-.006.471h-1.159c-.001 0-.002 0-.003 0-.489 0-.9.338-1.012.793l-.001.007-.653 2.695h-1.749c-.821-4.178-4.451-7.286-8.809-7.292h-.001zm8.775 10.816c.121-.555.191-1.194.191-1.848 0-.435-.031-.863-.09-1.282l.006.048h1.6v.004c0 .577.468 1.044 1.044 1.044h.001 1.293c-.017.086-.027.134-.028.137-.003.014-.005.03-.005.046 0 .077.039.144.099.184h.001l.773.51c-.386.343-1.626 1.129-4.884 1.154z"/><path d="m27.641 11.73c0-.122-.099-.22-.22-.22h-4.195c-.122 0-.22.099-.22.22s.099.22.22.22h4.194c.121 0 .22-.099.22-.22z"/><path d="m46.894 11.51h-4.194c-.122 0-.22.099-.22.22s.099.22.22.22h4.194c.122 0 .22-.099.22-.22s-.099-.22-.22-.22z"/></svg>