<svg height="32" viewBox="0 0 100 32" width="100" xmlns="http://www.w3.org/2000/svg"><path d="m21.379 17.421c-4.026 0-7.289 3.264-7.289 7.289s3.264 7.289 7.289 7.289 7.289-3.264 7.289-7.289c-.005-4.024-3.266-7.285-7.29-7.289zm0 13.997c-3.704 0-6.706-3.003-6.706-6.707s3.003-6.707 6.707-6.707 6.707 3.002 6.707 6.706c-.004 3.703-3.005 6.704-6.707 6.708z"/><path d="m26.576 23.401c-.578-2.22-2.485-3.862-4.801-4.035l-.018-.001h-.032c-.114-.007-.227-.012-.346-.012-2.235.002-4.149 1.371-4.954 3.315l-.013.036-.011.028c-.242.587-.382 1.269-.382 1.984 0 1.632.732 3.093 1.885 4.073l.008.006c.015.017.032.032.051.045l.001.001c.919.766 2.112 1.231 3.413 1.231 1.044 0 2.019-.299 2.842-.817l-.022.013c.023-.011.043-.025.062-.04 1.499-.966 2.478-2.627 2.478-4.517 0-.461-.058-.909-.168-1.336l.008.037zm-.614-.038-.608.462-3.465.515.591-3.506c.002-.014.004-.03.004-.047 0-.035-.006-.068-.016-.099l.001.002-.236-.68c1.788.337 3.207 1.631 3.72 3.318l.009.034zm-4.583-3.429h.133l.251.719-.604 3.611-3.313-1.725c-.037-.02-.08-.032-.127-.032-.005 0-.01 0-.015 0h.001l-.569.012c.812-1.547 2.407-2.584 4.244-2.585zm-4.777 4.776v-.001c0-.574.101-1.124.287-1.634l-.011.033.763-.016 3.248 1.69-2.665 2.617c-.034.034-.06.075-.075.122l-.001.002-.164.543c-.855-.86-1.383-2.045-1.383-3.354 0-.001 0-.003 0-.004zm1.864 3.782.22-.729 2.611-2.568 1.662 3.344c.023.044.054.08.093.107l.001.001.468.325c-.625.323-1.364.512-2.147.512-1.102 0-2.117-.375-2.924-1.004l.011.008zm5.61.158-.626-.434-1.632-3.277 3.695-.55c.051-.008.096-.027.134-.056l-.001.001.453-.346c.035.216.055.465.055.719v.003c0 1.63-.817 3.069-2.063 3.93l-.016.01z"/><path d="m80.784 17.421c-4.026 0-7.289 3.264-7.289 7.289s3.264 7.289 7.289 7.289c4.026 0 7.289-3.264 7.289-7.289-.005-4.024-3.265-7.285-7.289-7.289zm0 13.997c-3.704 0-6.706-3.003-6.706-6.707s3.003-6.707 6.707-6.707 6.707 3.002 6.707 6.706c-.004 3.703-3.005 6.704-6.707 6.708z"/><path d="m85.981 23.402c-.577-2.22-2.484-3.863-4.801-4.036l-.018-.001h-.032c-.115-.007-.227-.012-.346-.012-2.235.002-4.149 1.37-4.954 3.314l-.013.036-.012.029c-.241.587-.381 1.268-.381 1.983 0 1.632.731 3.093 1.884 4.074l.008.006c.015.018.032.033.051.045l.001.001c.919.766 2.112 1.231 3.413 1.231 1.044 0 2.019-.299 2.842-.817l-.022.013c.023-.012.042-.024.06-.039h-.001c1.5-.966 2.479-2.628 2.479-4.518 0-.461-.058-.909-.168-1.335l.008.037zm-.614-.039-.608.462-3.465.515.589-3.506c.003-.015.004-.032.004-.049 0-.034-.006-.066-.017-.096l.001.002-.236-.68c1.79.336 3.21 1.63 3.723 3.318zm-4.583-3.429h.131l.252.719-.604 3.611-3.313-1.725c-.036-.02-.079-.032-.125-.032-.005 0-.011 0-.016 0h.001l-.569.012c.812-1.546 2.406-2.584 4.243-2.585zm-4.776 4.776v-.001c0-.574.101-1.124.287-1.634l-.011.033.763-.016 3.245 1.691-2.665 2.617c-.035.033-.061.075-.075.122l-.001.002-.164.543c-.853-.86-1.38-2.044-1.38-3.351 0-.003 0-.006 0-.009zm1.864 3.782.219-.729 2.612-2.568 1.662 3.344c.022.044.054.08.093.107l.001.001.468.325c-.625.323-1.364.512-2.147.512-1.103 0-2.117-.375-2.924-1.004l.011.008zm5.609.158-.625-.434-1.632-3.277 3.695-.55c.051-.007.096-.027.134-.056l-.001.001.453-.346c.035.216.055.465.055.719v.003c-.001 1.63-.818 3.069-2.065 3.93l-.016.01z"/><path d="m98.509 16.321c-3.312-3.555-11.028-5.637-24.28-6.551-7.745-5.152-15.117-8.083-23.197-9.23-7.675-1.087-16.04-.542-26.326 1.714l-.026.007-11.075 3.475c-.039.011-2.078.567-4.239 1.091-1.345.388-2.961.712-4.617.908l-.149.014c-1.752 0-2.325.596-2.385.665-.045.051-.072.118-.072.192 0 .059.017.113.047.159l-.001-.001c.154.239.246.531.246.844 0 .25-.058.487-.162.697l.004-.009c-.5.863-.68 3.989-.715 4.759-1.579 1.277-1.954 4.142-1.148 8.753.019.106.093.192.191.226l.002.001c3.462 1.147 7.525 2.03 11.716 2.483l.267.023c.011.001.023.002.035.002.161 0 .292-.131.292-.292 0-.008 0-.017-.001-.025v.001c0-.043-.341-4.265 2.182-7.016 1.447-1.579 3.561-2.381 6.283-2.381.129-.008.28-.012.432-.012 2.154 0 4.1.895 5.485 2.333l.002.002c2.786 3.074 2.317 8.204 2.311 8.255-.001.009-.001.019-.001.029 0 .161.13.291.291.291h.001 42.366.001c.161 0 .291-.13.291-.291 0-.011-.001-.022-.002-.033v.001c-.007-.052-.544-5.204 2.236-8.309 1.4-1.564 3.417-2.358 5.993-2.358 2.946 0 5.242.878 6.832 2.609 2.864 3.115 2.485 8.007 2.481 8.055-.001.007-.001.015-.001.023 0 .076.029.144.077.196.052.057.126.094.209.097h.001c.151.005.538.014 1.065.014 1.662 0 4.759-.095 6.503-.741.055-.006.104-.025.144-.056l-.001.001c.42-.137.769-.395 1.017-.732l.004-.006c.015-.025.027-.055.034-.087v-.002c.274-1.156.445-2.491.473-3.862v-.02c.002-.012.003-.027.003-.042s-.001-.029-.003-.043v.002c.009-.109.014-.235.014-.363 0-.935-.268-1.808-.73-2.545l.012.02c-.171-.236-.395-.424-.657-.546l-.01-.004.338-2.135c.002-.012.003-.026.003-.041 0-.081-.033-.154-.086-.207zm-.523.294-.322 2.04c-1.844-.514-3.438-1.145-4.945-1.92l.146.068c-1.665-.725-3.079-1.494-4.417-2.371l.111.068c1.402.1 5.681.784 8.46 1.264.356.271.671.55.965.851l.001.001zm-9.873-2.698c-1.342-.967-7.509-1.722-9.68-1.722-1.273-.084-2.374-.755-3.042-1.743l-.009-.014c9.885.755 16.639 2.252 20.477 4.539-.839-.14-1.972-.326-3.108-.502-1.354-.283-2.949-.483-4.576-.555l-.066-.002zm-30.131-11.262c5.78 1.753 10.818 4.175 15.388 7.241l-.205-.129c-2.861-.14-5.405-1.627-8.309-3.324-2.067-1.305-4.457-2.526-6.957-3.531l-.304-.108c.144-.05.28-.103.388-.148zm-52.308 5.557c.888-.145 2.086-.407 3.288-.693-.514.585-1.167 1.035-1.908 1.301l-.032.01zm-2.896 2.372c.155-.282.246-.618.246-.976 0-.336-.08-.653-.223-.934l.005.012c.453-.227.987-.36 1.553-.36.062 0 .124.002.186.005h-.009l5.679 2.609c-.784.898-1.611 1.711-2.497 2.456l-.034.028c-.018.011-.034.022-.049.034h.001c-.067.049-.143.092-.224.124l-.007.002c-.612.199-4.093.987-5.249 1.247.07-1.243.27-3.634.624-4.247zm-.806 4.886c.604-.135 4.892-1.097 5.612-1.332.092-.033.172-.072.246-.12l-.005.003 6.547 4.031-13.178-1.616c.192-.384.455-.706.774-.961l.006-.004zm-.52 6.462h4.782c.048.086.098.192.143.3l.008.021c-.473.475-1.089.807-1.777.926l-.02.003h-3.691c-.154-.872-.264-1.906-.305-2.958l-.001-.045c.867.173 1.864.272 2.884.272.094 0 .188-.001.282-.003h-.014c.023-.001.05-.001.077-.001.796 0 1.511.347 2.002.897l.002.003h-4.374c-.161 0-.292.131-.292.292s.131.292.292.292zm10.864 3.983c-3.994-.455-7.601-1.21-11.079-2.263l.438.114h2.914c1.113 0 2.292-1.175 2.342-1.225.053-.053.086-.126.086-.207 0-.028-.004-.055-.011-.08v.002c-.458-1.392-1.742-2.38-3.259-2.388h-.001c-.087.002-.189.003-.292.003-1.015 0-2.005-.105-2.96-.305l.094.016c-.001-.038-.001-.083-.001-.129 0-.878.136-1.724.389-2.518l-.016.059 13.829 1.694c-.04.042-.081.081-.121.124-2.282 2.489-2.385 5.98-2.353 7.104zm86.27.017c-.18.211-.414.371-.68.46l-.011.003c-.772-.142-1.43-.311-2.07-.52l.112.032c-.758-.358-1.39-.875-1.871-1.512l-.009-.012h4.176c.161 0 .291-.13.291-.291s-.13-.291-.291-.291h-4.335c.657-1.524 1.243-2.218 1.511-2.218 1.383.2 2.607.486 3.79.864l-.165-.045c-.043 1.275-.204 2.489-.472 3.661l.025-.129zm-.112-6.301c.35.582.557 1.284.557 2.034 0 .044-.001.087-.002.131v-.006c-1.024-.331-2.248-.609-3.505-.78l-.114-.013c-.622 0-1.311.865-2.045 2.568-.053.12-.083.26-.083.408 0 .026.001.051.003.077v-.003c-.002.013-.004.027-.005.043.001.046.011.089.029.127l-.001-.002c.037.16.107.299.202.418l-.002-.002c.578.788 1.337 1.412 2.217 1.815l.035.014c.345.108.662.197.942.269-1.532.267-3.297.419-5.097.419-.32 0-.64-.005-.958-.014l.047.001c.043-1.166-.005-5.31-2.644-8.188q-.143-.151-.292-.302h2.315c.161 0 .291-.13.291-.291s-.13-.291-.291-.291h-2.981c-1.624-1.204-3.667-1.927-5.88-1.927-.151 0-.301.003-.45.01l.021-.001c-2.75 0-4.91.858-6.427 2.552-2.568 2.87-2.488 7.216-2.407 8.439h-41.738c.065-1.215.097-5.534-2.481-8.381-1.49-1.559-3.585-2.528-5.907-2.528-.157 0-.312.004-.467.013l.021-.001c-.124-.006-.268-.009-.414-.009-2.066 0-3.972.683-5.505 1.835l.024-.017-7.151-4.403c.92-.825 1.763-1.679 2.551-2.583l.03-.035c.044-.051.07-.117.07-.19 0-.116-.068-.216-.166-.263l-.002-.001-3.097-1.423c1.133-.558 1.777-1.153 1.964-1.805 2.048-.499 3.928-1.011 4.087-1.058l11.074-3.475c12.527-2.747 22.749-2.967 32.186-.43-.147.052-.29.1-.407.139s-.199.148-.199.276.083.237.197.276l.002.001c3.045 1.115 5.664 2.417 8.111 3.967l-.171-.101c3.124 1.825 5.844 3.414 9.037 3.414.174 0 .35-.005.529-.016l.51.036c.329.539 1.615 2.395 3.796 2.395 2.521 0 8.165.825 9.281 1.566.002.023.006.044.012.064l-.001-.003c.126.465 1.586 1.36 4.337 2.665 1.535.798 3.338 1.527 5.214 2.088l.225.058c.078.015.168.024.26.026h.002.008c.068 0 .134-.011.196-.03l-.005.001c.214.088.389.236.508.422l.003.004z"/><path d="m70.406 11.505c-.01-.012-.021-.023-.033-.034-2.074-1.758-4.402-3.338-6.889-4.657l-.211-.102c-5.315-2.937-11.613-4.756-18.316-4.984l-.069-.002c-5.963.043-11.733.78-17.26 2.133l.511-.106-.033.005c-.023.005-.043.011-.062.018l.003-.001c-4.029.939-7.441 2.01-10.741 3.302l.526-.181c-.216.085-.366.292-.366.535 0 .284.207.521.479.566h.003c1.836.302 4.003.591 6.444.863-.567.638-1.402 1.82-.793 2.733.091.136.274.446.529.875 1.801 3.036 6.582 11.1 10.482 12.662 2.307.932 22.237 1.036 31.034 1.036 2.292 0 3.828-.007 4.099-.009.124 0 .23-.078.271-.188l.001-.002c1.737-4.711 2.879-11.331.394-14.465zm-1.084-.151c-7.35-.378-14.73-.775-21.64-1.209.002-.013.003-.028.003-.043 0-.024-.003-.046-.008-.068v.002l-1.801-7.688c8.942.613 17.014 3.906 23.534 9.072l-.088-.068zm-24.037-9.027v.014c0 .022.003.043.008.063v-.002l1.806 7.713q-.778-.048-1.547-.098l-.008-.021-1.499-7.672q.416-.005.835-.005c.137-.005.272.001.406.005zm-17.014 1.999q.489-.114.994-.227l-1.139 1.956c-.025.042-.04.093-.04.147 0 .013.001.026.003.038v-.001l.321 2.456q-1.505-.143-2.905-.293c.924-1.564 1.838-2.896 2.83-4.163l-.063.083zm.733 4.427-.325-2.493 1.209-2.069c.025-.042.039-.092.039-.146 0-.031-.005-.062-.014-.09l.001.002c3.515-.794 7.648-1.358 11.873-1.572l.179-.007.963 7.461c-5.05-.338-9.761-.699-13.924-1.089zm14.513 1.13-.972-7.524q.453-.017.906-.026l1.493 7.643zm-25.526-2.167.045-.288zm9.351-3.167c-.264.36-.626.888-1.138 1.672-.575.882-1.127 1.765-1.344 2.115-2.583-.283-4.869-.583-6.792-.9 2.485-.998 5.579-1.989 8.751-2.781l.523-.11zm-2.719 7.629c-.27-.453-.448-.755-.546-.903-.44-.66.524-1.83 1.036-2.329 5.569.604 12.464 1.133 20.012 1.623 1.058 3.16 1.158 7.888.315 14.797-5.443-.151-9.689-.395-10.618-.77-3.714-1.49-8.594-9.716-10.196-12.422zm44.909 13.405c-6.339.03-15.967 0-23.507-.201.826-6.806.739-11.538-.274-14.772 7.678.491 16.003.936 24.271 1.36 2.064 2.772 1.259 8.771-.487 13.612z"/><path d="m30.951 11.396h-5.147c-.161 0-.291.13-.291.291s.13.291.291.291h5.147c.161 0 .291-.13.291-.291s-.13-.291-.291-.291z"/><path d="m52.758 12.965h-5.147c-.161 0-.291.13-.291.291s.13.291.291.291h5.147c.161 0 .291-.13.291-.291s-.13-.291-.291-.291z"/></svg>