<svg height="32" viewBox="0 0 84 32" width="84" xmlns="http://www.w3.org/2000/svg"><path d="m20.62 22.925c-2.506 0-4.538 2.032-4.538 4.538s2.032 4.538 4.538 4.538 4.538-2.032 4.538-4.538c-.003-2.505-2.033-4.535-4.537-4.538zm0 8.765c-2.334 0-4.227-1.893-4.227-4.227s1.893-4.227 4.227-4.227 4.227 1.893 4.227 4.227c-.003 2.334-1.894 4.225-4.228 4.227z"/><path d="m20.62 24.413c-1.684 0-3.048 1.365-3.048 3.049s1.365 3.049 3.049 3.049 3.049-1.365 3.049-3.049c-.002-1.683-1.366-3.047-3.049-3.049zm0 5.789c-1.513 0-2.739-1.226-2.739-2.739s1.226-2.739 2.739-2.739 2.739 1.226 2.739 2.739c-.002 1.512-1.227 2.738-2.739 2.739z"/><path d="m73.581 22.925c-.001 0-.002 0-.004 0-2.506 0-4.538 2.032-4.538 4.538s2.032 4.538 4.538 4.538 4.538-2.032 4.538-4.538c-.003-2.504-2.031-4.533-4.534-4.538zm0 8.765c-2.335 0-4.227-1.893-4.227-4.227s1.893-4.227 4.227-4.227c2.335 0 4.227 1.893 4.227 4.227-.003 2.334-1.894 4.225-4.227 4.227z"/><path d="m73.581 24.413c-1.684 0-3.049 1.365-3.049 3.049s1.365 3.049 3.049 3.049 3.049-1.365 3.049-3.049c-.002-1.683-1.366-3.047-3.049-3.049zm0 5.789s0 0-.001 0c-1.513 0-2.739-1.226-2.739-2.739s1.226-2.739 2.739-2.739 2.739 1.226 2.739 2.739c-.002 1.512-1.227 2.737-2.738 2.739z"/><path d="m84.124 22.759h-.301c-.089-1.871-.98-3.517-2.334-4.615l-.012-.009c-.007-.008-.015-.015-.024-.021q-2.613-2.318-8.081-3.873l-9.48-9.341-.479-4.761c-.008-.079-.074-.14-.154-.14-.086 0-.155.069-.155.155 0 .005 0 .011.001.016v-.001l.439 4.362c-1.089-1.136-2.421-2.031-3.912-2.603l-.074-.025c-.945-.379-2.069-.711-3.229-.939l-.123-.02c-.017-.008-.038-.013-.059-.013-2.229-.423-4.794-.665-7.414-.665-.186 0-.372.001-.557.004h-41.838c-.003 0-.006 0-.009 0-1.253 0-2.301.878-2.562 2.052l-.003.017c-.677 3.041-1.052 7.706-1.322 12.833v.014c-.062 1.178-.118 2.379-.172 3.592-.063 1.42-.121 2.855-.177 4.281-.044 1.068-.087 2.136-.132 3.195-.417-.04-1.435-.101-1.799.22-.093.078-.151.195-.151.325 0 .54 1.381.947 2.278.947.023.001.051.002.079.002.281 0 .548-.062.788-.172l-.012.005c.185-.086.324-.244.383-.437l.001-.005c.499.158 1.026.298 1.577.421.028.034.07.055.118.055.024 0 .047-.006.068-.016h-.001c2.944.559 6.332.88 9.795.883h.007c.084 0 .152-.067.155-.151.069-1.128.336-2.177.767-3.137l-.023.057c.716-1.793 2.438-3.036 4.45-3.036.067 0 .134.001.2.004h-.009c2.16 0 3.743 1.055 4.704 3.137.426.932.714 2.014.804 3.151l.002.034c.004.083.071.148.155.148h41.302c.084 0 .152-.067.155-.151.075-1.187.364-2.289.828-3.293l-.024.057c.798-1.902 2.645-3.213 4.799-3.213.083 0 .166.002.248.006h-.012c.076-.004.165-.007.255-.007 1.322 0 2.517.543 3.374 1.419l.001.001c1.73 1.869 1.511 4.98 1.509 5.011 0 .004-.001.008-.001.012 0 .086.069.155.155.155.02 0 .04-.004.057-.011h-.001c1.704-.666 4.492-1.732 4.745-1.767.166-.004.239-.171.324-.733.048-.322.097-.77.145-1.331.082-.953.134-1.918.135-1.927 0-.003 0-.006 0-.009 0-.086-.069-.155-.155-.155zm-.681-.731c-1.534-.298-2.822-1.347-3.831-3.121-.028-.049-.045-.107-.045-.169 0-.188.152-.34.339-.341h1.394c1.087.907 1.856 2.162 2.136 3.592l.006.039zm-10.195-7.5q5.113 1.447 7.692 3.556h-1.034c-.36 0-.651.292-.651.652 0 .118.032.23.087.325l-.002-.003c1.078 1.898 2.473 3.003 4.143 3.293q.021.205.027.412l-4.633.157c-.964-1.653-2.68-2.777-4.666-2.903l-.017-.001c-.177-.015-.383-.023-.591-.023-1.068 0-2.084.224-3.004.627l.048-.019v-4.276l2.326.416c.004 0 .009.001.014.001s.01 0 .014-.001h-.001.002c.086 0 .155-.069.155-.155 0-.039-.015-.075-.039-.103l-8.279-9.354c-.226-.255-.541-.426-.897-.463h-.006l-4.704-.482c-.043-.005-.093-.007-.143-.007-.77 0-1.395.625-1.395 1.395 0 .098.01.195.03.287l-.002-.009 1.109 5.46c.115.56.555.993 1.11 1.095l.009.001 10.385 1.86v4.475c-.796.383-1.469.902-2.014 1.534l-.007.008-10.128-.044c-.104-1.084-.181-1.996-.181-2.344 0-.858-.23-1.139-.396-1.229l-.369-12.998c-.001-.025-.008-.048-.019-.069v.001c2.963.153 5.745.57 8.432 1.231l-.306-.064 7.838 7.72c.016.017.036.03.059.038h.001zm-2.725 1.46-10.517-1.884c-.44-.079-.783-.416-.871-.845l-.001-.007-1.109-5.46c-.014-.065-.022-.139-.022-.215 0-.6.486-1.086 1.086-1.086.039 0 .077.002.115.006h-.005l4.704.482c.281.029.526.162.701.359l.001.001 7.983 9.019zm-12.037 9.199c-.09-.84-.188-1.778-.272-2.636l9.853.042c-.579.742-1.077 1.59-1.456 2.501l-.027.073c-1.779.022-4.612.028-8.096.021zm7.981.29c-.232.62-.399 1.339-.469 2.086l-.003.034h-7.243c-.035-.311-.125-1.119-.231-2.1.924 0 1.802.003 2.626.003 2.202 0 4.022-.007 5.321-.022zm-28.309-.416v-2.597l17.826.077v2.639c-5.216-.018-11.512-.061-17.824-.118zm17.826.428v2.893h-17.824v-3.011c6.312.058 12.607.1 17.826.118zm-50.929 1.747c-1.069-.233-2.004-.544-2.893-.941l.093.037c.046-1.081.09-2.169.134-3.258q.014-.332.027-.666h1.537c-.006.066-.01.143-.01.221 0 .847.439 1.592 1.102 2.02l.009.006zm1.337-26.654h31.456v4.017c-11.369-.118-23.793.091-32.806.359.33-2.352.773-3.786 1.353-4.376zm-1.39 4.685c9.016-.268 21.465-.478 32.848-.362v.942h-30.973c-.395 0-.721.296-.769.677v.004l-.967 7.945c-.004.028-.006.061-.006.094 0 .427.345.773.771.775l31.944.263v1.689c-10.218-.406-21.342-.452-33.582-.144v-1.964c.03-.516.059-1.036.088-1.556.164-2.932.333-5.964.646-8.364zm52.44 13.665c.019.007.251.111.251.962 0 .353.075 1.264.177 2.342l-1.577-.006v-3.409q.579.058 1.15.114zm-1.146-.422v-12.977c.224.016.446.032.665.049-.02.026-.031.058-.031.094v.003l.367 12.93zm-.309-.03c-5.633-.53-11.559-.919-17.826-1.173v-1.699l15.341.127c.403-.002.734-.31.772-.703v-.003l.755-8.337c.002-.021.003-.045.003-.069 0-.428-.347-.775-.775-.776h-16.096v-.933c6.614.071 12.851.253 17.826.599zm-49.572-11.911c.029-.231.225-.409.462-.409h30.973v9.138l-31.942-.263c-.138-.001-.261-.061-.345-.157v-.001c-.072-.082-.116-.19-.116-.308 0-.02.001-.039.003-.058v.002zm31.742-.409h16.096c.257 0 .465.208.465.465 0 .015-.001.03-.002.044v-.002l-.755 8.337c-.023.237-.221.422-.463.423h-.004l-15.337-.126zm-34.201 12.465h-1.38q.025-.58.053-1.158h1.327zm0 .311v1.67h-1.462c.023-.558.047-1.115.071-1.67zm0 1.98v1.182h-1.527q.024-.589.049-1.182zm0-3.758h-1.309q.044-.917.091-1.818h1.222zm.31.306c12.242-.309 23.365-.263 33.582.144v4.545l-12.627-.055c-3.262-2.586-6.396-2.586-9.319 0h-11.632zm33.891.157c6.268.254 12.194.645 17.826 1.174v3.436l-17.826-.077zm18.136 4.921 1.608.007c.084.857.182 1.795.273 2.637l-1.88-.005zm7.331-17.466.005.006 1.261 1.242c-2.501-.547-5.45-.94-8.462-1.094l-.135-.006v-3.942c4.765.986 6.401 2.774 7.333 3.793zm-7.64-3.855v3.982c-4.983-.346-11.219-.53-17.826-.6v-4.021h10.036c.163-.002.356-.004.549-.004 2.56 0 5.066.234 7.497.681l-.253-.039zm-51.924 1.188c.207-.934.958-1.647 1.896-1.797l.013-.002c-.546.757-.95 2.204-1.256 4.487-.326 2.429-.498 5.525-.665 8.519q-.039.707-.079 1.413h-1.215c.268-5.052.64-9.632 1.307-12.62zm-1.068 24.898c-.189.084-.409.132-.641.132-.025 0-.051-.001-.076-.002h.004c-.98 0-1.968-.436-1.968-.637 0-.038.018-.071.046-.092.246-.217 1.163-.194 1.699-.129.302.146.688.302 1.083.439l.083.025c-.034.12-.119.215-.229.262l-.003.001zm11.941.866c-3.386-.008-6.693-.323-9.902-.919l.337.052v-2.538c.136.018.334.032.625.05.498.031 1.237.062 2.2.093 1.767.059 4.295.118 7.524.177-.008.017-.016.034-.024.05-.403.889-.675 1.92-.759 3.005l-.002.032zm5.687-6.26c-.052-.002-.114-.003-.176-.003-2.002 0-3.733 1.157-4.562 2.838l-.013.03c-8.597-.155-10.33-.276-10.568-.336l-.006-.004-.004-.003c-.625-.368-1.037-1.037-1.037-1.803 0-.079.004-.157.013-.233l-.001.009h11.697.001c.04 0 .076-.015.103-.04 2.858-2.556 5.804-2.554 9.006.006.026.021.059.034.096.034l12.683.055v2.596c-4.24-.039-8.479-.085-12.396-.136-.842-1.793-2.633-3.012-4.708-3.012-.044 0-.088.001-.133.002h.007zm4.988 3.325v-.003c3.875.05 8.058.095 12.243.134v3.014h-11.423c-.106-1.16-.396-2.226-.842-3.208l.025.062zm41.831 3.145h-11.143v-2.892l1.913.005c.132 1.217.24 2.172.251 2.273.009.078.074.137.154.138h7.525c.082 0 .149-.063.154-.144.064-.839.244-1.618.526-2.346l-.019.056c.575-.008 1.028-.018 1.344-.029-.369.861-.621 1.859-.704 2.905l-.002.034zm16.152-1.767c-.53.13-3.174 1.151-4.552 1.688.02-.794-.048-3.323-1.6-5.002-.913-.94-2.189-1.523-3.601-1.523-.09 0-.18.002-.27.007l.012-.001c-.061-.002-.132-.004-.204-.004-2.266 0-4.215 1.36-5.075 3.308l-.014.035c-.294.014-.753.025-1.364.034.431-1.003.963-1.868 1.6-2.643l-.015.019c1.244-1.377 3.037-2.239 5.031-2.239.221 0 .44.011.656.031l-.027-.002c1.93.121 3.58 1.218 4.471 2.799l.014.028c.027.048.078.08.136.08h.005l4.876-.165h.289c-.036 1.282-.169 2.506-.392 3.698l.023-.146z"/></svg>