<svg height="41.2" viewBox="0 0 41.218 41.2" width="41.218" xmlns="http://www.w3.org/2000/svg"><g fill="#bb880f"><path d="m475.128 58.382h.031a2.453 2.453 0 0 1 2.447 2.482 2.5 2.5 0 0 1 -2.5 2.466 2.475 2.475 0 0 1 .024-4.949z" transform="translate(-443.451 -51.217)"/><path d="m491.664 63.337c.306 3.244.5 18.566-.451 22.157a10.543 10.543 0 0 1 -9.1 8.241 101.448 101.448 0 0 1 -11.369.46c-4.9 0-9.8-.182-11.45-.609a10.334 10.334 0 0 1 -8.2-8.985c-.553-3.474-.612-19.625.391-23.134a10.511 10.511 0 0 1 8.98-8.009 80.6 80.6 0 0 1 10.326-.463c3.846 0 7.727.1 10.063.231a11.356 11.356 0 0 1 7.522 3.079 10.845 10.845 0 0 1 3.288 7.032zm-3.964 20.585c.591-3.624.592-16.845.254-20.237a6.932 6.932 0 0 0 -6.172-6.57 94.824 94.824 0 0 0 -10.3-.388c-4.1 0-8.187.11-9.984.306a7.06 7.06 0 0 0 -6.583 6.206c-.592 3.789-.584 17.953-.142 20.8a6.681 6.681 0 0 0 5.086 5.825c1.6.448 6.388.609 11.083.609 4.322 0 8.566-.137 10.161-.311a7.036 7.036 0 0 0 6.6-6.239" transform="translate(-450.698 -52.995)"/><path d="m468.9 60.547a10.471 10.471 0 0 1 10.48 10.575 10.665 10.665 0 0 1 -10.653 10.557 10.462 10.462 0 0 1 -10.478-10.579 10.646 10.646 0 0 1 10.651-10.553zm-.154 17.392a6.9 6.9 0 0 0 6.891-6.768 6.763 6.763 0 0 0 -6.715-6.9h-.061a6.9 6.9 0 0 0 -6.891 6.768 6.774 6.774 0 0 0 6.715 6.9z" transform="translate(-448.206 -50.503)"/></g></svg>