<svg height="68.393" viewBox="0 0 195.967 80.463" width="166.6" xmlns="http://www.w3.org/2000/svg"><g fill="#b7b7b7" transform="translate(0 -150.107)"><path d="m192.716 202.027v-7.583a18.983 18.983 0 0 0 -18.961-18.962h-15.23a2.884 2.884 0 0 0 -.391-.641l-16.964-20.895c-.025-.031-.05-.061-.077-.09a11.08 11.08 0 0 0 -8.305-3.748h-34.752a2.885 2.885 0 0 0 0 5.771h2.5v19.6h-20.711v-19.6h6.669a2.885 2.885 0 0 0 0-5.771h-59.283a14.6 14.6 0 0 0 -14.579 14.58v10.795h-.218a9.173 9.173 0 0 0 -9.162 9.163v17.382a4.751 4.751 0 0 0 -3.252 4.499v6.362a4.75 4.75 0 0 0 4.745 4.745h11.055c.058 0 .114-.005.171-.008a18.97 18.97 0 0 0 35.973.008h34.687a2.885 2.885 0 1 0 0-5.771h-33.731c0-.047 0-.093 0-.14a18.743 18.743 0 0 0 -.473-4.17h81.083a18.743 18.743 0 0 0 -.473 4.17v.14h-34.863a2.885 2.885 0 0 0 0 5.771h35.826a18.969 18.969 0 0 0 35.969 0h21.253a4.751 4.751 0 0 0 4.745-4.745v-6.362a4.752 4.752 0 0 0 -3.251-4.5zm-15.147-20.21a13.246 13.246 0 0 1 8.658 8.342h-6.238a2.423 2.423 0 0 1 -2.42-2.42zm-71.269-25.939h26.485a5.306 5.306 0 0 1 3.943 1.756l14.489 17.847h-44.917zm-54.623 0h22.377v19.6h-22.374zm-21.736 8.809a8.782 8.782 0 0 1 7.874-8.76 2.892 2.892 0 0 0 .3-.049h7.787v19.6h-15.957zm-11.542 0a8.818 8.818 0 0 1 8.715-8.807 14.555 14.555 0 0 0 -2.944 8.807v10.795h-5.77zm-12.628 47.176v-4.31h9.716a18.743 18.743 0 0 0 -.473 4.17v.14zm28.187 12.937a13.078 13.078 0 1 1 13.173-13.077 13.14 13.14 0 0 1 -13.173 13.077zm0-31.926a18.967 18.967 0 0 0 -16.085 8.908h-8.851v-17.137a3.4 3.4 0 0 1 3.391-3.392h88.119v20.529h-50.489a18.968 18.968 0 0 0 -16.085-8.908zm118.026 31.926a13.078 13.078 0 1 1 13.173-13.077 13.14 13.14 0 0 1 -13.173 13.077zm0-31.926a18.967 18.967 0 0 0 -16.085 8.908h-29.599v-20.529h65.5v6.486a8.2 8.2 0 0 0 8.191 8.191h6.956v5.852h-18.331a2.88 2.88 0 0 0 -.516.048 18.969 18.969 0 0 0 -16.116-8.956zm38.216 18.989h-19.276c0-.047 0-.093 0-.14a18.743 18.743 0 0 0 -.473-4.17h19.749z"/><path d="m381.411 288.2a8.486 8.486 0 1 0 8.52 8.486 8.513 8.513 0 0 0 -8.52-8.486zm0 11.2a2.715 2.715 0 1 1 2.749-2.715 2.735 2.735 0 0 1 -2.749 2.715z" transform="translate(-229.427 -84.965)"/><path d="m74.64 288.2a8.486 8.486 0 1 0 8.52 8.486 8.513 8.513 0 0 0 -8.52-8.486zm0 11.2a2.715 2.715 0 1 1 2.749-2.715 2.735 2.735 0 0 1 -2.749 2.715z" transform="translate(-40.681 -84.965)"/><path d="m178.214 237.818h-3.856a2.885 2.885 0 0 0 0 5.771h3.856a2.885 2.885 0 0 0 0-5.771z" transform="translate(-105.501 -53.966)"/><path d="m298.82 235.136h-3.856a2.886 2.886 0 0 0 0 5.771h3.856a2.886 2.886 0 1 0 0-5.771z" transform="translate(-179.706 -52.315)"/></g></svg>