<svg xmlns="http://www.w3.org/2000/svg" width="81.481" height="100" viewBox="0 0 95.86 117.7"><g transform="translate(-47.503)"><path d="M143.337,110.444l-1.012-11.305a17.913,17.913,0,0,0-13.938-15.916l-17.852-4.037L107.238,76a22.417,22.417,0,0,1,.134-5.545l.455-3.046c5.544-5.171,8.252-9.778,8.252-14.008,0-.536-.022-1.061-.066-1.58q-.03-.309-.055-.652a7.483,7.483,0,0,0,6.011-7.215,7.392,7.392,0,0,0-2.149-5.325,7.492,7.492,0,0,0-1.675-1.277,7.856,7.856,0,0,0,2.347-5.336A7.608,7.608,0,0,0,120,29.38c5.264-3.31,8.034-7.3,8.034-11.6,0-3.629-1.99-7.122-5.754-10.1a1.724,1.724,0,1,0-2.14,2.7c2.028,1.605,4.446,4.192,4.446,7.4s-2.591,6.483-7.307,9.219H73.744c-4.456-2.673-7-6.016-7-9.219,0-7.634,13.527-14.331,28.949-14.331A47.932,47.932,0,0,1,114.3,6.986a1.723,1.723,0,1,0,1.372-3.162A51.433,51.433,0,0,0,95.692,0c-17.864,0-32.4,7.975-32.4,17.778,0,4.228,2.7,8.281,7.657,11.536a6.748,6.748,0,0,0-.576,2.707,7.953,7.953,0,0,0,2.51,5.5,7.509,7.509,0,0,0-1.38,1.1,7.39,7.39,0,0,0-2.149,5.325,7.483,7.483,0,0,0,6.013,7.215c-.017.241-.037.47-.058.686-.043.488-.065,1.01-.065,1.551,0,4.211,2.682,8.794,8.172,13.933l.457,3.061a22.39,22.39,0,0,1,.114,5.731l-3.165,2.939L62.476,83.221A17.914,17.914,0,0,0,48.542,99.136L47.53,110.444a6.666,6.666,0,0,0,6.643,7.256h20.04a1.723,1.723,0,1,0,0-3.447H70.569V100.8a1.724,1.724,0,0,0-3.448,0v13.458H54.173a3.219,3.219,0,0,1-3.209-3.5l1.012-11.308a14.476,14.476,0,0,1,11.261-12.86l17.2-3.892,2.979,10.478a1.725,1.725,0,0,0,2.667.926l3.825-2.757,1.271,3.326-5.236,19.59h-3.7a1.723,1.723,0,1,0,0,3.447h54.455a6.666,6.666,0,0,0,6.643-7.256ZM98.489,84.932l6.944-5.879,2.3,2.223-2.417,8.581Zm-2.8-2.15-8.209-6.95a25.852,25.852,0,0,0-.08-5.062,13.5,13.5,0,0,0,8.233,2.814h.053a13.494,13.494,0,0,0,8.156-2.753,25.852,25.852,0,0,0-.075,5.113ZM74.231,30.443h42.482a4.2,4.2,0,0,1,.33,1.577c0,4.334-9.232,9.182-21.587,9.182a37.693,37.693,0,0,1-15.77-3.131c-3.67-1.743-5.861-4.005-5.861-6.051a3.477,3.477,0,0,1,.407-1.577Zm44.29,13.473a4.019,4.019,0,0,1-2.683,3.726c-.013-2.316.071-4.976.246-7.459a4.011,4.011,0,0,1,2.438,3.734ZM72.8,43.91a4.01,4.01,0,0,1,2.437-3.734c.174,2.482.259,5.14.246,7.46A4.019,4.019,0,0,1,72.8,43.91Zm5.89,9.5c0-.441.017-.861.05-1.232a79.374,79.374,0,0,0,.033-10.728,41.567,41.567,0,0,0,16.678,3.2,40.941,40.941,0,0,0,17.105-3.415,79.952,79.952,0,0,0,.019,10.907c.034.4.052.826.052,1.265,0,3.856-3.675,8.866-10.631,14.492a10.037,10.037,0,0,1-6.317,2.24h-.04a10.046,10.046,0,0,1-6.324-2.248C82.369,62.269,78.7,57.261,78.7,53.4ZM86.06,89.861,83.6,81.2l2.332-2.166,6.967,5.9Zm9.633-2.7,2.882,2.078-1.412,3.6H94.175L92.8,89.251Zm-6.182,27.088,4.8-17.961h2.706l4.851,17.961Zm49.561-1.047a3.189,3.189,0,0,1-2.379,1.047H123.746V100.8a1.724,1.724,0,0,0-3.448,0v13.458H105.441l-5.289-19.585,1.311-3.343,3.841,2.769a1.725,1.725,0,0,0,2.668-.931L110.89,82.8l16.736,3.784a14.475,14.475,0,0,1,11.264,12.861l1.012,11.305A3.177,3.177,0,0,1,139.072,113.207Z" transform="translate(0 0)" fill="#d9d9d9"/><path d="M231.038,260.311h9.281a1.723,1.723,0,1,0,0-3.447h-9.281a1.723,1.723,0,1,0,0,3.447Z" transform="translate(-140.015 -197.815)" fill="#d9d9d9"/><path d="M223.5,68.2v3.218a1.724,1.724,0,0,0,3.448,0V68.2a1.724,1.724,0,0,0-3.448,0Z" transform="translate(-135.538 -51.191)" fill="#d9d9d9"/><path d="M248.5,43.207v3.218a1.724,1.724,0,0,0,3.448,0V43.207a1.724,1.724,0,0,0-3.448,0Z" transform="translate(-154.791 -31.948)" fill="#d9d9d9"/><path d="M273.5,68.2v3.218a1.724,1.724,0,0,0,3.448,0V68.2a1.724,1.724,0,0,0-3.448,0Z" transform="translate(-174.044 -51.191)" fill="#d9d9d9"/><path d="M298.5,43.207v3.218a1.724,1.724,0,0,0,3.448,0V43.207a1.724,1.724,0,0,0-3.448,0Z" transform="translate(-193.297 -31.948)" fill="#d9d9d9"/><path d="M198.5,43.207v3.218a1.724,1.724,0,0,0,3.448,0V43.207a1.724,1.724,0,0,0-3.448,0Z" transform="translate(-116.285 -31.948)" fill="#d9d9d9"/></g></svg>
