<svg height="80.643" viewBox="0 0 142.312 94.875" width="120.9652" xmlns="http://www.w3.org/2000/svg"><path d="m135.013 85.333h-127.713a7.319 7.319 0 0 0 -7.3 7.3v80.278a7.32 7.32 0 0 0 7.3 7.3h127.714a7.32 7.32 0 0 0 7.3-7.3v-80.28a7.32 7.32 0 0 0 -7.301-7.298zm-2.739 5.473-56.92 42.694a7.63 7.63 0 0 1 -8.4 0l-56.917-42.694zm-30.405 45.511 31.017 38.315c.031.038.069.068.1.1h-123.663c.033-.036.071-.064.1-.1l31.017-38.315a2.737 2.737 0 0 0 -4.255-3.445l-30.712 37.941v-76.586l58.2 43.651a13.063 13.063 0 0 0 14.961 0l58.2-43.651v76.585l-30.713-37.94a2.737 2.737 0 0 0 -4.255 3.445z" fill="#b7b7b7" transform="translate(0 -85.333)"/></svg>