<svg height="324.435" viewBox="0 0 358.87 324.435" width="358.87" xmlns="http://www.w3.org/2000/svg"><g fill="#bb880f" transform="translate(0 -24.565)"><path d="m358.864 153.977c.286-12.833-11.233-25.269-25-25h-45.485a5.257 5.257 0 0 0 0 10.513h45.485a14.865 14.865 0 0 1 5.458 1.061l-136.022 129.243v-8.822a17.744 17.744 0 0 0 -17.723-17.723h-12.285a17.744 17.744 0 0 0 -17.723 17.723v8.822l-136.018-129.243a14.065 14.065 0 0 1 5.458-1.061h66.685a90.791 90.791 0 1 0 -2.214-10.513h-64.471c-12.7-.4-25.368 11.39-25 25v170.023a25.226 25.226 0 0 0 25 25h308.855c13.1.019 25.03-10.9 25-25zm-179.428-118.899a80.44 80.44 0 1 1 -80.436 80.44 80.532 80.532 0 0 1 80.441-80.44zm74.192 201.4 93.33-88.678a14.41 14.41 0 0 1 1.393 6.18v170.02a14.385 14.385 0 0 1 -1.238 5.836zm-80.336 17.283h12.289a7.218 7.218 0 0 1 7.21 7.21v40.206a7.218 7.218 0 0 1 -7.21 7.21h-12.289a7.218 7.218 0 0 1 -7.21-7.21v-40.205a7.218 7.218 0 0 1 7.21-7.21zm-148.283 84.726a14.4 14.4 0 0 1 -5.822-1.231l38.852-38.856a5.257 5.257 0 0 0 -7.434-7.434l-38.852 38.855a14.393 14.393 0 0 1 -1.231-5.821v-170.024a14.409 14.409 0 0 1 1.393-6.179l93.253 88.609-37.229 37.229a5.257 5.257 0 0 0 7.435 7.434l37.419-37.418 36.221 34.417a44.13 44.13 0 0 0 6.555 5.14v17.969a17.744 17.744 0 0 0 17.723 17.723h12.289a17.744 17.744 0 0 0 17.719-17.723v-17.969a44.17 44.17 0 0 0 6.555-5.141l36.145-34.344 93.668 93.539a14.39 14.39 0 0 1 -5.808 1.224h-308.851z"/><path d="m209.8 172.786a19.728 19.728 0 0 0 27.867 0l21.738-21.738a5.257 5.257 0 0 0 -7.434-7.434l-21.738 21.738a9.2 9.2 0 0 1 -13 0l-27.225-27.225a2.753 2.753 0 0 1 0-3.889l10.626-10.626a2.816 2.816 0 0 1 3.89 0l16.276 16.274a5.257 5.257 0 0 0 7.434 0l41.5-41.5a2.817 2.817 0 0 1 3.891 0l9.842 9.842a2.754 2.754 0 0 1 0 3.89l-14.13 14.131a5.256 5.256 0 1 0 7.434 7.434l14.131-14.131a13.279 13.279 0 0 0 0-18.758l-9.842-9.842a13.264 13.264 0 0 0 -18.759 0l-37.781 37.784-12.558-12.558a13.264 13.264 0 0 0 -18.759 0l-10.626 10.622a13.279 13.279 0 0 0 0 18.757z" transform="translate(-53.45 -18.694)"/></g></svg>