<svg height="81.109" viewBox="0 0 81.109 81.109" width="81.109" xmlns="http://www.w3.org/2000/svg"><g fill="#c0c0c0"><path d="m17.743 22.812a1.267 1.267 0 1 0 0-2.535h-5.07v-6.5l5.633 3.755a1.267 1.267 0 1 0 1.406-2.109l-7.039-4.693v-4.564l5.633 3.755a1.267 1.267 0 1 0 1.406-2.109l-7.039-4.688v-1.857a1.267 1.267 0 1 0 -2.535 0v1.857l-7.038 4.689a1.269 1.269 0 0 0 1.405 2.113l5.633-3.755v4.562l-7.038 4.689a1.267 1.267 0 1 0 1.4 2.109l5.634-3.757v6.5h-8.867a1.267 1.267 0 1 0 0 2.535z"/><path d="m79.842 69.7h-8.793c-8.748-.545-8.95-6.11-8.95-6.337v-34.214a8.881 8.881 0 0 0 -8.871-8.871h-19.01v-6.5l5.633 3.755a1.267 1.267 0 1 0 1.406-2.109l-7.039-4.693v-4.565l5.633 3.755a1.267 1.267 0 1 0 1.406-2.109l-7.039-4.688v-1.857a1.267 1.267 0 0 0 -2.535 0v1.857l-7.04 4.689a1.267 1.267 0 1 0 1.406 2.109l5.634-3.751v4.562l-7.04 4.689a1.267 1.267 0 1 0 1.406 2.109l5.634-3.757v6.5h-7.6a1.267 1.267 0 1 0 0 2.535h25.191l-14.194 10.141h-12.268a1.267 1.267 0 0 0 -.99 2.059l8.491 10.614h-21.442a1.267 1.267 0 0 0 -1.271 1.268v13.941h-6.333a1.267 1.267 0 0 0 0 2.535h7.6a1.267 1.267 0 0 0 1.272-1.267v-5.07h2.535a6.344 6.344 0 0 1 6.337 6.337v8.871a8.881 8.881 0 0 0 8.871 8.871h3.8a1.267 1.267 0 0 0 0-2.535h-3.8a6.344 6.344 0 0 1 -6.337-6.337v-8.871a8.881 8.881 0 0 0 -8.872-8.866h-2.534v-6.342h11.406a6.344 6.344 0 0 1 6.336 6.342v7.6a1.267 1.267 0 0 0 2.535 0v-7.6a8.841 8.841 0 0 0 -2.676-6.337h5.21a6.344 6.344 0 0 1 6.337 6.337v15.2a8.881 8.881 0 0 0 8.871 8.871h7.6a1.267 1.267 0 0 0 0-2.535h-7.6a6.344 6.344 0 0 1 -6.336-6.336v-15.2a8.871 8.871 0 0 0 -8.238-8.84l-8.135-10.17h18.907a6.344 6.344 0 0 1 6.337 6.337v19.01a1.267 1.267 0 1 0 2.535 0v-19.015a8.881 8.881 0 0 0 -8.871-8.871h-4.918l14.143-10.1a6.328 6.328 0 0 1 5.982 6.3v34.215c0 .081.127 8.169 11.406 8.871h8.871a1.267 1.267 0 0 0 0-2.535z"/><path d="m23.267 53a1.267 1.267 0 0 0 -1.267 1.267v5.069a1.267 1.267 0 0 0 2.535 0v-5.069a1.267 1.267 0 0 0 -1.268-1.267z" transform="translate(5.881 14.168)"/><path d="m9.337 22.267a1.267 1.267 0 0 0 -1.268-1.267h-3.8a1.267 1.267 0 0 0 0 2.535h3.8a1.267 1.267 0 0 0 1.268-1.268z" transform="translate(.802 5.614)"/><path d="m16.337 22.267a1.267 1.267 0 0 0 -1.268-1.267h-3.8a1.267 1.267 0 1 0 0 2.535h3.8a1.267 1.267 0 0 0 1.268-1.268z" transform="translate(2.673 5.614)"/><path d="m2.267 29a1.267 1.267 0 1 0 0 2.535h3.8a1.267 1.267 0 1 0 0-2.535z" transform="translate(.267 7.752)"/><path d="m9.267 31.535h3.8a1.267 1.267 0 1 0 0-2.535h-3.8a1.267 1.267 0 1 0 0 2.535z" transform="translate(2.139 7.752)"/><path d="m41.267 50a1.267 1.267 0 0 0 -1.267 1.267v5.069a1.267 1.267 0 1 0 2.535 0v-5.069a1.267 1.267 0 0 0 -1.268-1.267z" transform="translate(10.693 13.366)"/><path d="m56.267 48.069a1.267 1.267 0 0 0 1.268-1.269v-2.533a1.267 1.267 0 1 0 -2.535 0v2.533a1.267 1.267 0 0 0 1.267 1.269z" transform="translate(14.703 11.495)"/><path d="m3.535 60.337v-5.07a1.267 1.267 0 1 0 -2.535 0v5.069a1.267 1.267 0 1 0 2.535 0z" transform="translate(.267 14.436)"/><path d="m10.535 64.337v-5.07a1.267 1.267 0 0 0 -2.535 0v5.069a1.267 1.267 0 0 0 2.535 0z" transform="translate(2.139 15.505)"/><path d="m59.535 38.8v-2.533a1.267 1.267 0 1 0 -2.535 0v2.533a1.267 1.267 0 1 0 2.535 0z" transform="translate(15.238 9.356)"/><path d="m29.267 64.535h2.533a1.267 1.267 0 0 0 0-2.535h-2.533a1.267 1.267 0 0 0 0 2.535z" transform="translate(7.485 16.574)"/><path d="m51.5 62.535a1.267 1.267 0 0 0 0-2.535h-1.233a1.267 1.267 0 0 0 0 2.535z" transform="translate(13.099 16.04)"/><path d="m55.37 62.535a1.267 1.267 0 0 0 0-2.535h-1.228a1.267 1.267 0 0 0 0 2.535z" transform="translate(14.135 16.04)"/></g></svg>