<svg height="113" viewBox="0 0 133.73 131.637" width="113" xmlns="http://www.w3.org/2000/svg"><g fill="#b7b7b7" transform="translate(0 -1.001)"><path d="m15.09 15a2.09 2.09 0 1 0 0 4.179h4.179a2.09 2.09 0 1 0 0-4.179z" transform="translate(14.164 15.252)"/><path d="m46.09 15a2.09 2.09 0 0 0 0 4.179h4.179a2.09 2.09 0 0 0 0-4.179z" transform="translate(47.939 15.252)"/><path d="m52.09 15a2.09 2.09 0 1 0 0 4.179h4.179a2.09 2.09 0 0 0 0-4.179z" transform="translate(54.476 15.252)"/><path d="m58.09 15a2.09 2.09 0 0 0 0 4.179h4.179a2.09 2.09 0 0 0 0-4.179z" transform="translate(61.014 15.252)"/><path d="m46.09 28a2.09 2.09 0 0 0 -2.09 2.09v6.269a2.09 2.09 0 0 0 4.179 0v-6.269a2.09 2.09 0 0 0 -2.089-2.09z" transform="translate(47.939 29.416)"/><path d="m46.09 36a2.09 2.09 0 0 0 -2.09 2.09v6.269a2.09 2.09 0 1 0 4.179 0v-6.269a2.09 2.09 0 0 0 -2.089-2.09z" transform="translate(47.939 38.132)"/><path d="m45.179 64.448v-8.358a2.09 2.09 0 0 0 -4.179 0v8.358a2.09 2.09 0 0 0 4.179 0z" transform="translate(44.671 57.743)"/><path d="m42.179 57.448v-8.358a2.09 2.09 0 1 0 -4.179 0v8.358a2.09 2.09 0 1 0 4.179 0z" transform="translate(41.402 50.117)"/><path d="m2.09 42.179h4.179a2.09 2.09 0 1 0 0-4.179h-4.179a2.09 2.09 0 1 0 0 4.179z" transform="translate(0 40.311)"/><path d="m39.627 54.179a2.09 2.09 0 1 0 0-4.179c-5.059 0-14.627 2.184-14.627 10.448 0 6.561 7 8.162 12.119 9.33a20.011 20.011 0 0 1 4.6 1.387v6a2.09 2.09 0 0 0 4.179 0v-6.265c0-3.4-3.813-4.269-7.852-5.19-5.19-1.187-8.864-2.259-8.864-5.257-.003-6.169 10.342-6.274 10.445-6.274z" transform="translate(27.238 53.385)"/><path d="m131.64 44.985a2.09 2.09 0 0 0 0-4.179h-6.507c-2.3-10.337-21.637-17.638-49.3-18.674a2.179 2.179 0 0 0 -1.254-.044q-2.764-.088-5.625-.088c-.677 0-1.337.01-2 .017-.029 0-.054-.017-.086-.017h-48.062a2.09 2.09 0 0 0 0 4.179h12.794c-15.245 4.062-23.242 10.506-23.242 16.721 0 4.758 3.993 9.05 11.457 12.537h-5.188a2.09 2.09 0 1 0 0 4.179h16.716v33.428h-29.253a2.09 2.09 0 1 0 0 4.179h31.342a2.09 2.09 0 0 0 2.09-2.09v-13.581c0-4.806 17.092-11.492 44.925-11.492 25.4 0 38.846 6.118 40.746 11.873v.667a2.09 2.09 0 0 0 2.09 2.09h8.358a2.09 2.09 0 0 0 0-4.179h-6.269v-35.526zm-51.193 20.895a158.1 158.1 0 0 0 -17.761.98v-9.338a2.09 2.09 0 0 0 -4.179 0v9.883c-9.85 1.463-18.242 3.937-22.985 7.409v-16.979c0-.05-.021-.094-.025-.142s.025-.111.025-.171a2.09 2.09 0 0 0 -2.09-2.09h-.952c-12.335-3.245-19.943-7.994-19.943-12.532 0-4.342 7-8.954 18.806-12.23v12.23a2.09 2.09 0 0 0 4.179 0v-13.292a136.944 136.944 0 0 1 20.519-2.963c.761 1.153 2.317 4.434 2.466 12.071v8.358a2.09 2.09 0 0 0 4.179 0v-8.4a33.47 33.47 0 0 0 -2.079-12.3c2.706-.123 5.485-.192 8.348-.192 1.916 0 3.778.036 5.6.092.83.953 2.754 4.072 2.754 12.445v18.803a2.09 2.09 0 1 0 4.179 0v-18.806a31 31 0 0 0 -1.964-12.209 100.911 100.911 0 0 1 29.32 5.535 36.523 36.523 0 0 0 -2.282 12.943v14.627a2.09 2.09 0 0 0 4.179 0v-14.533a31.777 31.777 0 0 1 1.933-11.371c5.529 2.762 8.515 5.993 8.515 9.188v32.247c-6.919-5.826-21.498-9.263-40.742-9.263z" transform="translate(0 22.878)"/><path d="m2.09 26.179h8.358a2.09 2.09 0 0 0 0-4.179h-8.358a2.09 2.09 0 0 0 0 4.179z" transform="translate(0 22.878)"/><path d="m2.09 19.179h14.626a2.09 2.09 0 0 0 0-4.179h-14.626a2.09 2.09 0 0 0 0 4.179z" transform="translate(0 15.252)"/><path d="m47.09 50a2.09 2.09 0 1 0 0 4.179c6.446 0 13.9 1.479 14.71 3.68.293.79-.481 2.568-3.531 5.182a2.09 2.09 0 0 0 -.731 1.586v8.358a2.09 2.09 0 0 0 4.179 0v-7.408c1.947-1.749 5.414-5.355 4-9.169-2.254-6.099-15.911-6.408-18.627-6.408z" transform="translate(49.029 53.385)"/><path d="m23.09 34a2.09 2.09 0 0 0 -2.09 2.09v8.358a2.09 2.09 0 1 0 4.179 0v-8.358a2.09 2.09 0 0 0 -2.089-2.09z" transform="translate(22.88 35.953)"/><path d="m2.09 21.894h129.55a2.09 2.09 0 0 0 0-4.179h-.894l-29.533-14.415a2.073 2.073 0 0 0 -1.333-.167l-20.39 4.075-14.142-4.039a2.089 2.089 0 0 0 -.573-.081h-8.358a2.048 2.048 0 0 0 -.453.05l-2.09.464a2.091 2.091 0 0 0 .907 4.083l1.866-.418h7.836l14.345 4.1a2.09 2.09 0 0 0 .984.04l20.2-4.041 21.207 10.352h-110.619l16.675-12.118 9.263 5.558a2.09 2.09 0 0 0 1.527.249l8.358-1.858a2.089 2.089 0 1 0 -.907-4.079l-7.543 1.667-9.733-5.837a2.09 2.09 0 0 0 -2.3.1l-22.44 16.315h-1.41a2.09 2.09 0 1 0 0 4.179z"/></g></svg>