<svg height="111.892" viewBox="0 0 126.642 131.638" width="148" xmlns="http://www.w3.org/2000/svg"><g fill="#b7b7b7" transform="translate(-.499 .001)"><path d="m126.6 119.213-7.879-10.158a81.826 81.826 0 0 0 -27.652-22.83 39.319 39.319 0 0 0 11.049-21.4l6.474-38.925a2.569 2.569 0 0 0 -1.25-2.648l-39.685-22.908a2.571 2.571 0 0 0 -2.92.241l-30.47 25.069a39.46 39.46 0 0 0 -14.197 27.246c-.007.089-.01.178-.017.266q-1.341-4.066-2.284-8.28a8.74 8.74 0 0 0 -17.2 2.992 104.535 104.535 0 0 0 23.9 54.515 70.684 70.684 0 0 0 4.881 5.207l-5.033 8.717-13.769-7.95a2.571 2.571 0 1 0 -2.571 4.453l31.991 18.47a2.571 2.571 0 0 0 2.571-4.453l-13.769-7.948 4.487-7.772a71.607 71.607 0 0 0 18.006 10.983l22.137 9.334a2.571 2.571 0 1 0 2-4.738l-22.14-9.332a66.5 66.5 0 0 1 -24.86-18.287 99.4 99.4 0 0 1 -22.731-51.84 3.6 3.6 0 0 1 7.08-1.231 91.081 91.081 0 0 0 13.7 31.6c.347.526.711 1.043 1.085 1.555a91.452 91.452 0 0 0 9.746 11.506l9.776 9.777a8.24 8.24 0 0 0 11.656-11.649l-16.5-16.5a4.926 4.926 0 0 1 6.967-6.967l3.709 3.709a81.309 81.309 0 0 0 28.6 18.558 76.688 76.688 0 0 1 33.172 24.617l7.88 10.158a2.571 2.571 0 0 0 4.062-3.153zm-89.066-89.588 29.095-23.937 6.529 3.769-13.811 11.362a2.571 2.571 0 0 0 3.268 3.971l15.299-12.59 25.313 14.615-4.327 26.032c-1.947 1.392-15.071 9.709-36.055-1.588-13.333-7.179-23.89-6.925-30.4-5.447a31.6 31.6 0 0 0 -6.399 2.188 34.305 34.305 0 0 1 11.488-18.375zm15.351 68.094a3.075 3.075 0 0 1 -2.19-.908l-2.037-2.036c.215.085.43.172.646.255a39.332 39.332 0 0 0 5.817 1.731c-.016.016-.029.034-.045.05a3.078 3.078 0 0 1 -2.191.908zm3.636-32.319-3.709-3.709a10.069 10.069 0 1 0 -14.24 14.237l15.185 15.184c-.881-.259-1.753-.551-2.608-.881a49.555 49.555 0 0 1 -13.4-7.735 34.148 34.148 0 0 1 -6.019-6.3q-.511-.716-1.006-1.441a34.1 34.1 0 0 1 -5.6-20.344c2.985-2.084 15.553-9.237 35.276 1.381 9.23 4.968 17.161 6.453 23.343 6.453a35.885 35.885 0 0 0 7.135-.7 32.306 32.306 0 0 0 6.94-2.228l-.777 4.668a34.167 34.167 0 0 1 -11 19.908q-1.351-.574-2.726-1.1a76.215 76.215 0 0 1 -26.795-17.393zm0 0"/><path d="m201.294 106.072a2.572 2.572 0 1 0 -1.818-.753 2.591 2.591 0 0 0 1.818.753zm0 0" transform="translate(-147.26 -74.981)"/></g></svg>