<svg height="87.443" viewBox="0 0 71.7 87.443" width="71.7" xmlns="http://www.w3.org/2000/svg"><g fill="#c0c0c0"><path d="m68.583 51.8a8 8 0 0 0 .405-12.333 6.662 6.662 0 0 0 -2.471-6.367 6.532 6.532 0 0 0 -4.828-1.256 9.906 9.906 0 0 0 -12.851-8.116 10.541 10.541 0 0 0 -16.911 4.5 10.17 10.17 0 0 0 -4.057 1.016 37.309 37.309 0 0 1 9.8-25.823 1.712 1.712 0 0 0 -1.456-2.858 40.871 40.871 0 0 0 -31.008 20.561 1.712 1.712 0 1 0 2.986 1.676 37.482 37.482 0 0 1 23.992-18.069 40.736 40.736 0 0 0 -7.61 27.153c-.034.043-.07.084-.1.128a10.476 10.476 0 0 0 -1.809 8.677 6.58 6.58 0 0 0 2.168 12.8h8.128a40.928 40.928 0 0 0 32.2 15.827 37.562 37.562 0 0 1 -23 8.967 9.3 9.3 0 0 0 -7.918-8.735 8.1 8.1 0 0 0 -7.615-5.458c-.25 0-.5.012-.75.035a9.586 9.586 0 0 0 -15.463-1.4 37.547 37.547 0 0 1 -2.915-4.782 37.047 37.047 0 0 1 -3.808-21.366 1.712 1.712 0 0 0 -3.4-.411 40.459 40.459 0 0 0 4.159 23.334 41 41 0 0 0 2.716 4.555 7.572 7.572 0 0 0 -4.233 6.787 7.708 7.708 0 0 0 .053.905 9.382 9.382 0 0 0 6.413 16.253h23.477a9.3 9.3 0 0 0 8.79-6.278 41.012 41.012 0 0 0 17.65-4.426 40.59 40.59 0 0 0 11.583-8.783 1.712 1.712 0 0 0 -1.453-2.857 37.53 37.53 0 0 1 -32.039-12.17h26.776a6.55 6.55 0 0 0 4.4-1.691zm-35.705 32.772h-23.478a5.979 5.979 0 0 1 -5.978-5.966 5.906 5.906 0 0 1 2.449-4.806 1.711 1.711 0 0 0 .636-1.846 4.083 4.083 0 0 1 -.149-1.108 4.15 4.15 0 0 1 4.149-4.146c.093 0 .185 0 .278.008a1.712 1.712 0 0 0 1.543-.836 6.167 6.167 0 0 1 11 .806 1.712 1.712 0 0 0 2.039 1 4.7 4.7 0 0 1 1.252-.171 4.636 4.636 0 0 1 4.561 3.9 1.712 1.712 0 0 0 1.692 1.455 5.852 5.852 0 1 1 0 11.7zm-8.049-34.51a3.158 3.158 0 1 1 0-6.317 1.712 1.712 0 0 0 1.6-2.308 7.527 7.527 0 0 1 .752-7.341 6.359 6.359 0 0 1 5.152-2.457q.361 0 .732.035a1.712 1.712 0 0 0 1.844-1.383 7.109 7.109 0 0 1 10.629-4.746 9.916 9.916 0 0 0 -3.552 7.576 1.712 1.712 0 0 0 3.423 0 6.487 6.487 0 0 1 3.691-5.826l.053-.022a6.4 6.4 0 0 1 2.726-.6 6.466 6.466 0 0 1 6.468 6.45 7.036 7.036 0 0 1 -.055.87 1.712 1.712 0 0 0 2.562 1.688 3.235 3.235 0 0 1 3.595.146 3.549 3.549 0 0 1 1 3.919 1.711 1.711 0 0 0 .72 1.863 4.578 4.578 0 0 1 .276 7.51q-.067.051-.128.107a3.137 3.137 0 0 1 -2.136.837z" transform="translate(.002 -.552)"/><path d="m12.166 159.83a1.711 1.711 0 0 0 2.3-.749v-.01a1.712 1.712 0 1 0 -2.306.759z" transform="translate(-9.308 -129.882)"/></g></svg>