<svg height="37.12" viewBox="0 0 34.268 37.12" width="34.268" xmlns="http://www.w3.org/2000/svg"><path d="m483.2 109.437-.192-.414c-.58-1.358-7.662-3.438-8.247-3.474l-.472.036c-.966.2-2.027 1.114-4.262 3.091-2.518-1.162-5.963-4.267-7.585-6.1a25.628 25.628 0 0 1 -4.739-7.8c2.547-2.257 3.608-3.237 3.675-4.327.036-.587-1.179-7.863-2.458-8.6l-.386-.242a4.722 4.722 0 0 0 -3.412-1.04 2.94 2.94 0 0 0 -.956.386 12.137 12.137 0 0 0 -4.193 4.176c-.63 1.272-.915 12.859 7.765 22.65 8.582 9.684 19.162 10.1 20.753 9.78l.041-.01.141-.041a12.1 12.1 0 0 0 4.65-3.658c1.26-1.564.361-3.416-.123-4.413z" fill="#bb880f" transform="translate(-449.697 -80.507)"/></svg>