<svg height="81" viewBox="0 0 81 81" width="81" xmlns="http://www.w3.org/2000/svg"><g fill="#c0c0c0"><path d="m370.22 27.036c2.637-5.234 5.3-11.631 5.3-14.852a12.15 12.15 0 1 0 -24.3 0c0 3.221 2.661 9.618 5.3 14.852a8.489 8.489 0 0 0 -5.12 5.364h-.181a1.35 1.35 0 0 0 0 2.7h.175c.94 3.876 5.855 6.75 11.975 6.75 6.813 0 12.15-3.558 12.15-8.1-.002-2.741-1.996-5.224-5.299-6.714zm-16.3-14.852a9.45 9.45 0 1 1 18.9 0c0 3.734-5.044 14.458-8.316 19.59a1.376 1.376 0 0 1 -2.269 0c-3.274-5.132-8.318-15.855-8.318-19.59zm9.45 26.966c-5.122 0-9.45-2.473-9.45-5.4 0-1.656 1.48-3.283 3.848-4.315.8 1.486 1.56 2.8 2.19 3.789a4.04 4.04 0 0 0 6.823 0c.63-.988 1.39-2.3 2.191-3.79 2.369 1.032 3.849 2.659 3.849 4.315-.004 2.928-4.332 5.401-9.454 5.401z" transform="translate(-294.517)"/><path d="m406.034 40.883a6.75 6.75 0 1 0 -6.75 6.75 6.75 6.75 0 0 0 6.75-6.75zm-10.8 0a4.05 4.05 0 1 1 4.05 4.05 4.05 4.05 0 0 1 -4.05-4.05z" transform="translate(-330.434 -28.733)"/><path d="m64.267 190a10.8 10.8 0 1 0 -10.8 10.8 10.8 10.8 0 0 0 10.8-10.8zm-18.9 0a8.1 8.1 0 1 1 8.1 8.1 8.1 8.1 0 0 1 -8.1-8.1z" transform="translate(-35.917 -150.85)"/><path d="m35.1 186.474h-.148c-.726-2.892-4.3-5.265-9.773-6.453 4.453-8.192 9.921-20.316 9.921-25.9a17.55 17.55 0 1 0 -35.1 0c0 5.58 5.468 17.7 9.921 25.9-6.156 1.336-9.921 4.168-9.921 7.555 0 4.759 7.545 8.348 17.55 8.348 8.848 0 15.762-2.809 17.245-6.75h.305a1.35 1.35 0 1 0 0-2.7zm-32.4-32.349a14.85 14.85 0 1 1 29.7 0c0 5.716-7.631 21.986-12.578 29.746a2.686 2.686 0 0 1 -4.543 0c-4.948-7.76-12.579-24.03-12.579-29.746zm14.85 39.1c-8.5 0-14.85-2.982-14.85-5.648 0-1.749 2.97-4.009 8.609-5.069.607 1.053 1.181 2.011 1.694 2.816a5.384 5.384 0 0 0 9.094 0c.514-.805 1.088-1.763 1.694-2.816 5.639 1.061 8.609 3.321 8.609 5.069 0 2.665-6.35 5.647-14.849 5.647z" transform="translate(0 -114.924)"/><path d="m274.661 282.244a1.35 1.35 0 0 0 -1.35-1.35h-1.379a4.774 4.774 0 0 1 -.987-.1 1.35 1.35 0 1 0 -.562 2.641 7.452 7.452 0 0 0 1.549.162h1.379a1.35 1.35 0 0 0 1.35-1.353z" transform="translate(-226.707 -236.344)"/><path d="m425.57 284.653a1.35 1.35 0 0 0 -.835-1.707 14.693 14.693 0 0 0 -2.846-.655 1.35 1.35 0 1 0 -.34 2.679 12.008 12.008 0 0 1 2.322.534 1.35 1.35 0 0 0 1.699-.851z" transform="translate(-353.863 -237.622)"/><path d="m468.993 307.334a1.35 1.35 0 0 0 .886-2.167 14.99 14.99 0 0 0 -2-2.122 1.35 1.35 0 0 0 -1.777 2.033 12.247 12.247 0 0 1 1.639 1.74 1.35 1.35 0 0 0 1.252.516z" transform="translate(-391.978 -254.823)"/><path d="m325 282.951a1.35 1.35 0 0 0 -1.35-1.35h-2.658a1.35 1.35 0 0 0 0 2.7h2.658a1.35 1.35 0 0 0 1.35-1.35z" transform="translate(-269.075 -237.051)"/><path d="m494.653 345.763a1.349 1.349 0 1 0 -2.6.705 12.086 12.086 0 0 1 .39 2.352 1.35 1.35 0 0 0 1.346 1.261h.091a1.351 1.351 0 0 0 1.258-1.436 14.747 14.747 0 0 0 -.485-2.882z" transform="translate(-414.165 -290.222)"/><path d="m486.3 394.455a1.349 1.349 0 0 0 -1.714.838 12.194 12.194 0 0 1 -.994 2.171 1.35 1.35 0 0 0 2.333 1.359 14.826 14.826 0 0 0 1.213-2.654 1.35 1.35 0 0 0 -.838-1.714z" transform="translate(-406.93 -331.989)"/><path d="m250.933 452.267h-2.657a1.35 1.35 0 1 0 0 2.7h2.657a1.35 1.35 0 1 0 0-2.7z" transform="translate(-207.862 -380.717)"/><path d="m402.007 452.106q-.374.023-.751.023h-1.822a1.35 1.35 0 1 0 0 2.7h1.822q.461 0 .918-.028a1.35 1.35 0 1 0 -.166-2.695z" transform="translate(-335.106 -380.579)"/><path d="m375.384 282.951a1.35 1.35 0 0 0 -1.35-1.35h-2.658a1.35 1.35 0 1 0 0 2.7h2.658a1.35 1.35 0 0 0 1.35-1.35z" transform="translate(-311.487 -237.051)"/><path d="m449.888 434.947a12.216 12.216 0 0 1 -2.029 1.262 1.35 1.35 0 0 0 1.194 2.422 14.922 14.922 0 0 0 2.477-1.541 1.35 1.35 0 1 0 -1.643-2.142z" transform="translate(-376.372 -365.902)"/><path d="m301.317 452.267h-2.658a1.35 1.35 0 1 0 0 2.7h2.658a1.35 1.35 0 1 0 0-2.7z" transform="translate(-250.274 -380.717)"/><path d="m351.7 452.267h-2.658a1.35 1.35 0 1 0 0 2.7h2.658a1.35 1.35 0 0 0 0-2.7z" transform="translate(-292.686 -380.717)"/><path d="m252.642 210.623a1.345 1.345 0 0 0 .916-.359 4.749 4.749 0 0 1 1.771-1.032 1.35 1.35 0 0 0 -.82-2.572 7.462 7.462 0 0 0 -2.783 1.621 1.35 1.35 0 0 0 .916 2.341z" transform="translate(-211.537 -173.912)"/><path d="m300.434 207.5h2.657a1.35 1.35 0 1 0 0-2.7h-2.657a1.35 1.35 0 1 0 0 2.7z" transform="translate(-251.768 -172.401)"/><path d="m242.177 249.665a1.35 1.35 0 0 0 .036-1.327 4.691 4.691 0 0 1 -.541-1.976 1.365 1.365 0 0 0 -1.415-1.283 1.351 1.351 0 0 0 -1.283 1.415 7.364 7.364 0 0 0 .852 3.107 1.35 1.35 0 0 0 2.35.064z" transform="translate(-201.168 -206.305)"/></g></svg>