<svg height="98.991" viewBox="0 0 116.46 116.583" width="98.991" xmlns="http://www.w3.org/2000/svg"><g fill="#b7b7b7" transform="translate(-.001)"><path d="m230.224 388.059a2.276 2.276 0 1 0 3.219 0 2.277 2.277 0 0 0 -3.219 0zm0 0" transform="translate(-177.286 -299.182)"/><path d="m111.328 84.923-17.288-14.7a2.335 2.335 0 0 0 -.253-.186 11.316 11.316 0 0 0 -14.161 1.554l-9.426 9.424a2.271 2.271 0 0 1 -2.481.495 61.769 61.769 0 0 1 -25.987-19.7 45.837 45.837 0 0 1 -7.087-12.6 2.263 2.263 0 0 0 -.138-.47 2.265 2.265 0 0 1 .493-2.479l9.425-9.427a11.314 11.314 0 0 0 1.554-14.161c-.023-.036-.047-.072-.072-.108l-12.482-17.349a11.384 11.384 0 0 0 -17.618-1.88l-1.888 1.887-6.743 6.743c-8.035 8.034-9.35 20.111-3.801 34.923 4.753 12.687 14.269 26.573 26.793 39.1 12.821 12.817 27.082 22.511 40.155 27.286 12.94 4.727 26.7 5.31 36.447-4.433l6.355-6.354a11.386 11.386 0 0 0 -1.8-17.565zm-20.109-11.123 17.272 14.688a2.239 2.239 0 0 0 .252.186 6.832 6.832 0 0 1 1.157 10.594l-.471.472-29.456-22.056 2.874-2.873a6.787 6.787 0 0 1 8.372-1.01zm-61.598-66.082c.023.036.047.073.072.108l12.479 17.342a6.788 6.788 0 0 1 -.964 8.445l-2.785 2.787-19.931-29.31.535-.535a6.832 6.832 0 0 1 10.594 1.163zm42.264 101.282c-12.463-4.554-26.135-13.87-38.5-26.232-12.072-12.076-21.216-25.386-25.746-37.477-3.4-9.076-5.682-21.666 2.757-30.1l4.818-4.819 19.931 29.31-3.361 3.358a6.8 6.8 0 0 0 -1.559 7.249c.719 2.949 4.026 9.072 7.362 13.583a66.792 66.792 0 0 0 28.393 21.846 6.812 6.812 0 0 0 7.441-1.482l3.3-3.3 29.46 22.057-2.63 2.629c-9.051 9.048-22.214 6.83-31.666 3.378zm0 0"/><path d="m121.246 278.2c-2.405-2.109-6.565-5.736-8.756-7.99a149.686 149.686 0 0 1 -14.36-17.048 2.277 2.277 0 0 0 -3.743 2.594 154.21 154.21 0 0 0 14.839 17.629c2.313 2.38 6.508 6.039 9.017 8.239a2.277 2.277 0 1 0 3-3.424zm0 0" transform="translate(-72.581 -194.76)"/></g></svg>