<svg height="79.559" viewBox="0 0 100 79.559" width="100" xmlns="http://www.w3.org/2000/svg"><g fill="#c0c0c0"><path d="m174.954 220.314a6.97 6.97 0 1 0 6.97 6.97 6.978 6.978 0 0 0 -6.97-6.97zm0 11.01a4.04 4.04 0 1 1 4.04-4.04 4.045 4.045 0 0 1 -4.04 4.04z" transform="translate(-135.175 -187.505)"/><path d="m276.352 175.156a10.83 10.83 0 0 0 -10.6-8.435 10.884 10.884 0 1 0 10.6 8.435zm-10.928 10.4a7.921 7.921 0 0 1 -4.246-1.424 8.049 8.049 0 0 1 -.237-12.858 20.545 20.545 0 0 1 4.53 12.888c0 .461-.015.927-.046 1.391zm2.955-.442c.013-.318.022-.635.022-.953a23.468 23.468 0 0 0 -4.78-14.215c.112-.031.224-.061.338-.087a8 8 0 0 1 1.8-.206 7.954 7.954 0 0 1 2.622 15.46z" transform="translate(-205.096 -144.379)"/><path d="m228.159 289.382-.128-.018a11 11 0 0 0 -12.3 10.106v.028a10.879 10.879 0 0 0 10.869 11.536 10.882 10.882 0 0 0 1.558-21.652zm-9.481 10.183a7.935 7.935 0 0 1 12.27-6.072 20.56 20.56 0 0 1 -11.929 9.087 7.789 7.789 0 0 1 -.341-3.015zm15.8 1.652a8.03 8.03 0 0 1 -7.878 6.883 7.9 7.9 0 0 1 -6.143-2.9 23.48 23.48 0 0 0 12.64-9.63 7.9 7.9 0 0 1 1.378 5.647z" transform="translate(-173.58 -242.993)"/><path d="m101.955 299.5c0-.008 0-.016 0-.023a10.872 10.872 0 0 0 -12.425-10.09 10.882 10.882 0 0 0 1.559 21.651 10.987 10.987 0 0 0 10.866-11.538zm-10.868 8.61a7.88 7.88 0 0 1 -4.812-1.626 7.962 7.962 0 0 1 -1.686-10.9 23.481 23.481 0 0 0 12.64 9.63 7.894 7.894 0 0 1 -6.142 2.896zm7.954-7.645v.023a7.889 7.889 0 0 1 -.372 2.1 20.559 20.559 0 0 1 -11.93-9.088 7.939 7.939 0 0 1 3.178-1.208l.054-.008a8.107 8.107 0 0 1 9.07 8.18z" transform="translate(-64.548 -242.998)"/><path d="m60.994 171.6a10.974 10.974 0 0 0 -9.06-4.878 10.885 10.885 0 0 0 -9.222 16.651 10.988 10.988 0 0 0 9.24 5.12 10.823 10.823 0 0 0 10.348-7.54 11.014 11.014 0 0 0 -1.306-9.353zm-11.682 13.511a7.954 7.954 0 0 1 2.622-15.461 8.009 8.009 0 0 1 2.136.293 23.471 23.471 0 0 0 -4.78 14.215c.001.318.01.635.022.953zm10.572-7.1a8.013 8.013 0 0 1 -7.617 7.539c-.031-.464-.046-.93-.046-1.395a20.546 20.546 0 0 1 4.529-12.886l.107.081a8.089 8.089 0 0 1 3.027 6.664z" transform="translate(-33.037 -144.379)"/><path d="m158.832 88.444a10.9 10.9 0 0 0 -10.883 10.883 10.716 10.716 0 0 0 .211 2.109 10.881 10.881 0 1 0 10.672-12.992zm7.324 13.984a7.957 7.957 0 0 1 -14.648 0l-.007-.016c-.009-.022-.174-.427-.165-.43a20.668 20.668 0 0 1 14.993 0s-.17.44-.173.446zm-7.324-4.784a23.352 23.352 0 0 0 -7.946 1.378 7.952 7.952 0 0 1 15.892 0 23.353 23.353 0 0 0 -7.946-1.378z" transform="translate(-119.053 -81.39)"/><path d="m98.535 107.67h-6.111a20.2 20.2 0 0 0 -7.121 1.179 1.465 1.465 0 0 0 1.017 2.751 17.331 17.331 0 0 1 6.1-1h4.65v6.267h-4.646a10.06 10.06 0 0 0 -5.118 1.161 22.208 22.208 0 0 0 -4.81 3.967 23.621 23.621 0 0 1 -16.813 6.964h-10.926q1.67-.681 3.275-1.512a39.632 39.632 0 0 0 7.185-4.755h.467a17.4 17.4 0 0 0 12.381-5.128 42.482 42.482 0 0 1 3.435-3.141 1.465 1.465 0 1 0 -1.832-2.286 45.246 45.246 0 0 0 -3.674 3.355 14.477 14.477 0 0 1 -7.358 3.971 39.748 39.748 0 0 0 -3.536-58.031 1.465 1.465 0 0 0 -1.866 2.258 36.852 36.852 0 0 1 -22.275 65.248c-.393.012-.787.021-1.184.021a36.85 36.85 0 1 1 18.783-68.559 1.465 1.465 0 1 0 1.5-2.519 39.781 39.781 0 1 0 -20.274 74.008q.52 0 1.038-.013a1.466 1.466 0 0 0 .189.013h24.672a26.532 26.532 0 0 0 18.884-7.822c3.552-3.552 4.873-4.27 7.857-4.27h6.111a1.465 1.465 0 0 0 1.465-1.466v-9.2a1.465 1.465 0 0 0 -1.465-1.461z" transform="translate(0 -52.33)"/></g></svg>