<svg height="110.748" viewBox="0 0 110.742 110.748" width="110.742" xmlns="http://www.w3.org/2000/svg"><g fill="#c0c0c0" transform="translate(-.014)"><path d="m101.325 24.434a2.163 2.163 0 1 0 -3.586 2.42 51.054 51.054 0 1 1 -13.1-13.324 2.163 2.163 0 1 0 2.483-3.542 55.369 55.369 0 1 0 14.2 14.446z"/><path d="m92.613 47.5a45.1 45.1 0 1 0 45.1 45.1 45.151 45.151 0 0 0 -45.1-45.1zm0 85.874a40.774 40.774 0 1 1 40.774-40.774 40.82 40.82 0 0 1 -40.774 40.77z" transform="translate(-37.225 -37.222)"/><path d="m242.349 175.794-7.107-7.107a7.567 7.567 0 0 0 -4.5-10.854v-15.674a2.163 2.163 0 0 0 -4.326 0v15.674a7.57 7.57 0 1 0 5.763 13.913l7.107 7.107a2.163 2.163 0 0 0 3.059-3.059zm-17.01-10.707a3.245 3.245 0 1 1 3.245 3.245 3.248 3.248 0 0 1 -3.246-3.244z" transform="translate(-173.195 -109.714)"/><path d="m248.176 94.523a2.163 2.163 0 0 0 2.163-2.163v-2.191a2.163 2.163 0 1 0 -4.326 0v2.191a2.163 2.163 0 0 0 2.163 2.163z" transform="translate(-192.788 -68.969)"/><path d="m171.053 110.252a2.163 2.163 0 0 0 -3.746 2.163l1.1 1.9a2.163 2.163 0 0 0 3.746-2.163z" transform="translate(-130.878 -85.556)"/><path d="m114.329 168.384-1.9-1.1a2.163 2.163 0 1 0 -2.163 3.746l1.9 1.1a2.163 2.163 0 0 0 2.163-3.746z" transform="translate(-85.558 -130.875)"/><path d="m94.54 248.159a2.163 2.163 0 0 0 -2.163-2.159h-2.191a2.163 2.163 0 0 0 0 4.326h2.191a2.163 2.163 0 0 0 2.163-2.167z" transform="translate(-68.972 -192.785)"/><path d="m112.166 320.215-1.9 1.1a2.163 2.163 0 1 0 2.163 3.746l1.9-1.1a2.163 2.163 0 0 0 -2.163-3.746z" transform="translate(-85.558 -250.722)"/><path d="m171.357 374.337a2.163 2.163 0 0 0 -2.955.792l-1.1 1.9a2.163 2.163 0 1 0 3.746 2.163l1.1-1.9a2.163 2.163 0 0 0 -.791-2.955z" transform="translate(-130.879 -293.138)"/><path d="m248.176 393.858a2.163 2.163 0 0 0 -2.163 2.163v2.191a2.163 2.163 0 1 0 4.326 0v-2.191a2.163 2.163 0 0 0 -2.163-2.163z" transform="translate(-192.788 -308.663)"/><path d="m323.979 375.128a2.163 2.163 0 1 0 -3.746 2.163l1.1 1.9a2.163 2.163 0 1 0 3.746-2.163z" transform="translate(-250.726 -293.137)"/><path d="m379.205 321.31-1.9-1.1a2.163 2.163 0 0 0 -2.163 3.746l1.9 1.1a2.163 2.163 0 1 0 2.163-3.746z" transform="translate(-293.14 -250.722)"/><path d="m393.875 248.159a2.163 2.163 0 0 0 2.163 2.163h2.191a2.163 2.163 0 0 0 0-4.326h-2.191a2.163 2.163 0 0 0 -2.163 2.163z" transform="translate(-308.666 -192.785)"/><path d="m375.145 168.385a2.163 2.163 0 1 0 2.163 3.747l1.9-1.1a2.163 2.163 0 0 0 -2.163-3.746z" transform="translate(-293.14 -130.876)"/><path d="m324.282 109.46a2.163 2.163 0 0 0 -2.955.792l-1.1 1.9a2.163 2.163 0 1 0 3.746 2.163l1.1-1.9a2.163 2.163 0 0 0 -.792-2.955z" transform="translate(-250.725 -85.555)"/><circle cx="93.253" cy="18.158" r="2.161"/></g></svg>