<svg height="115.511" viewBox="0 0 147.73 135.896" width="125.57" xmlns="http://www.w3.org/2000/svg"><g fill="#b7b7b7"><path d="m327.492 45.468a18.771 18.771 0 1 0 18.771 18.771 18.792 18.792 0 0 0 -18.771-18.771zm0 32.666a13.9 13.9 0 1 1 13.895-13.9 13.911 13.911 0 0 1 -13.895 13.9z" transform="translate(-219.644 -38.266)"/><path d="m145.292 142.264h-2.084v-10.951a2.438 2.438 0 0 0 -2.438-2.438h-14.25v-38.636a2.438 2.438 0 0 0 -2.438-2.438h-12.622v-6.447a2.438 2.438 0 0 0 -4.876 0v6.446h-12.621a2.438 2.438 0 0 0 -2.438 2.438v9.336h-10.564a2.438 2.438 0 0 0 -2.438 2.438v21.268a41.165 41.165 0 0 0 -39.85 2.954l-1.41-51.847a8.465 8.465 0 0 0 .852-16.536l-.841-10.414a2.438 2.438 0 0 0 -2.43-2.242h-.3v-22.249a2.438 2.438 0 1 0 -4.876 0v22.254h-.3a2.438 2.438 0 0 0 -2.43 2.242l-.838 10.41a8.465 8.465 0 0 0 .851 16.535l-1.851 67.877h-22.662a2.438 2.438 0 1 0 0 4.876h142.854a2.438 2.438 0 0 0 0-4.876zm-84.052-17.9a35.833 35.833 0 0 1 20.831 6.6h-41.665a35.835 35.835 0 0 1 20.833-6.603zm-29.624-74.292h.978l.605 7.491h-2.188zm.754 81.3a2.436 2.436 0 0 0 -1.09 2v8.894h-1.3l1.844-67.77h.566l1.507 55.437q-.779.696-1.526 1.437zm-4.082-61.754a3.59 3.59 0 1 1 0-7.18h7.635a3.59 3.59 0 0 1 0 7.18zm58.035 72.646h-50.167v-6.425h50.167zm22.32-34.588h-13.6a2.438 2.438 0 0 0 0 4.876h13.6v2.384h-13.6a2.438 2.438 0 1 0 0 4.876h13.6v2.384h-13.6a2.438 2.438 0 0 0 0 4.876h13.6v2.546h-13.6a2.438 2.438 0 1 0 0 4.876h13.6v7.771h-17.443v-8.893a2.435 2.435 0 0 0 -1.091-2 41.524 41.524 0 0 0 -5.093-4.3h3.314a2.438 2.438 0 0 0 0-4.876h-4.93v-2.384h4.93a2.438 2.438 0 0 0 0-4.876h-4.93v-2.384h4.93a2.438 2.438 0 0 0 0-4.876h-4.93v-3.226h25.244v3.226zm13-8.1h-3.63a2.438 2.438 0 0 0 0 4.876h3.63v3.088h-3.63a2.438 2.438 0 1 0 0 4.876h3.63v3.084h-3.63a2.438 2.438 0 1 0 0 4.876h3.63v3.088h-3.63a2.438 2.438 0 0 0 0 4.876h3.63v3.088h-3.63a2.438 2.438 0 1 0 0 4.876h3.63v5.958h-8.126v-40.25a2.438 2.438 0 0 0 -2.438-2.438h-14.679v-6.9h25.244v6.9zm16.688 42.689h-11.811v-8.513h11.812z" transform="translate(0 -20.508)"/><path d="m145.292 474.594h-142.854a2.438 2.438 0 0 0 0 4.876h142.854a2.438 2.438 0 1 0 0-4.876z" transform="translate(0 -343.574)"/></g></svg>