<svg xmlns="http://www.w3.org/2000/svg" width="43.228" height="35.03" viewBox="0 0 43.228 35.03"><path d="M441.117,58.7a13.817,13.817,0,0,1-1,1.358,16.765,16.765,0,0,1-3.233,3.06l-.152.282a23.928,23.928,0,0,1-.2,3.922,26.248,26.248,0,0,1-7.162,14.843,23.851,23.851,0,0,1-12.214,6.784,27.365,27.365,0,0,1-4.936.58c-.267.008-.533.011-.8.011A24.778,24.778,0,0,1,398.1,85.723l-.214-.132a19.663,19.663,0,0,0,2.079.112,17.971,17.971,0,0,0,6.783-1.321,17.527,17.527,0,0,0,4.223-2.466,8.774,8.774,0,0,1-8.178-6.139,8.526,8.526,0,0,0,1.642.16,9.317,9.317,0,0,0,2.148-.258l.133-.066a8.8,8.8,0,0,1-6.982-8.754,8.686,8.686,0,0,0,3.93,1.059,8.858,8.858,0,0,1-2.591-11.765A25.059,25.059,0,0,0,419.24,65.4c-.048-.363-.094-.661-.142-.976a8.945,8.945,0,0,1,7.372-9.779,9.776,9.776,0,0,1,1.609-.137,8.534,8.534,0,0,1,6.117,2.6.47.47,0,0,0,.325.152.551.551,0,0,0,.138-.02,17.494,17.494,0,0,0,5.16-1.968l.117-.066a8.727,8.727,0,0,1-3.76,4.816A17.113,17.113,0,0,0,441.117,58.7Z" transform="translate(-397.889 -54.51)" fill="#bb880f"/></svg>